<?xml version="1.0"?>
<svg xmlns="http://www.w3.org/2000/svg" version="1.2" baseProfile="tiny" width="2048" height="1024" viewBox="0 0 2048 1024" stroke-linecap="round" stroke-linejoin="round">
<g id="ne_110m_admin_0_countries">
<path d="M 2039.76 344.64 2047 342.27 2047 346.16 2040.77 346.45 2039.76 344.64 Z M 1303.06 485.02 1300.47 488.39 1294.96 489.33 1289.31 495.19 1294.48 500.59 1293.92 504.41 1300.12 511.11 1296.73 513.4 1295.75 514.84 1293.24 514.46 1289.33 511 1287.73 510.81 1284.16 509.5 1282.42 507.16 1277.12 505.98 1273.68 506.87 1272.68 505.81 1264.94 503.09 1256.57 502.17 1251.77 501.19 1251.08 501.87 1243.83 497.06 1237.35 494.92 1232.44 491.58 1236.57 490.67 1241.29 485.92 1238.11 483.67 1246.49 481.35 1246.34 480.11 1241.24 481.02 1241.42 478.5 1244.35 476.91 1249.85 476.5 1250.74 474.6 1249.48 471.47 1251.79 468.49 1251.73 466.82 1243.35 464.97 1240.03 465.03 1236.52 462.37 1232.16 463.27 1224.94 461.27 1225.06 460.16 1223.04 457.69 1218.51 457.42 1218.04 455.65 1219.46 454.5 1215.83 451.28 1209.93 451.83 1208.21 451.55 1206.77 452.84 1204.65 452.61 1203.25 448.97 1201.92 447.08 1203.01 446.55 1207.6 446.75 1209.81 445.51 1208.17 443.99 1204.34 442.99 1204.68 441.97 1202.37 440.93 1198.81 437.21 1200.02 435.67 1199.47 433.01 1193.91 431.65 1190.93 432.33 1190.12 430.92 1184.14 429.49 1182.31 426.14 1181.83 423.38 1179.09 422.07 1181.52 420.27 1179.84 414.97 1183.88 411.7 1183.03 410.7 1189.49 407.56 1183.53 404.86 1195.7 397.61 1200.98 394.32 1203.12 391.42 1194.7 387.53 1197.03 383.83 1191.91 379.6 1195.74 374.72 1189.13 368.25 1194.37 363.97 1185.67 360.18 1186.5 356.2 1191.09 355.68 1200.76 353.4 1206.62 351.42 1215.96 354.86 1231.52 356.21 1252.99 362.64 1257.36 365.34 1257.73 369.12 1251.42 372.11 1242.14 373.62 1216.77 369.3 1212.6 370.03 1221.86 374.19 1222.23 376.83 1222.6 382.63 1229.91 384.37 1234.36 385.84 1235.09 383.09 1231.67 380.64 1235.28 378.49 1249.02 382.03 1253.81 380.64 1249.98 376.48 1263.23 370.92 1268.47 371.24 1273.78 373.23 1277.09 369.32 1272.35 365.94 1275.13 362.54 1270.96 359.01 1286.85 360.83 1290.1 364.02 1282.91 364.72 1282.94 367.88 1287.42 369.83 1296.2 368.59 1297.59 364.97 1309.46 362.26 1329.29 357.38 1333.58 357.66 1327.98 361.11 1335.03 361.7 1339.1 359.76 1349.75 359.6 1358.19 357.25 1364.67 360.67 1371.13 356.91 1365.17 353.62 1368.13 351.74 1384.91 353.46 1392.78 355.24 1413.38 361.73 1417.18 358.76 1411.4 355.75 1411.24 354.55 1404.39 353.99 1406.26 351.29 1403.22 346.86 1403.05 345.04 1413.54 339.89 1417.27 334.73 1421.49 333.61 1436.54 335.11 1437.72 338.27 1432.34 342.88 1435.87 344.69 1437.7 348.67 1436.41 356.45 1442.68 359.94 1440.24 363.73 1429.11 371.8 1435.6 372.64 1437.86 370.59 1444.12 369.13 1445.63 366.32 1450.55 363.62 1447.23 360.39 1449.89 356.63 1443.67 356.17 1442.3 353 1446.84 347.3 1439.46 342.66 1449.63 338.83 1448.31 334.79 1451.15 334.66 1454.13 337.81 1451.89 343.3 1457.97 344.34 1455.38 340.24 1464.89 338 1476.69 337.7 1487.19 340.94 1482.14 336.21 1481.57 330.15 1491.45 329.01 1505.12 329.26 1517.44 328.51 1512.82 325.54 1519.4 321.81 1525.93 321.65 1536.98 318.83 1551.98 318.08 1553.88 316.52 1568.8 315.99 1573.45 317.27 1586.21 314.25 1596.65 314.34 1598.22 311.89 1603.65 309.47 1617.06 307.14 1626.81 308.98 1619.07 310.38 1631.95 311.25 1633.48 314.06 1638.67 312.68 1655.29 312.75 1668.1 315.53 1672.66 317.65 1671.25 320.61 1664.96 322.29 1650.03 325.45 1645.76 327.13 1652.8 327.93 1661.21 329.36 1666.33 328.29 1669.23 331.93 1671.72 330.46 1680.81 329.56 1699.05 330.5 1700.43 333.16 1724.19 334 1724.51 329.66 1736.58 330.66 1745.65 330.62 1754.83 333.62 1757.44 337.26 1754.08 339.64 1761.22 344.11 1770.16 346.42 1775.64 340.45 1784.76 343.01 1794.44 341.48 1805.44 343.23 1809.63 341.64 1818.93 342.43 1814.82 337.16 1822.33 334.69 1873.66 338.38 1878.5 341.76 1893.37 346.1 1916.32 345.03 1927.64 345.96 1932.37 348.31 1931.68 352.47 1938.68 354.09 1946.29 352.92 1956.36 352.77 1967.09 353.89 1977.87 353.26 1987.77 358.31 1994.81 356.49 1990.21 352.86 1992.74 350.34 2010.88 351.93 2022.7 351.59 2039.04 354.3 2047 356.78 2047 379.42 2046.96 379.45 2039.65 381.95 2032.29 381.53 2037.41 384.56 2040.8 389.24 2043.42 390.77 2044.08 393.12 2042.61 394.63 2032.02 393.39 2016.14 397.67 2011.08 398.33 2002.39 402.32 1994.14 405.81 1992.05 408.39 1983.92 404.46 1969.11 408.92 1966.52 406.81 1961.05 409.25 1953.45 408.47 1951.62 412.21 1944.8 417.71 1945 420 1951.47 421.28 1950.71 429.55 1945.44 429.76 1943 434.51 1945.37 436.96 1935.43 439.86 1933.46 446.35 1924.98 447.74 1923.28 453.51 1915.09 458.81 1912.99 454.89 1910.55 446.6 1907.38 433.97 1910.11 426.09 1914.91 422.7 1915.21 420.04 1924.04 418.77 1934.19 411.62 1943.97 405.77 1954.19 401.24 1958.76 393.23 1951.85 393.7 1948.44 398.39 1934.02 404.63 1929.37 397.64 1914.7 399.57 1900.47 409.1 1905.17 412.58 1892.48 414.07 1883.69 414.65 1884.11 410.54 1875.27 409.68 1868.23 412.47 1850.85 411.49 1832.16 413.18 1813.75 424.27 1791.97 437.68 1800.92 438.39 1803.72 441.95 1809.24 443.21 1812.87 440.37 1819.11 440.74 1827.31 447 1827.51 451.83 1823.06 457.51 1822.58 464.3 1820.02 473.38 1811.45 481.61 1809.55 485.54 1801.83 492.16 1794.18 498.72 1790.51 502.08 1782.93 505.41 1779.35 505.48 1775.78 502.72 1768.15 506.88 1767.27 508.77 1766.47 507.78 1766.44 504.89 1769.34 504.74 1770.16 498.02 1768.66 493.15 1773.54 491.15 1780.44 492.15 1784.26 486.62 1786.21 480.4 1788.41 478.32 1791.4 473.2 1782.01 474.88 1777.08 477.12 1768.44 477.11 1766.14 471.77 1759.41 467.73 1749.52 465.92 1747.42 460.35 1745.44 456.86 1743.31 454.41 1739.8 448.68 1734.8 446.59 1726.3 444.9 1718.76 445.05 1711.7 446.08 1707.01 448.9 1710.12 450.25 1710.2 453.39 1707.03 455.21 1701.9 461.24 1701.96 463.74 1693.95 467.33 1687.12 465.19 1680.34 465.66 1677.37 463.76 1673.96 463.14 1665.64 467.15 1658.15 468.09 1652.93 469.5 1645.77 468.57 1640.5 468.63 1637.05 465.73 1631.48 463 1625.79 462.25 1618.6 462.99 1613.23 464.04 1605.15 461.65 1604.07 457.39 1597.39 455.93 1592.23 455.27 1585.86 452.92 1579.98 458.81 1582.28 462.15 1576.76 466.11 1568.54 464.68 1562.87 464.48 1559.07 461.82 1553.14 461.74 1548.2 460 1539.56 462.67 1528.71 467.56 1522.72 468.55 1520.5 469.02 1517.48 465.54 1510.16 466.3 1507.74 463.89 1503.77 462.79 1501.03 459.5 1497.89 458.48 1489.73 459.94 1481.9 456.66 1478.87 459.64 1466.17 445.21 1458.92 440.82 1461 439.03 1446.75 444.4 1441.3 444.72 1441.77 441.62 1434.47 439.68 1428.54 441.06 1426.75 435.17 1416.54 433.95 1411.43 436.31 1397.21 438.4 1394.43 439.81 1373.16 441.79 1370.56 443.73 1374.66 447.62 1369.21 449.1 1370.27 450.64 1364.82 453.41 1374.03 457.32 1372.6 460.01 1364.62 459.77 1362.97 461.46 1355.7 458.51 1346.69 458.62 1340.66 461.02 1333.93 458.72 1321.4 454.79 1312.52 454.93 1300.79 461.12 1300.08 465.27 1294.24 461.97 1289.7 468.21 1291.36 469.37 1288.08 473.68 1292.91 477.54 1297.13 477.38 1300.75 481.18 1300.17 484.1 1303.06 485.02 Z M 1556.97 288.23 1569.26 286.95 1580.31 289.81 1593.39 295.3 1591.99 300.41 1579.59 301.12 1563.76 299.48 1554.33 297.31 1549.97 293.24 1542.21 292.11 1556.97 288.23 Z M 1608.46 298.14 1622.87 301.37 1621.18 303.68 1589.14 305.87 1599.52 298.41 1604.19 297.77 1608.46 298.14 Z M 1813.02 316.01 1828.03 316.26 1848.57 319.27 1844.1 323.49 1823.16 323.34 1813.73 324.68 1802.47 320.98 1805.53 317.08 1813.02 316.01 Z M 1866.4 320.51 1880.66 321.99 1874.09 324.24 1865.01 323.73 1854.44 321.49 1855.8 319.65 1866.4 320.51 Z M 1818.89 331.74 1824.28 329.49 1831.39 328.96 1839.46 331.14 1840.15 332.63 1831.53 332.67 1819.88 332.04 1818.89 331.74 Z M 1278.88 290.7 1289.98 289.67 1298.61 289.6 1299.77 291.13 1303.04 289.77 1308.39 288.83 1316.82 290.08 1314.62 290.94 1306.99 291.69 1301.88 292.13 1301.09 293.06 1294.45 294 1288.29 292.65 1291.53 290.88 1278.88 290.7 Z M 1153.19 439.96 1142.74 440.05 1135.74 439.4 1137.03 436.9 1144.88 435.06 1150.83 436.05 1153.34 436.95 1152.73 438.51 1153.19 439.96 Z M 1328.11 329.58 1341.71 324.59 1340.17 322.01 1352.89 319.01 1371.65 315.36 1390.57 314.29 1400.3 312.19 1411.36 311.45 1415.31 313.69 1411.49 315.46 1391.36 318.28 1374 320.99 1356.34 326.4 1347.87 331.95 1338.97 337.41 1340.12 342.13 1350.99 346.79 1347.64 347.29 1329.07 346.55 1327.56 344.03 1317.27 342.51 1316.44 339.44 1322.25 338.22 1322.06 335.12 1333.33 330.27 1328.11 329.58 Z M 1836.23 443.5 1838.2 448.98 1838.05 454.57 1840.4 460.31 1846.12 470.37 1837.71 468.5 1834.21 476.71 1839.75 482.53 1839.59 486.5 1835.28 483.08 1831.56 487.48 1830.5 482.71 1831.14 477.17 1830.49 471.04 1831.81 466.74 1832.06 459.14 1828.73 453.56 1829.23 445.79 1834.48 443.17 1832.23 440.54 1834.75 439.74 1836.23 443.5 Z M 29.82 366.77 29.34 370.3 33.17 371.71 31.85 367.58 47.28 368.43 58.4 373.75 52.77 376.23 43.45 376.82 43.31 382.37 41.04 383.55 35.71 383.38 31.38 381.4 23.83 379.74 22.56 377.28 16.78 376.35 10.32 377.09 7.23 375.1 8.47 372.98 1.66 374.33 4.22 377.01 1 379.42 1 356.78 14.92 361.12 29.82 366.77 Z M 8.42 345.81 1 346.16 1 342.27 1.73 342.04 6.55 342.05 14.77 343.67 14.28 344.45 8.42 345.81 Z M 1214.03 487.45 1215.53 486.04 1219.57 487.26 1221.39 487.48 1222.13 488.61 1222.99 488.78 1223.03 489.27 1225.82 490.64 1231.61 490.3 1230.5 492.33 1224.28 493.31 1216.57 496.6 1213.41 495.44 1214.66 492.77 1208.45 491.11 1209.45 490.02 1214.89 488.13 1214.03 487.45 Z" fill-rule="evenodd" stroke="#ffffff" stroke-width="0.6" fill-opacity="0.15" fill="#97c1ff" id="RUS"/>
<path d="M 1110.06 295.91 1112.22 293.96 1120.56 293.77 1127.73 295.75 1146.44 299.99 1132.14 302.22 1128.98 306.41 1123.99 307.48 1121.29 312.19 1114.44 312.41 1102.22 308.94 1107.37 306.92 1098.85 305.28 1087.78 300.48 1083.36 296.03 1098.85 294 1101.97 295.99 1110.06 295.91 Z M 1200.76 353.4 1191.09 355.68 1186.5 356.2 1188.91 352.22 1181.61 349.96 1172.79 351.88 1170 356.05 1164.58 358.56 1158.48 357.19 1151.06 357.47 1144.74 354.47 1141.34 355.97 1137.81 356.2 1136.98 359.94 1126.27 359.03 1124.76 362.19 1119.3 362.18 1115.55 366.22 1109.87 372.52 1101.04 380.52 1103.11 382.46 1101.13 384.71 1095.5 384.61 1091.81 389.94 1092.15 397.49 1095.79 400.37 1093.91 407.05 1089.18 410.95 1086.67 414.22 1082.86 410.73 1071.64 417.31 1064.06 418.64 1056.2 415.75 1054.17 409.64 1052.37 396.52 1057.6 392.86 1072.61 388.09 1083.83 382.23 1094.24 374.31 1107.89 363.33 1117.41 359.05 1133.03 351.93 1145.5 349.44 1154.85 349.74 1163.51 345.03 1173.87 345.28 1184.07 344.15 1201.85 348.31 1194.53 349.83 1200.76 353.4 Z M 1179.77 293.73 1171.34 296.8 1154.86 297.46 1138.09 296.52 1137.08 294.95 1128.93 294.85 1122.71 292.24 1140.26 290.66 1148.51 292.02 1154.26 290.32 1168.63 291.74 1179.77 293.73 Z M 1164.52 306.25 1151.82 308.58 1141.79 307.26 1145.71 305.79 1142.28 303.97 1154.06 302.84 1156.32 304.97 1164.52 306.25 Z" fill-rule="evenodd" stroke="#ffffff" stroke-width="0.6" fill-opacity="0.15" fill="#97c1ff" id="NOR"/>
<path d="M 730.41 725.1 727.05 730.3 725.3 734.49 723.13 736.65 720.41 737.05 719.63 735.45 718.36 735.21 716.6 736.76 714.12 735.58 715.57 733.19 716.07 730.59 717.06 728.15 714.83 724.78 714.38 720.89 717.34 716.01 719.27 716.63 723.45 717.98 729.47 722.77 730.41 725.1 Z M 1059.16 467.6 1061.84 469.09 1070.03 470.14 1067.16 474.03 1066.44 478.08 1064.88 479.05 1062.29 478.53 1062.47 479.97 1058.31 483.16 1058.23 485.74 1060.94 484.85 1062.89 487.34 1062.66 488.94 1064.33 491.08 1062.36 492.81 1063.83 497.21 1066.91 497.93 1066.26 500.39 1061.11 503.61 1049.9 502.07 1041.62 503.91 1040.97 507.33 1034.38 508.07 1027.99 505.5 1025.92 506.73 1015.46 504.14 1013.19 501.94 1016.13 498.53 1017.22 487.2 1011.35 481.24 1007.16 478.36 998.47 476.18 997.9 472.03 1005.27 470.8 1014.81 472.26 1013.01 465.83 1018.38 468.26 1031.61 463.83 1033.31 459.18 1038.29 458.03 1039.11 460.03 1041.75 460.12 1044.39 462.4 1048.36 465.08 1051.28 464.64 1056.25 467.23 1057.52 467.72 1059.16 467.6 Z M 1073.71 506.45 1077.37 504.28 1078.33 509.15 1076.46 513.55 1073.88 512.39 1072.56 508.56 1073.71 506.45 Z" fill-rule="evenodd" stroke="#ffffff" stroke-width="0.6" fill-opacity="0.15" fill="#97c1ff" id="FRA"/>
<path d="M 1086.67 414.22 1089.18 410.95 1093.91 407.05 1095.79 400.37 1092.15 397.49 1091.81 389.94 1095.5 384.61 1101.13 384.71 1103.11 382.46 1101.04 380.52 1109.87 372.52 1115.55 366.22 1119.3 362.18 1124.76 362.19 1126.27 359.03 1136.98 359.94 1137.81 356.2 1141.34 355.97 1148.91 358.75 1157.78 362.62 1157.93 371.37 1159.85 373.58 1150.07 375.19 1144.56 379.16 1145.45 382.64 1136.41 387.21 1125.43 392.1 1121.3 400.1 1125.34 404.1 1130.78 407.26 1125.56 413.67 1119.65 415 1117.48 424.54 1114.25 429.86 1107.36 429.31 1104.14 433.82 1097.56 434.08 1095.75 428.71 1090.99 422.26 1086.67 414.22 Z" stroke="#ffffff" stroke-width="0.6" fill-opacity="0.15" fill="#97c1ff" id="SWE"/>
<path d="M 1184.14 429.49 1190.12 430.92 1190.93 432.33 1193.91 431.65 1199.47 433.01 1200.02 435.67 1198.81 437.21 1202.37 440.93 1204.68 441.97 1204.34 442.99 1208.17 443.99 1209.81 445.51 1207.6 446.75 1203.01 446.55 1201.92 447.08 1203.25 448.97 1204.65 452.61 1199.77 452.95 1198.02 454.2 1197.65 457.06 1195.39 456.51 1190.27 456.78 1188.78 455.45 1186.64 456.44 1184.51 455.62 1180.03 455.51 1173.69 454.14 1167.95 453.7 1163.54 453.82 1160.43 455.36 1157.71 455.58 1157.6 453.05 1155.85 450.42 1159.26 449.26 1159.29 446.99 1157.71 444.83 1157.47 442.32 1162.96 442.36 1169.13 440.22 1170.45 437.01 1175.11 435.19 1174.58 432.64 1178.03 431.69 1184.14 429.49 Z" stroke="#ffffff" stroke-width="0.6" fill-opacity="0.15" fill="#97c1ff" id="BLR"/>
<path d="M 1204.65 452.61 1206.77 452.84 1208.21 451.55 1209.93 451.83 1215.83 451.28 1219.46 454.5 1218.04 455.65 1218.51 457.42 1223.04 457.69 1225.06 460.16 1224.94 461.27 1232.16 463.27 1236.52 462.37 1240.03 465.03 1243.35 464.97 1251.73 466.82 1251.79 468.49 1249.48 471.47 1250.74 474.6 1249.85 476.5 1244.35 476.91 1241.42 478.5 1241.24 481.02 1236.7 481.48 1232.92 483.32 1227.6 483.62 1222.7 485.74 1222.99 488.78 1222.13 488.61 1221.39 487.48 1219.57 487.26 1215.53 486.04 1214.03 487.45 1213.25 486.83 1204.41 485.39 1204.02 483.27 1198.76 483.97 1196.65 487.1 1192.25 491.3 1189.67 490.33 1187 491.24 1184.46 490.2 1185.89 489.58 1186.88 487.63 1188.44 485.82 1188.04 484.8 1189.23 484.35 1189.79 485.13 1193.14 485.3 1194.64 484.88 1193.58 484.3 1193.98 483.46 1192 482.01 1191.18 479.63 1189.11 478.71 1189.51 476.78 1186.95 475.25 1184.61 475.04 1180.42 473.27 1176.64 473.83 1175.29 474.67 1172.89 474.67 1171.46 475.99 1167.26 476.54 1165.32 477.41 1162.69 476.02 1159.04 476 1155.53 475.37 1153.07 476.59 1152.68 475.07 1149.52 473.52 1150.63 471.23 1152.21 469.75 1153.45 470.08 1151.98 467.53 1157.14 462.8 1159.96 462.14 1160.57 460.55 1157.71 455.58 1160.43 455.36 1163.54 453.82 1167.95 453.7 1173.69 454.14 1180.03 455.51 1184.51 455.62 1186.64 456.44 1188.78 455.45 1190.27 456.78 1195.39 456.51 1197.65 457.06 1198.02 454.2 1199.77 452.95 1204.65 452.61 Z" stroke="#ffffff" stroke-width="0.6" fill-opacity="0.15" fill="#97c1ff" id="UKR"/>
<path d="M 1157.47 442.32 1157.71 444.83 1159.29 446.99 1159.26 449.26 1155.85 450.42 1157.6 453.05 1157.71 455.58 1160.57 460.55 1159.96 462.14 1157.14 462.8 1151.98 467.53 1153.45 470.08 1152.21 469.75 1146.8 467.57 1142.71 468.37 1140.03 467.79 1136.67 469 1133.81 466.99 1131.47 467.76 1131.15 467.42 1128.53 464.62 1124.31 464.28 1123.77 462.5 1119.87 461.86 1119.02 463.33 1115.94 462.15 1116.29 460.59 1112.04 460.1 1109.35 458.27 1107.02 454.64 1107.46 452.68 1106.05 449.64 1103.99 447.61 1105.57 446.09 1104.25 443.2 1108.13 441.53 1117 438.91 1124.16 436.98 1129.83 437.94 1130.26 439.33 1135.74 439.4 1142.74 440.05 1153.19 439.96 1156.1 440.57 1157.47 442.32 Z" stroke="#ffffff" stroke-width="0.6" fill-opacity="0.15" fill="#97c1ff" id="POL"/>
<path d="M 1120.5 475.22 1120.07 477.54 1116.87 477.55 1117.97 478.79 1116.08 482.44 1115 483.4 1110.03 483.54 1107.16 484.83 1102.47 484.39 1094.34 482.93 1093.07 480.95 1087.45 481.94 1086.79 483.02 1083.35 482.21 1080.45 482.06 1077.88 481.02 1078.75 479.63 1078.53 478.62 1080.24 478.31 1083.12 479.89 1083.93 478.39 1088.94 478.63 1093 477.61 1095.73 477.78 1097.5 478.95 1098.03 477.98 1097.22 474.28 1099.27 473.56 1101.27 470.94 1105.49 472.77 1108.69 470.44 1110.69 470.02 1115.1 471.75 1117.77 471.46 1120.39 472.53 1119.93 473.25 1120.5 475.22 Z" stroke="#ffffff" stroke-width="0.6" fill-opacity="0.15" fill="#97c1ff" id="AUT"/>
<path d="M 1149.52 473.52 1152.68 475.07 1153.07 476.59 1149.6 477.78 1146.91 481.64 1143.47 485.49 1138.92 486.56 1135.37 486.31 1131.02 487.81 1128.89 488.66 1124.2 487.56 1119.95 485.13 1118.14 484.43 1117.04 482.51 1116.08 482.44 1117.97 478.79 1116.87 477.55 1120.07 477.54 1120.5 475.22 1123.39 476.67 1125.49 477.29 1130.26 476.6 1130.72 475.46 1132.97 475.29 1135.74 474.41 1136.36 474.77 1139.03 474.06 1140.36 472.72 1142.22 472.38 1148.31 474.1 1149.52 473.52 Z" stroke="#ffffff" stroke-width="0.6" fill-opacity="0.15" fill="#97c1ff" id="HUN"/>
<path d="M 1175.29 474.67 1176.64 473.83 1180.42 473.27 1184.61 475.04 1186.95 475.25 1189.51 476.78 1189.11 478.71 1191.18 479.63 1192 482.01 1193.98 483.46 1193.58 484.3 1194.64 484.88 1193.14 485.3 1189.79 485.13 1189.23 484.35 1188.04 484.8 1188.44 485.82 1186.88 487.63 1185.89 489.58 1184.46 490.2 1183.44 487.6 1184.04 485.18 1183.86 482.68 1180.58 479.3 1178.78 476.91 1177.02 475.22 1175.29 474.67 Z" stroke="#ffffff" stroke-width="0.6" fill-opacity="0.15" fill="#97c1ff" id="MDA"/>
<path d="M 1184.46 490.2 1187 491.24 1189.67 490.33 1192.25 491.3 1192.38 492.77 1189.62 493.99 1187.9 493.46 1186.31 500.32 1182.96 499.72 1178.83 497.65 1172.14 498.98 1169.32 500.43 1160.97 500.13 1156.61 499.24 1154.4 499.66 1152.77 497.32 1151.73 496.33 1153.04 495.37 1151.64 494.66 1149.86 495.94 1146.54 494.28 1146.1 491.94 1142.64 490.61 1142 488.8 1138.92 486.56 1143.47 485.49 1146.91 481.64 1149.6 477.78 1153.07 476.59 1155.53 475.37 1159.04 476 1162.69 476.02 1165.32 477.41 1167.26 476.54 1171.46 475.99 1172.89 474.67 1175.29 474.67 1177.02 475.22 1178.78 476.91 1180.58 479.3 1183.86 482.68 1184.04 485.18 1183.44 487.6 1184.46 490.2 Z" stroke="#ffffff" stroke-width="0.6" fill-opacity="0.15" fill="#97c1ff" id="ROU"/>
<path d="M 1174.58 432.64 1175.11 435.19 1170.45 437.01 1169.13 440.22 1162.96 442.36 1157.47 442.32 1156.1 440.57 1153.19 439.96 1152.73 438.51 1153.34 436.95 1150.83 436.05 1144.88 435.06 1143.67 430.28 1150.18 428.54 1159.71 428.9 1165.29 428.34 1166.09 429.52 1169.11 429.88 1174.58 432.64 Z" stroke="#ffffff" stroke-width="0.6" fill-opacity="0.15" fill="#97c1ff" id="LTU"/>
<path d="M 1179.09 422.07 1181.83 423.38 1182.31 426.14 1184.14 429.49 1178.03 431.69 1174.58 432.64 1169.11 429.88 1166.09 429.52 1165.29 428.34 1159.71 428.9 1150.18 428.54 1143.67 430.28 1143.86 426 1146.66 422.43 1152.01 420.49 1156.53 424.74 1161.09 424.63 1162.18 420.26 1167.02 419.26 1169.51 419.95 1174.4 422.06 1179.09 422.07 Z" stroke="#ffffff" stroke-width="0.6" fill-opacity="0.15" fill="#97c1ff" id="LVA"/>
<path d="M 1183.03 410.7 1183.88 411.7 1179.84 414.97 1181.52 420.27 1179.09 422.07 1174.4 422.06 1169.51 419.95 1167.02 419.26 1162.18 420.26 1162.84 416.91 1160.75 417.63 1157.14 415.61 1156.65 412.34 1163.83 410.76 1170.99 409.93 1177.16 410.87 1183.03 410.7 Z" stroke="#ffffff" stroke-width="0.6" fill-opacity="0.15" fill="#97c1ff" id="EST"/>
<path d="M 1104.25 443.2 1105.57 446.09 1103.99 447.61 1106.05 449.64 1107.46 452.68 1107.02 454.64 1109.35 458.27 1106.81 458.86 1105.31 458.21 1103.89 459.29 1099.81 460.39 1097.69 461.8 1093.56 463.04 1094.56 464.73 1095.16 467.13 1098.06 468.49 1101.27 470.94 1099.27 473.56 1097.22 474.28 1098.03 477.98 1097.5 478.95 1095.73 477.78 1093 477.61 1088.94 478.63 1083.93 478.39 1083.12 479.89 1080.24 478.31 1078.53 478.62 1072.44 476.88 1071.27 478.12 1066.44 478.08 1067.16 474.03 1070.03 470.14 1061.84 469.09 1059.16 467.6 1059.48 465.11 1058.34 463.83 1058.99 459.99 1058.04 454.03 1061.45 454.03 1062.89 451.89 1064.31 446.69 1063.24 444.76 1064.35 443.56 1069.1 443.25 1070.16 444.51 1074.02 441.7 1072.72 439.57 1072.46 436.35 1076.75 437.1 1080.39 436.23 1080.49 438.43 1086.23 439.76 1086.17 441.77 1091.95 440.7 1095.15 439.15 1101.56 441.39 1104.25 443.2 Z" stroke="#ffffff" stroke-width="0.6" fill-opacity="0.15" fill="#97c1ff" id="DEU"/>
<path d="M 1152.77 497.32 1154.4 499.66 1156.61 499.24 1160.97 500.13 1169.32 500.43 1172.14 498.98 1178.83 497.65 1182.96 499.72 1186.31 500.32 1183.36 502.67 1181.28 506.74 1183.11 509.98 1178.22 509.22 1172.43 511.01 1172.37 513.84 1167.2 514.37 1163.2 512.39 1158.65 513.95 1154.45 513.78 1154.04 510.03 1151.2 508.2 1152.13 507.4 1151.51 506.72 1152.47 504.92 1154.64 503.14 1151.88 500.68 1151.37 498.61 1152.77 497.32 Z" stroke="#ffffff" stroke-width="0.6" fill-opacity="0.15" fill="#97c1ff" id="BGR"/>
<path d="M 1173.41 548.1 1172.7 549.78 1164.52 550.26 1164.58 549.32 1157.64 548.21 1158.69 545.8 1161.8 547.71 1166.23 547.39 1170.45 547.79 1170.32 548.78 1173.41 548.1 Z M 1154.45 513.78 1158.65 513.95 1163.2 512.39 1167.2 514.37 1172.37 513.84 1172.43 511.01 1175.2 512.51 1173.44 516.07 1172.09 516.7 1168.63 516.54 1165.66 516.01 1158.78 517.48 1162.72 520.68 1159.83 521.6 1156.67 521.61 1153.66 518.68 1152.59 519.93 1153.86 523.32 1156.71 525.99 1154.56 527.24 1157.73 529.86 1160.54 531.5 1160.63 534.72 1155.37 533.21 1157.05 536.11 1153.44 536.7 1155.59 541.72 1151.82 541.79 1147.16 539.32 1145.03 534.77 1144.03 530.99 1141.82 528.38 1138.9 525.14 1138.52 523.52 1141.16 520.76 1141.5 518.92 1143.35 518.09 1143.46 516.6 1147.18 516.1 1149.35 514.85 1152.43 514.96 1153.36 513.97 1154.45 513.78 Z" fill-rule="evenodd" stroke="#ffffff" stroke-width="0.6" fill-opacity="0.15" fill="#97c1ff" id="GRC"/>
<path d="M 1143.46 516.6 1143.35 518.09 1141.5 518.92 1141.16 520.76 1138.52 523.52 1137.55 523.12 1137.44 521.87 1134.29 519.96 1133.8 517.26 1134.28 513.38 1135.05 511.61 1134.1 510.72 1133.71 508.91 1136.18 506.11 1136.54 507.18 1138.07 506.68 1139.28 508.2 1140.64 508.78 1141.02 510.84 1140.3 512.78 1141.11 515.21 1143.46 516.6 Z" stroke="#ffffff" stroke-width="0.6" fill-opacity="0.15" fill="#97c1ff" id="ALB"/>
<path d="M 1118.14 484.43 1119.95 485.13 1124.2 487.56 1128.89 488.66 1131.02 487.81 1132.4 490.01 1134.2 491.63 1132.01 493.77 1129.44 492.51 1125.51 492.59 1120.63 491.64 1117.97 491.77 1116.74 492.95 1114.7 491.64 1113.51 494 1116.3 496.66 1117.53 498.42 1120.14 500.54 1122.31 501.8 1124.45 504.18 1129.48 506.33 1128.86 507.29 1123.51 505.19 1120.22 503.14 1115.02 501.46 1110.24 497.27 1111.39 496.85 1108.8 494.46 1108.69 492.54 1105.04 491.64 1103.3 494.1 1101.62 492.19 1101.74 490.22 1101.95 490.13 1105.91 490.32 1106.95 489.36 1108.88 490.29 1111.11 490.4 1111.09 488.81 1113.07 488.23 1113.62 485.94 1118.14 484.43 Z" stroke="#ffffff" stroke-width="0.6" fill-opacity="0.15" fill="#97c1ff" id="HRV"/>
<path d="M 1078.53 478.62 1078.75 479.63 1077.88 481.02 1080.45 482.06 1083.35 482.21 1082.9 484.54 1080.39 485.5 1076.19 484.79 1074.96 487.08 1072.25 487.26 1071.27 486.36 1068.08 488.29 1065.34 488.56 1062.89 487.34 1060.94 484.85 1058.23 485.74 1058.31 483.16 1062.47 479.97 1062.29 478.53 1064.88 479.05 1066.44 478.08 1071.27 478.12 1072.44 476.88 1078.53 478.62 Z" stroke="#ffffff" stroke-width="0.6" fill-opacity="0.15" fill="#97c1ff" id="CHE"/>
<path d="M 1058.34 463.83 1059.48 465.11 1059.16 467.6 1057.52 467.72 1056.25 467.23 1056.86 464.04 1058.34 463.83 Z" stroke="#ffffff" stroke-width="0.6" fill-opacity="0.15" fill="#97c1ff" id="LUX"/>
<path d="M 1058.99 459.99 1058.34 463.83 1056.86 464.04 1056.25 467.23 1051.28 464.64 1048.36 465.08 1044.39 462.4 1041.75 460.12 1039.11 460.03 1038.29 458.03 1042.84 456.91 1047 457.35 1052.27 456.17 1055.87 458.66 1058.99 459.99 Z" stroke="#ffffff" stroke-width="0.6" fill-opacity="0.15" fill="#97c1ff" id="BEL"/>
<path d="M 1063.24 444.76 1064.31 446.69 1062.89 451.89 1061.45 454.03 1058.04 454.03 1058.99 459.99 1055.87 458.66 1052.27 456.17 1047 457.35 1042.84 456.91 1045.77 455.34 1050.75 446.98 1058.52 444.6 1063.24 444.76 Z" stroke="#ffffff" stroke-width="0.6" fill-opacity="0.15" fill="#97c1ff" id="NLD"/>
<path d="M 972.65 510.7 974.71 509.26 977.03 508.43 978.46 511.21 981.82 511.2 982.79 510.49 986.1 510.68 987.69 513.53 985.06 515.07 984.99 519.51 984.07 520.34 983.84 523.03 981.38 523.49 983.66 526.9 982.09 530.63 984.05 532.32 983.27 533.87 981.16 536 981.64 537.88 979.35 539.36 976.36 538.56 973.42 539.18 974.29 534.74 973.76 531.24 971.22 530.72 969.86 528.56 970.31 524.84 972.58 522.78 972.98 520.48 974.16 517.07 974.04 514.66 972.9 512.62 972.65 510.7 Z" stroke="#ffffff" stroke-width="0.6" fill-opacity="0.15" fill="#97c1ff" id="PRT"/>
<path d="M 981.64 537.88 981.16 536 983.27 533.87 984.05 532.32 982.09 530.63 983.66 526.9 981.38 523.49 983.84 523.03 984.07 520.34 984.99 519.51 985.06 515.07 987.69 513.53 986.1 510.68 982.79 510.49 981.82 511.2 978.46 511.21 977.03 508.43 974.71 509.26 972.65 510.7 972.94 506.65 970.62 504.19 978.66 500.09 985.61 501.11 993.24 501.07 999.29 502.05 1004.01 501.75 1013.19 501.94 1015.46 504.14 1025.92 506.73 1027.99 505.5 1034.38 508.07 1040.97 507.33 1041.27 510.63 1035.89 514.42 1028.61 515.62 1028.1 517.53 1024.61 520.68 1022.42 525.31 1024.63 528.56 1021.35 531.09 1020.12 534.79 1015.83 535.92 1011.8 540.29 1004.59 540.38 999.17 540.27 995.61 542.28 993.44 544.42 990.66 543.95 988.55 542.03 986.94 538.76 981.64 537.88 Z" stroke="#ffffff" stroke-width="0.6" fill-opacity="0.15" fill="#97c1ff" id="ESP"/>
<path d="M 988.78 442.57 989.71 446.63 985.42 451.71 975.34 455.07 967.3 454.21 971.9 448.27 968.94 442.5 976.67 438.04 980.96 435.39 982.14 438.44 980.96 441.48 984.48 441.4 988.78 442.57 Z" stroke="#ffffff" stroke-width="0.6" fill-opacity="0.15" fill="#97c1ff" id="IRL"/>
<path d="M 1083.35 482.21 1086.79 483.02 1087.45 481.94 1093.07 480.95 1094.34 482.93 1102.47 484.39 1101.85 487.19 1103.21 489.61 1098.69 488.78 1094.07 490.8 1094.38 493.62 1093.69 495.24 1095.55 498.14 1100.88 501 1103.74 505.7 1110.06 510.28 1114.51 510.24 1115.9 511.5 1114.3 512.63 1119.39 514.68 1123.57 516.4 1128.44 519.37 1129.03 520.43 1127.97 522.46 1124.81 519.81 1119.88 518.87 1117.48 522.55 1121.59 524.66 1120.92 527.62 1118.54 527.96 1115.51 532.84 1113.14 533.27 1113.16 531.54 1114.32 528.49 1115.55 527.27 1113.34 523.98 1111.6 521.11 1109.24 520.41 1107.56 517.95 1103.91 516.92 1101.45 514.63 1097.25 514.27 1092.81 511.7 1087.61 508 1083.74 504.73 1081.97 499.11 1079.14 498.45 1074.52 496.57 1071.9 497.34 1068.62 499.98 1066.26 500.39 1066.91 497.93 1063.83 497.21 1062.36 492.81 1064.33 491.08 1062.66 488.94 1062.89 487.34 1065.34 488.56 1068.08 488.29 1071.27 486.36 1072.25 487.26 1074.96 487.08 1076.19 484.79 1080.39 485.5 1082.9 484.54 1083.35 482.21 Z M 1107.89 531.94 1112.21 531.44 1110.16 535.91 1111.01 537.68 1109.82 540.6 1105.47 538.46 1102.58 537.84 1094.65 534.95 1095.44 532.04 1102.1 532.56 1107.89 531.94 Z M 1073.5 516.27 1076.34 514.51 1079.75 518.55 1078.96 526.06 1076.37 525.7 1074.05 527.6 1071.9 526.09 1071.67 519.24 1070.38 515.99 1073.5 516.27 Z" fill-rule="evenodd" stroke="#ffffff" stroke-width="0.6" fill-opacity="0.15" fill="#97c1ff" id="ITA"/>
<path d="M 1080.39 436.23 1076.75 437.1 1072.46 436.35 1070.15 433.2 1069.98 427.39 1070.92 425.85 1072.56 424.15 1077.56 423.79 1079.56 422.23 1084.13 420.62 1083.94 423.55 1082.25 425.4 1082.94 426.99 1086.02 427.85 1084.63 429.99 1082.94 429.38 1078.84 433.47 1080.39 436.23 Z M 1094.31 429.82 1096.12 432.67 1092.71 437.27 1086.76 434.06 1085.97 431.71 1094.31 429.82 Z" fill-rule="evenodd" stroke="#ffffff" stroke-width="0.6" fill-opacity="0.15" fill="#97c1ff" id="DNK"/>
<path d="M 988.78 442.57 984.48 441.4 980.96 441.48 982.14 438.44 980.96 435.39 985.73 435.16 991.82 438.67 988.78 442.57 Z M 1006.42 445.21 1006.43 445.21 1007.26 441.91 1003.46 438.41 1003.37 438.33 996.47 437.33 995.11 435.79 997.18 433.25 995.31 431.68 992.25 434.37 991.92 428.89 989.05 425.99 991.11 420.12 995.53 415.51 1000.06 415.96 1006.92 415.48 1000.85 421.63 1006.64 420.85 1012.86 420.88 1011.38 425.51 1006.27 430.6 1012.15 430.97 1012.6 431.56 1017.66 438.27 1021.55 439.18 1025.05 445.66 1026.67 447.9 1033.56 448.99 1032.87 452.62 1029.97 454.29 1032.24 457.23 1027.13 460.2 1019.52 460.15 1009.85 461.71 1007.2 460.59 1003.44 463.26 998.18 462.61 994.19 464.78 991.17 463.65 999.5 457.68 1004.59 456.45 1004.55 456.45 995.67 455.5 994.06 453.24 1000 451.48 996.89 448.41 997.97 444.69 1006.42 445.21 Z" fill-rule="evenodd" stroke="#ffffff" stroke-width="0.6" fill-opacity="0.15" fill="#97c1ff" id="GBR"/>
<path d="M 941.54 371.03 940.23 374.71 946.65 378.59 939.26 382.92 922.87 386.81 917.97 387.85 910.49 387.01 894.63 385.21 900.23 382.7 887.86 379.92 897.92 378.82 897.67 377.15 885.75 375.83 889.59 372.13 898.2 371.29 907.06 375.14 915.69 372.05 922.84 373.66 932.11 370.63 941.54 371.03 Z" stroke="#ffffff" stroke-width="0.6" fill-opacity="0.15" fill="#97c1ff" id="ISL"/>
<path d="M 1102.47 484.39 1107.16 484.83 1110.03 483.54 1115 483.4 1116.08 482.44 1117.04 482.51 1118.14 484.43 1113.62 485.94 1113.07 488.23 1111.09 488.81 1111.11 490.4 1108.88 490.29 1106.95 489.36 1105.91 490.32 1101.95 490.13 1103.21 489.61 1101.85 487.19 1102.47 484.39 Z" stroke="#ffffff" stroke-width="0.6" fill-opacity="0.15" fill="#97c1ff" id="SVN"/>
<path d="M 1186.5 356.2 1185.67 360.18 1194.37 363.97 1189.13 368.25 1195.74 374.72 1191.91 379.6 1197.03 383.83 1194.7 387.53 1203.12 391.42 1200.98 394.32 1195.7 397.61 1183.53 404.86 1173.22 405.31 1163.22 407.4 1153.98 408.59 1150.69 405.49 1145.18 403.63 1146.45 398.03 1143.69 392.9 1146.4 389.59 1151.55 386.02 1164.55 379.86 1168.35 378.67 1167.75 376.27 1159.85 373.58 1157.93 371.37 1157.78 362.62 1148.91 358.75 1141.34 355.97 1144.74 354.47 1151.06 357.47 1158.48 357.19 1164.58 358.56 1170 356.05 1172.79 351.88 1181.61 349.96 1188.91 352.22 1186.5 356.2 Z" stroke="#ffffff" stroke-width="0.6" fill-opacity="0.15" fill="#97c1ff" id="FIN"/>
<path d="M 1152.21 469.75 1150.63 471.23 1149.52 473.52 1148.31 474.1 1142.22 472.38 1140.36 472.72 1139.03 474.06 1136.36 474.77 1135.74 474.41 1132.97 475.29 1130.72 475.46 1130.26 476.6 1125.49 477.29 1123.39 476.67 1120.5 475.22 1119.93 473.25 1120.39 472.53 1121.2 471.28 1123.71 471.37 1125.65 470.79 1125.81 470.26 1126.9 469.99 1127.27 468.7 1128.57 468.45 1129.45 467.42 1131.15 467.42 1131.47 467.76 1133.81 466.99 1136.67 469 1140.03 467.79 1142.71 468.37 1146.8 467.57 1152.21 469.75 Z" stroke="#ffffff" stroke-width="0.6" fill-opacity="0.15" fill="#97c1ff" id="SVK"/>
<path d="M 1109.35 458.27 1112.04 460.1 1116.29 460.59 1115.94 462.15 1119.02 463.33 1119.87 461.86 1123.77 462.5 1124.31 464.28 1128.53 464.62 1131.15 467.42 1129.45 467.42 1128.57 468.45 1127.27 468.7 1126.9 469.99 1125.81 470.26 1125.65 470.79 1123.71 471.37 1121.2 471.28 1120.39 472.53 1117.77 471.46 1115.1 471.75 1110.69 470.02 1108.69 470.44 1105.49 472.77 1101.27 470.94 1098.06 468.49 1095.16 467.13 1094.56 464.73 1093.56 463.04 1097.69 461.8 1099.81 460.39 1103.89 459.29 1105.31 458.21 1106.81 458.86 1109.35 458.27 Z" stroke="#ffffff" stroke-width="0.6" fill-opacity="0.15" fill="#97c1ff" id="CZE"/>
<path d="M 1129.48 506.33 1124.45 504.18 1122.31 501.8 1120.14 500.54 1117.53 498.42 1116.3 496.66 1113.51 494 1114.7 491.64 1116.74 492.95 1117.97 491.77 1120.63 491.64 1125.51 492.59 1129.44 492.51 1132.01 493.77 1134.07 493.75 1132.65 496.25 1135.39 498.44 1134.56 501.11 1133.23 501.36 1132.16 501.88 1130.32 503.2 1129.48 506.33 Z" stroke="#ffffff" stroke-width="0.6" fill-opacity="0.15" fill="#97c1ff" id="BIH"/>
<path d="M 1151.2 508.2 1154.04 510.03 1154.45 513.78 1153.36 513.97 1152.43 514.96 1149.35 514.85 1147.18 516.1 1143.46 516.6 1141.11 515.21 1140.3 512.78 1141.02 510.84 1141.74 510.89 1142 509.73 1145.35 508.85 1146.63 508.63 1148.56 508.3 1151.2 508.2 Z" stroke="#ffffff" stroke-width="0.6" fill-opacity="0.15" fill="#97c1ff" id="MKD"/>
<path d="M 1131.02 487.81 1135.37 486.31 1138.92 486.56 1142 488.8 1142.64 490.61 1146.1 491.94 1146.54 494.28 1149.86 495.94 1151.64 494.66 1153.04 495.37 1151.73 496.33 1152.77 497.32 1151.37 498.61 1151.88 500.68 1154.64 503.14 1152.47 504.92 1151.51 506.72 1152.13 507.4 1151.2 508.2 1148.56 508.3 1146.63 508.63 1146.44 508.2 1147.12 507.53 1147.75 506.14 1146.95 506.17 1145.84 505.12 1144.91 504.85 1144.16 503.95 1143.1 503.59 1142.3 502.79 1141.28 503.11 1140.49 504.99 1139.13 505.4 1139.6 504.92 1137.43 503.74 1135.56 503.12 1134.73 502.34 1133.23 501.36 1134.56 501.11 1135.39 498.44 1132.65 496.25 1134.07 493.75 1132.01 493.77 1134.2 491.63 1132.4 490.01 1131.02 487.81 Z" stroke="#ffffff" stroke-width="0.6" fill-opacity="0.15" fill="#97c1ff" id="SRB"/>
<path d="M 1138.07 506.68 1136.54 507.18 1136.18 506.11 1133.71 508.91 1134.1 510.72 1132.91 510.28 1131.31 508.42 1128.86 507.29 1129.48 506.33 1130.32 503.2 1132.16 501.88 1133.23 501.36 1134.73 502.34 1135.56 503.12 1137.43 503.74 1139.6 504.92 1139.13 505.4 1138.07 506.68 Z" stroke="#ffffff" stroke-width="0.6" fill-opacity="0.15" fill="#97c1ff" id="MNE"/>
<path d="M 1141.02 510.84 1140.64 508.78 1139.28 508.2 1138.07 506.68 1139.13 505.4 1140.49 504.99 1141.28 503.11 1142.3 502.79 1143.1 503.59 1144.16 503.95 1144.91 504.85 1145.84 505.12 1146.95 506.17 1147.75 506.14 1147.12 507.53 1146.44 508.2 1146.63 508.63 1145.35 508.85 1142 509.73 1141.74 510.89 1141.02 510.84 Z" stroke="#ffffff" stroke-width="0.6" fill-opacity="0.15" fill="#97c1ff" id="KOS"/>
</g>
</svg>