<?xml version="1.0"?>
<svg xmlns="http://www.w3.org/2000/svg" version="1.2" baseProfile="tiny" width="2048" height="1024" viewBox="0 0 2048 1024" stroke-linecap="round" stroke-linejoin="round">
<g id="ne_110m_admin_0_countries">
<path d="M 628.6 466.27 626.88 466.23 602.06 453.64 592.9 448.1 569.68 442.8 562.54 431.45 564.36 423.58 547.96 418.12 545.71 407.78 530.2 398.47 529.93 391.87 537.06 385.69 536.7 377.6 514.91 369.44 501.8 354.81 493.78 345.62 482.04 339.84 473.4 334.59 466.6 327.96 453.73 332.11 441.25 339.27 429.86 330.85 420.91 325.24 408.43 321.69 395.8 321.31 395.87 248.31 395.95 200.72 419.87 203.81 440.05 209.97 453.42 211.15 464.67 205.81 480.2 201.8 499.25 203.37 518.45 197.74 539.43 194.54 548.24 199.86 557.81 196.86 560.67 190.82 569.53 192.19 591.21 203.69 608.28 194.99 610.01 204.72 625.77 202.62 630.61 198.88 646.14 199.62 665.74 205 695.75 209.7 713.39 211.88 725.95 211.05 743.25 217.55 725.21 223.92 748.38 226.67 782.99 225.15 793.91 222.91 807.58 230.6 821.52 224.11 808.44 218.67 816.72 214.28 832.32 213.69 842.58 212.41 852.93 215.47 865.81 222.44 880.13 221.41 902.78 227.19 922.69 225.16 941.39 225.47 939.91 217.49 951.31 215.25 971.18 219.6 971.1 231.73 979.26 221.5 989.57 221.85 995.37 208.96 981.64 201.06 966.67 195.87 967.7 181.71 982.86 172.4 999.77 174.46 1012.74 180.12 1030.16 194.57 1018.78 200.87 1042.63 203.47 1042.57 216.58 1059.7 206.53 1075.03 214.78 1071.21 224.29 1083.61 232.94 1097 223.67 1106.35 212.61 1107.05 198.54 1125.27 199.52 1144.23 201.41 1161.43 207.77 1162.21 214.13 1152.66 220.97 1161.7 227.83 1160.07 234.07 1134.97 243.03 1117.14 245.01 1103.88 241.15 1100.06 247.59 1087.7 258.4 1083.96 264.01 1069.09 272.68 1050.74 273.53 1040.61 278.95 1039.77 287.28 1024.85 288.89 1009.16 299.28 995.26 313.71 990.29 323.82 989.58 338.71 1008.42 340.85 1014.19 352.86 1020.19 362.58 1038.13 360.05 1061.95 365.6 1074.77 370.47 1083.95 376.53 1100.01 380.06 1113.59 385.46 1134.76 386.2 1148.71 387.44 1146.61 398.54 1150.6 411.43 1159.89 425.78 1178.97 437.95 1188.84 433.78 1195.77 420.6 1189.08 400.35 1180.03 393.6 1200.56 387.59 1215.09 378.6 1222.19 369.67 1221.14 361.1 1212.44 350.21 1196.86 340.56 1211.99 327.12 1206.41 315.52 1202.12 295.5 1211.05 292.53 1233.03 296.02 1246.21 297.27 1256.83 293.9 1268.77 298.25 1284.56 305.68 1288.45 310.66 1311.31 311.63 1310.93 322.4 1315.19 338.6 1326.9 340.61 1336.19 348.16 1354.76 341.04 1367.02 326.89 1375.5 320.93 1385.49 332.38 1402.19 348.73 1416.36 364.12 1411.21 372.17 1428.26 379.4 1439.79 386.72 1460.23 390.04 1468.46 394.13 1473.54 404.98 1483.52 406.68 1488.68 411.52 1489.61 425.92 1480.31 430.74 1471.1 435.24 1449.98 439.8 1433.84 450.33 1412.17 452.41 1384.75 449.71 1365.51 449.62 1352.23 450.51 1341.49 459.71 1325.15 465.39 1306.65 482.36 1291.9 494.19 1302.79 492.09 1323.37 475.24 1350.26 464.56 1369.44 463.28 1380.79 469.57 1368.68 478.18 1372.75 492 1376.93 501.67 1393.58 508.07 1414.77 506.22 1427.63 491.81 1428.52 501.1 1436.8 505.75 1420.94 514.15 1392.54 521.78 1379.82 526.97 1365.5 536.2 1355.76 535.26 1355.27 524.41 1377.53 513.81 1357.01 514.22 1342.76 515.79 1334.38 508.54 1334.39 491.06 1328.69 487.36 1320.1 489.54 1315.84 486.17 1306.06 495.84 1302.15 505.82 1297.6 511.65 1292.15 513.64 1288.05 514.28 1286.76 517.44 1263.14 517.45 1243.66 517.54 1237.87 519.9 1224.33 529.14 1222.72 530.13 1218.62 535.13 1206.85 535.13 1194.26 535.18 1188.47 537.21 1190.54 539.73 1191.7 543.64 1191.45 544.94 1174.68 551.32 1161.47 553.33 1146.58 560.18 1143.36 560.18 1139 558.16 1137.57 556.32 1137.85 554.99 1140.67 550.5 1146.69 543.45 1150.44 535.87 1147.88 524.73 1145.14 513.09 1131.79 507.08 1133.37 504.8 1131.49 503.23 1127.97 503.23 1125.39 501.2 1124.74 498.16 1122.25 499.49 1118.81 499.09 1119.59 497.82 1116.57 496.56 1115.33 493.19 1105.38 489.08 1095 484.81 1082.46 479.86 1070.43 475.2 1058.96 478.83 1054.77 478.96 1039 475.62 1028.61 477.29 1016.18 473.32 1003.09 471.28 994.14 470.49 990.15 468.32 987.87 461.28 983.53 461.34 983.5 466.27 956.96 466.26 913.1 466.27 869.53 466.27 831.04 466.27 792.58 466.27 754.76 466.27 715.68 466.27 703.07 466.27 665.01 466.27 628.6 466.27 Z M 1126.65 293.79 1136.17 287.87 1153.78 288 1153.51 290.48 1138.51 297.55 1129.46 297.26 1126.65 293.79 Z M 1180.72 161.09 1166.62 154.29 1167.16 149.68 1173.32 148.82 1202.66 150.2 1224.77 157.25 1225.91 160.79 1212.28 160.41 1198.47 160.14 1184.44 161.87 1180.72 161.09 Z M 1173.81 298.5 1178.75 294.65 1184 294.93 1187.26 297.56 1182.24 304.3 1176.57 303.21 1173.21 299.38 1173.81 298.5 Z M 1003.32 133.18 996.34 138.15 977.73 137.19 962.19 133.85 969.01 128.08 987.45 124.62 998.64 129.12 1003.32 133.18 Z M 1000.41 100.61 994.57 100.98 970.54 100.16 967.12 96.58 992.94 96.77 1001.94 99.15 1000.41 100.61 Z M 963.04 84.64 978.36 89.09 974.89 93.73 955.92 96.37 945.48 93.4 939.98 88.58 938.97 83.28 955.57 83.79 963.04 84.64 Z M 1073.35 140.71 1052.66 139.13 1018.58 135 1014.15 127.96 1012.59 121.6 999.72 116.01 973.2 114.44 958.34 110.47 963.16 105.21 989.59 106.02 1003.82 110.15 1029.06 110.12 1040.13 114.34 1037.21 119.15 1051.92 122.05 1060.06 125.1 1077.36 125.66 1096.06 126.74 1116.44 123.96 1142.55 122.87 1163.38 123.77 1177.11 128.6 1179.98 133.91 1171.98 137.31 1152.86 140.07 1136.45 138.51 1099.67 140.48 1073.35 140.71 Z M 777.01 92.5 795.09 94.51 790.82 98.34 766.92 102.03 747.91 97.89 758.29 93.8 777.01 92.5 Z M 780.87 84.14 797.54 86.74 781.92 89.24 760.63 89.23 760.84 87.4 773.99 83.56 780.87 84.14 Z M 1490.68 436.56 1483.83 444.64 1475.35 455.85 1483.72 451.52 1492.33 454.27 1487.83 458.74 1499.2 462.25 1505.12 459.13 1517.91 463.07 1513.94 472.46 1522.91 470.27 1524.55 477.07 1528.53 485.04 1523.13 496.32 1517.33 496.8 1508.9 494.38 1511.68 483.89 1508.11 482.26 1493.23 493.38 1485.58 492.94 1494.64 486.91 1482.34 483.8 1468.56 484.56 1443.68 484.17 1441.71 480.38 1449.7 475.86 1444.12 472.38 1454.89 464.66 1468.13 444.24 1476.08 436.94 1487.21 432.52 1493.16 433.08 1490.68 436.56 Z M 1128.07 259.72 1142.11 264.12 1156.8 268.12 1157.93 274.21 1167.37 273.21 1176.52 277.46 1165.14 281.5 1145.19 278.42 1137.99 272.65 1125.28 279.47 1107.03 286.1 1102.63 278.6 1085.26 279.83 1096.4 273.49 1098.04 263.4 1102.41 251.66 1111.68 252.7 1114.06 258.34 1120.62 256.36 1128.07 259.72 Z M 1193.61 166.87 1205.74 161.77 1234.19 168.26 1251.84 174.37 1253.5 179.96 1277.31 177.06 1290.67 185.23 1321.62 190.29 1332.79 195.46 1344.92 207.46 1321.38 213.43 1351.57 221.81 1371.93 224.62 1390.36 236.41 1410.52 237.26 1406.53 246.25 1384.03 261.15 1368.25 255.67 1348.1 243.33 1331.51 244.94 1329.89 252.29 1343.37 259.74 1360.78 265.64 1366.06 269.04 1374.4 281.73 1369.99 290.95 1353.82 287.48 1321.66 277.21 1339.78 288.26 1353.13 296 1355.22 300.48 1320.45 295.36 1292.94 287.92 1277.4 281.67 1281.87 278.05 1262.75 271.46 1244.08 265.24 1244.28 268.96 1207.21 271.01 1196.36 266.61 1204.81 257.17 1228.9 256.94 1255.29 255.3 1251.01 250.72 1255.48 244.33 1272.07 231.84 1268.54 226.17 1263.6 221.78 1243.96 215.56 1217.99 211.2 1226.2 207.95 1212.63 199.98 1201.33 199.25 1191.22 194.89 1184.36 198.67 1161.11 200.32 1114.45 197.45 1087.33 193.69 1066.54 191.76 1055.88 187.26 1069.28 181.41 1051.07 181.35 1047.01 168.37 1056.86 156.9 1070.05 151.67 1103.15 148.26 1093.72 156.54 1103.82 164.54 1115.67 154.2 1148.16 148.93 1170.16 162.2 1168.25 170.59 1193.61 166.87 Z M 991.9 144.01 1018.61 144.46 1043.1 147.58 1023.95 159 1008.66 161.49 994.91 171.07 980.28 170.59 972.28 159.33 972.48 152.95 979.18 147.51 991.9 144.01 Z M 628.41 118.61 650.17 109.02 676.5 100.71 696.16 100.89 713.75 99.01 711.99 108.86 702.11 113.3 690.14 113.93 666.3 119.42 645.78 121.38 628.41 118.61 Z M 502.06 401.65 514.37 400.62 510.53 415.18 521.69 425.49 516.57 425.46 508.85 419.6 504.11 413.7 497.64 409.71 495.27 404.07 496.03 399.98 502.06 401.65 Z M 851.01 77.77 876.18 79.52 910.85 84.2 920.66 90.29 925.65 95.64 904.71 94.21 883.61 90.06 855.07 89.58 867.45 85.77 851.95 82.68 851.01 77.77 Z M 620.01 472.55 613.56 474.33 592.51 468.51 588.66 463.96 577.19 459.47 574.88 455.82 561.68 453.51 556.74 446.53 557.85 443.56 571.31 446.36 579.17 448.3 591.23 449.66 595.59 454.09 601.92 460.17 614.72 465.46 620.01 472.55 Z M 645.29 139.99 663.6 142.65 696.35 143.36 708.8 147.07 722.57 152.47 706.45 155.7 675.01 164.72 659.11 173.69 659.11 179.29 625.37 185.47 618.6 179.85 589 173.07 594.5 167.64 603.38 158.27 614.5 149.84 601.96 141.99 645.29 139.99 Z M 821.18 122.08 832.59 119.94 846.03 120.49 848.29 126.77 840.49 132.85 797.07 134.84 764.72 140.4 745.22 140.69 743.59 136.51 770.22 130.84 712.29 132.36 694.37 130.07 711.86 117.55 723.93 113.96 760.01 118.29 782.78 125.88 805.18 126.85 786.85 114.59 798.59 109.92 811.83 111.4 816.15 117.51 821.18 122.08 Z M 837.8 157.59 852.17 162.76 860.21 175.25 864.19 184.29 885.72 190.64 908.86 196.71 907.46 202.35 886.41 203.38 894.59 208.31 890.27 213.02 867.07 211 845.02 207.54 830.11 208.32 806.04 212.67 773.55 214.59 750.74 215.8 743.8 209.75 726.3 206.26 714.91 207.69 699.11 197.54 707.64 196.17 727.43 193.98 745.51 194.56 762.24 192.33 737.45 189.33 710.05 190.35 691.87 190.1 685.11 185.37 714.84 180.24 695.07 180.42 672.68 177.04 683.44 167.44 692.37 162.33 726.69 154.53 739.79 157.01 733.39 163.01 761.92 159.13 779.75 165.61 794.24 159.06 805.96 163.26 816.45 175.86 822.89 170.54 813.78 157.41 825.06 155.54 837.8 157.59 Z M 915.81 162.33 901.69 153.95 916.86 147.74 932.15 150.44 955.02 148.82 958.35 152.54 946.39 158.68 965.79 164.2 963.48 175.74 942.46 180.71 930.11 179.64 921.24 174.74 889.38 164.85 889.63 160.74 915.81 162.33 Z M 836.81 150.87 853.99 150.36 863.74 153.18 852.45 161.64 832.45 152.67 836.81 150.87 Z M 940.66 110.87 950.46 116.81 950.86 123.39 945.02 132.92 923.88 134.24 910.1 132.19 910.37 124.71 889.35 125.69 888.54 115.78 902.33 116.18 921.64 111.81 939.67 112.55 940.66 110.87 Z M 972.5 61.09 981.39 57.18 994.53 56.29 988.93 53.35 1018.74 52.7 1035.11 59.54 1056.69 62.29 1077.72 64.71 1087.85 73.18 1103.3 77.32 1085.7 81.13 1062.01 90.78 1039.33 91.7 1012.76 90.06 998.98 84.83 999.18 80.18 1009.31 76.76 985.87 76.86 971.74 72.6 963.61 66.79 972.5 61.09 Z M 1029.29 44.53 1048.36 42.08 1063.33 41.67 1088.48 39.59 1107.33 34.81 1123.23 35.48 1137.08 39.07 1146.82 32.15 1163.75 30.1 1186.74 28.68 1225.93 28.15 1232.74 29.53 1269.76 27.36 1297.52 28.18 1325.29 28.99 1359.56 29.99 1387.09 31.64 1410.55 35.11 1409.99 38.54 1378.7 44.1 1347.68 46.7 1336.09 49.57 1364.01 49.5 1333.75 57.28 1312.86 60.91 1290.93 71.38 1264.48 73.51 1256.31 76.12 1217.5 77.49 1235.17 79.1 1226.31 81.39 1236.91 87.72 1224.73 92.11 1204.92 95.74 1198.84 100.76 1180.93 104.59 1182.73 107.49 1204.63 107 1204.91 110.13 1170.65 117.82 1137.15 114.28 1099.49 116.27 1080.41 114.72 1056.17 114.04 1054.56 107.89 1078.26 104.99 1071.95 95.74 1079.77 94.84 1114.05 100.37 1096.56 92.15 1075.77 89.69 1086.15 84.73 1108.89 81.68 1112.53 77.21 1094.42 72.2 1088.98 65.59 1124.02 66.14 1134.15 67.53 1154.15 62.86 1125.28 61.38 1080.42 62.2 1057.76 57.85 1047.08 52.66 1032.1 48.9 1029.29 44.53 Z M 1239.19 229.79 1230.85 233.58 1216.48 234.22 1213.28 227.95 1218.73 220.76 1230.48 218.99 1240.49 222.53 1240.63 228.03 1239.19 229.79 Z M 969.41 203.56 977.23 208.47 969.26 212.96 951.98 209.08 941.54 210.48 924.03 204.72 935.31 200.74 944.27 195.19 957.88 198.82 965.57 201.13 969.41 203.56 Z M 1376.33 455.07 1380.76 453.99 1397.62 457.21 1410.73 462.57 1411.11 464.92 1404.87 465.15 1388.25 461.13 1376.33 455.07 Z M 1382.79 491.45 1387.29 497.68 1396.58 499.4 1408.47 499.05 1402.17 504.3 1397.42 505.14 1381.15 499.69 1377.95 495.4 1382.79 491.45 Z" fill-rule="evenodd" stroke="#ffffff" stroke-width="0.6" fill-opacity="0.15" fill="#97c1ff" id="CAN"/>
<path d="M 628.6 466.27 665.01 466.27 703.07 466.27 715.68 466.27 754.76 466.27 792.58 466.27 831.04 466.27 869.53 466.27 913.1 466.27 956.96 466.26 983.5 466.27 983.53 461.34 987.87 461.28 990.15 468.32 994.14 470.49 1003.09 471.28 1016.18 473.32 1028.61 477.29 1039 475.62 1054.77 478.96 1058.96 478.83 1070.43 475.2 1082.46 479.86 1095 484.81 1105.38 489.08 1115.33 493.19 1116.57 496.56 1119.59 497.82 1118.81 499.09 1122.25 499.49 1124.74 498.16 1125.39 501.2 1127.97 503.23 1131.49 503.23 1133.37 504.8 1131.79 507.08 1145.14 513.09 1147.88 524.73 1150.44 535.87 1146.69 543.45 1140.67 550.5 1137.85 554.99 1137.57 556.32 1139 558.16 1143.36 560.18 1146.58 560.18 1161.47 553.33 1174.68 551.32 1191.45 544.94 1191.7 543.64 1190.54 539.73 1188.47 537.21 1194.26 535.18 1206.85 535.13 1218.62 535.13 1222.72 530.13 1224.33 529.14 1237.87 519.9 1243.66 517.54 1263.14 517.45 1286.76 517.44 1288.05 514.28 1292.15 513.64 1297.6 511.65 1302.15 505.82 1306.06 495.84 1315.84 486.17 1320.1 489.54 1328.69 487.36 1334.39 491.06 1334.38 508.54 1342.76 515.79 1344.97 519.99 1331.28 526.2 1318.11 530.63 1304.57 534.42 1297.78 542.03 1295.61 544.92 1295.48 551.72 1299.71 558.51 1305.03 558.83 1303.69 554.15 1307.53 557 1306.51 560.66 1297.85 562.74 1291.69 562.49 1282.21 564.73 1276.63 565.37 1269.18 566 1258.49 569.72 1277.32 567.3 1281.12 569.73 1263.17 573.58 1255.01 573.6 1255.39 572.03 1251.48 575.58 1255.26 576.17 1252.49 585.38 1243.16 595.25 1242.21 591.96 1239.39 591.29 1235.18 588.08 1237.85 594.99 1241.03 597.27 1241.23 602.11 1237.11 607.1 1229.9 617.34 1228.73 616.83 1232.7 608.1 1226.15 603.2 1224.65 592.55 1222.17 598.1 1224.91 606.23 1216.44 604.22 1225.27 608.35 1225.82 620.55 1229.49 621.43 1230.82 625.87 1232.63 638.7 1224.48 648.21 1211.21 652.02 1202.79 659.54 1196.38 660.36 1189.89 665.07 1188.06 669.37 1173.99 677.69 1166.76 683.79 1160.72 691.4 1158.74 700.5 1161.01 709.41 1165.28 720.38 1170.98 729.45 1171.05 734.99 1177.12 749.86 1176.72 758.51 1176.16 763.5 1172.96 771.33 1169.13 772.94 1162.82 771.39 1160.8 765.76 1155.93 762.81 1149.13 751.79 1143.17 741.98 1141.24 736.96 1143.87 728.45 1140.28 721.4 1130.29 710.68 1125.28 708.71 1112.35 714.53 1110.05 713.89 1103.83 707.91 1095.8 704.74 1081.3 706.35 1069.92 704.93 1060.15 705.81 1054.85 707.81 1057.16 711.22 1056.95 716.42 1059.67 718.95 1057.23 720.64 1052.47 718.75 1047.66 721.18 1038.35 720.78 1028.78 714 1017.6 715.6 1008.27 712.64 1000.3 713.54 989.51 716.53 977.84 726.04 965.1 731.56 958.1 737.69 955.15 743.45 955.02 752.3 955.66 758.46 958.1 762.81 953.1 763.2 944 760.38 933.99 756.4 930.4 750.38 927.58 741.4 920.02 734.1 915.59 726.58 909.15 717.8 900.12 712.69 889.63 712.94 881.56 723.07 870.92 719.22 864.29 715.35 861.1 708.3 856.85 701.61 849.23 695.97 842.67 691.91 838 687.37 815.79 687.36 815.76 692.66 805.59 692.66 780.1 692.75 750.85 683.72 731.49 677.49 732.69 674.98 716.41 676.37 701.84 677.36 699.68 670.81 691.37 663.44 685.39 661.9 683.99 658.22 676.79 657.58 672.21 654.11 660.3 652.85 657.03 650.78 655.47 643.75 643.03 630.87 632.35 613.04 632.8 610.07 627.15 605.84 617.22 595.09 615.46 584.64 608.62 577.64 611.43 567.01 610.99 556.02 606.9 546.19 611.91 534.11 613.46 522.47 615.02 510.84 612.71 493.64 608.65 482.67 604.92 476.72 606.47 474.22 625.01 478.57 631.84 490.68 635.01 487.29 632.96 476.78 628.6 466.27 Z M 211.12 837.05 213.4 838.16 215.48 839.88 218.75 844.37 218.44 845.08 213.43 847.82 209.33 849.82 207.45 851.97 204.27 850.13 204.64 846.55 202.52 841.88 203.15 840.45 205.38 838.36 204.49 835.84 205.24 834.65 206.21 834.88 211.12 837.05 Z M 203.51 828.28 202.44 829.82 198.14 830.73 195.93 828.03 194.46 826.99 194.35 826.19 195.6 825.09 200.16 826.31 203.51 828.28 Z M 193.74 822.98 193.34 824.37 186.47 824 187.43 822.44 193.74 822.98 Z M 177.49 816.06 178.56 816.88 182.27 821.12 181.57 821.86 180.65 821.7 176.19 821.25 174.56 818.34 174.06 817.83 177.49 816.06 Z M 160.31 809.68 160.57 812.66 159.05 813.93 154.73 811.59 155.39 810.66 157.35 809.4 160.31 809.68 Z M 69.25 320.31 79.42 321.47 80.64 326.39 72.78 328.38 64.37 325.99 56.59 322.5 69.25 320.31 Z M 238.99 351.27 247.5 352.14 252.93 356.12 241.84 362.21 229.03 367.1 222.48 363.79 220.5 357.78 232.14 353.23 238.99 351.27 Z M 395.95 200.72 395.87 248.31 395.8 321.31 408.43 321.69 420.91 325.24 429.86 330.85 441.25 339.27 453.73 332.11 466.6 327.96 473.4 334.59 482.04 339.84 493.78 345.62 501.8 354.81 514.91 369.44 536.7 377.6 537.06 385.69 529.93 391.87 522.88 387.05 511.58 382.96 507.95 371.78 491.43 361.4 484.52 349.3 472.21 348.47 451.82 348.16 436.8 344.47 410.29 331.16 398.01 328.73 375.59 324.15 357.84 325.25 332.62 319.36 317.38 313.89 303.15 316.61 305.79 325.51 298.71 326.34 283.87 329.01 272.58 333.34 258.38 336.06 256.54 328.5 262.31 315.93 275.93 311.98 272.42 308.77 256.08 315.91 247.33 324.44 228.85 333.57 238.23 339.79 226.12 349 212.34 354.37 199.5 358.28 196.33 363.95 176.31 370.58 172.26 376.59 157.26 382.07 148.46 381.09 136.49 384.66 123.48 389.03 112.82 393.32 90.82 396.98 88.81 394.82 102.83 388.83 115.38 384.88 129.04 377.87 144.95 376.42 151.27 371.16 169.04 363.48 171.9 360.92 181.37 356.39 183.58 346.67 190.1 339.1 175.32 342.98 171.18 340.78 164.24 345.44 155.87 338.94 152.41 343.54 147.62 337.14 134.8 342.28 126.93 342.27 125.83 334.63 128.14 329.93 119.89 325.37 103.22 327.82 92.4 321.81 83.63 318.73 83.57 311.47 73.69 306 78.65 298.63 89.1 291.48 93.68 284.9 104.05 283.96 112.85 286.01 123.19 279.82 132.5 280.93 142.27 276.95 139.89 271.09 132.71 268.79 142.2 263.84 134.33 263.99 120.72 266.78 116.82 269.61 106.71 266.78 88.57 268.22 69.79 265.15 64.41 259.99 48.19 252.54 66.21 247.18 94.8 240.92 105.34 240.92 103.6 247.32 130.66 246.82 120.25 238.88 104.48 234 95.36 227.59 83.06 222.12 65.45 218.07 72.62 211.35 95.37 210.93 111.55 205.09 114.6 198.85 127.7 192.75 140.19 191.29 164.49 185.59 176.28 186.45 196.01 179.62 215.41 182.31 224.69 188.1 230.38 185.62 252.05 186.38 251.28 189.33 270.9 191.51 283.97 190.23 310.98 194.28 335.64 195.49 345.51 197.15 362.57 195.07 382.02 198.92 395.95 200.72 Z M 1.76 276.74 9.68 279.18 17.67 277.86 28.03 281.24 40.77 282.96 39.71 284.35 30 287.07 20.24 284.28 15.36 281.95 4.05 282.7 1 281.57 1.76 276.74 Z" fill-rule="evenodd" stroke="#ffffff" stroke-width="0.6" fill-opacity="0.15" fill="#97c1ff" id="USA"/>
<path d="M 1284.1 841.73 1285.23 848.72 1284.25 853.65 1281.12 855.81 1284.42 859.66 1284.16 863.14 1275.64 860.96 1269.59 861.85 1261.77 860.92 1255.77 863.32 1248.9 859.32 1250.03 855.19 1261.83 856.97 1271.51 858 1276.12 855.15 1270.27 849.59 1270.36 844.69 1262.27 842.69 1265.16 839.15 1272.98 839.72 1284.1 841.73 Z" stroke="#ffffff" stroke-width="0.6" fill-opacity="0.15" fill="#97c1ff" id="HTI"/>
<path d="M 1284.16 863.14 1284.42 859.66 1281.12 855.81 1284.25 853.65 1285.23 848.72 1284.1 841.73 1285.71 839.55 1295.72 839.61 1303.31 842.91 1306.69 842.59 1309.02 847.13 1316.03 846.88 1315.62 850.7 1321.32 851.16 1327.62 855.87 1322.86 861.08 1316.76 858.3 1310.88 858.83 1306.66 858.22 1304.35 860.56 1299.43 861.35 1297.48 858.24 1293.24 860.08 1288.11 868.86 1284.81 866.82 1284.16 863.14 Z" stroke="#ffffff" stroke-width="0.6" fill-opacity="0.15" fill="#97c1ff" id="DOM"/>
<path d="M 1190.93 751.02 1196.95 749.99 1205.41 750.38 1205.8 753.71 1191.82 755.76 1190.93 751.02 Z M 1206.18 747.81 1216.31 753.58 1214.1 762.7 1211.74 761.05 1211.95 754.35 1206.21 749.29 1206.18 747.81 Z M 1201.04 771.27 1204.9 771.79 1209.39 782.43 1209.46 789.87 1206.31 790.51 1203.05 783.12 1198.25 779.41 1201.04 771.27 Z" fill-rule="evenodd" stroke="#ffffff" stroke-width="0.6" fill-opacity="0.15" fill="#97c1ff" id="BHS"/>
<path d="M 1603.97 35.12 1647.01 27.47 1692 28.04 1708.35 23.31 1753.67 22.08 1856.07 23.69 1936.27 33.86 1912.59 38.79 1863.55 39.36 1794.54 40.61 1800.99 42.9 1846.38 41.48 1885 45.91 1909.88 41.98 1920.54 46.58 1906.47 54.04 1939.11 49.27 2001.36 44.3 2039.8 46.78 2047 52.26 1994.73 61.38 1987.49 64.33 1946.51 66.55 1976.21 67.16 1961.21 76.51 1950.89 84.83 1951.29 99.09 1966.69 107.46 1946.66 107.99 1925.57 112.05 1949.23 118.84 1952.25 129.74 1938.54 130.92 1955.15 141.95 1926.67 142.87 1941.53 148.09 1937.33 152.61 1919.26 154.59 1901.39 154.63 1917.45 163.32 1917.62 169.02 1892.25 163.72 1885.66 167.15 1902.96 170.36 1919.76 178.19 1924.62 188.52 1901.77 190.99 1891.89 186.04 1876.03 178.68 1880.42 187.38 1865.53 194.12 1899.32 194.67 1916.99 195.37 1882.63 206.53 1847.78 216.64 1810.26 221.06 1796.12 221.12 1782.86 226.06 1765.02 239.59 1737.45 248.58 1728.59 249.11 1711.52 252.26 1693.09 255.25 1682.11 263.18 1681.93 272.17 1675.45 280.59 1654.54 290.85 1659.7 300.86 1653.94 311.46 1647.37 323.98 1629.31 324.76 1610.38 314.3 1584.75 314.23 1572.31 307.2 1563.75 294.68 1541.54 278.73 1535.04 270.38 1533.29 258.86 1515.53 247.03 1520.15 237.58 1511.59 233.07 1524.27 218.08 1543.56 213.31 1548.63 207.95 1551.31 197.93 1536.66 202.48 1529.68 204.38 1518.16 206.21 1502.43 202.03 1501.58 193.32 1506.59 186.5 1518.48 186.31 1544.65 189.72 1522.61 181.58 1511.14 177.19 1498.37 178.99 1487.67 175.81 1501.99 163.87 1494.19 159.09 1484.01 150.23 1468.58 136.64 1452.26 131.66 1452.41 126.29 1418 118.79 1390.78 117.85 1356.52 118.37 1325.23 119.31 1310.36 115.23 1288.08 107.17 1321.74 103.14 1347.55 102.46 1292.69 99.13 1263.79 93.89 1265.55 88.91 1314.09 82.74 1361.05 76.58 1366.01 71.92 1331.41 67.31 1342.58 62.2 1386.97 53.25 1405.62 51.88 1400.28 46.12 1430.65 42.74 1470.07 40.73 1509.47 40.61 1523.46 44.61 1557.47 37.55 1588.07 42.34 1606.07 43.35 1632.7 47.52 1602.21 40.61 1603.97 35.12 Z" stroke="#ffffff" stroke-width="0.6" fill-opacity="0.15" fill="#97c1ff" id="GRL"/>
<path d="M 701.84 677.36 716.41 676.37 732.69 674.98 731.49 677.49 750.85 683.72 780.1 692.75 805.59 692.66 815.76 692.66 815.79 687.36 838 687.37 842.67 691.91 849.23 695.97 856.85 701.61 861.1 708.3 864.29 715.35 870.92 719.22 881.56 723.07 889.63 712.94 900.12 712.69 909.15 717.8 915.59 726.58 920.02 734.1 927.58 741.4 930.4 750.38 933.99 756.4 944 760.38 953.1 763.2 958.1 762.81 953.12 774.07 950.88 783.3 949.94 800.47 948.71 806.74 950.93 813.73 954.91 819.98 957.47 829.93 965.98 839.47 968.97 846.79 973.98 853.1 987.6 856.5 992.9 861.86 1004.14 858.28 1013.92 856.99 1023.52 854.68 1031.59 852.48 1039.74 847.25 1042.8 839.77 1043.85 829 1046.07 825.25 1054.75 821.9 1068.31 818.92 1079.66 819.37 1087.44 818.28 1090.51 821 1090.08 827.18 1083.19 834.8 1080.14 842.6 1082.5 844.84 1080.58 850.38 1077.37 860.38 1074.12 857.09 1071.43 857.3 1069 857.47 1064.41 865.21 1062.08 863.7 1060.53 864.29 1060.63 866.17 1048.77 866.03 1036.8 866.05 1036.79 873.27 1031 873.3 1035.77 877.58 1040.51 880.54 1041.94 883.32 1044.01 884.1 1043.68 888.47 1027.23 888.5 1021.06 898.95 1022.88 901.35 1021.39 904.36 1021.08 908.09 1006.57 894.29 999.96 890.12 989.49 886.78 982.33 887.71 972.03 892.54 965.57 893.8 956.51 890.42 946.91 887.98 934.92 882.1 925.31 880.3 910.8 874.34 900.07 868.21 896.83 864.79 889.66 864.03 876.54 859.97 871.2 854.12 857.43 846.84 851 838.76 847.95 832.51 852.23 831.26 850.91 827.6 853.85 824.27 853.92 819.84 849.59 814.08 848.44 808.98 844.14 802.51 832.84 789.77 819.95 779.75 813.71 771.76 802.71 766.52 800.35 763.39 802.3 755.47 795.77 752.48 788.2 746.25 785 737.3 778.11 736.26 770.66 729.51 764.65 723.27 764.09 719.26 757.2 709.59 752.66 699.78 752.85 694.85 743.58 689.77 739.3 690.32 731.98 686.79 729.93 692 732.05 698.15 733.3 707.78 737.69 713.06 747.21 721.89 749.32 724.91 751.27 725.83 752.96 730.23 755.24 730.05 757.81 738.32 761.71 741.59 764.44 746.12 772.5 752.65 776.75 764.58 780.56 770.19 784.12 776.2 784.82 782.96 791 783.38 796.15 789.21 800.8 794.93 800.49 797.23 795.09 801.94 792.82 801.88 789.44 794.08 781.05 786.78 771.8 780.58 765.24 777.32 765.67 767.94 763.72 760.99 757.61 757.02 748.8 751.3 747.11 752.95 743.87 749.61 735.97 746.5 728.41 739.06 729.34 738.09 734.62 738.82 739.38 734.03 739.86 728.25 729.99 719.1 722.47 715.55 717.74 707.55 712.98 699.14 707.04 688.89 701.84 677.36 Z" stroke="#ffffff" stroke-width="0.6" fill-opacity="0.15" fill="#97c1ff" id="MEX"/>
<path d="M 1211.78 983.33 1210.23 985.2 1213.2 992.75 1210.78 996.56 1206.65 995.64 1205.01 1001.88 1200.74 998.18 1197.99 991.26 1201.16 987.83 1197.91 986.95 1195.51 982.72 1189.13 979.15 1183.52 979.97 1180.92 984.43 1175.74 987.65 1172.94 988.1 1171.69 990.77 1177.8 997.73 1174.3 999.36 1172.45 1001.26 1166.48 1001.92 1164.26 994.26 1162.6 996.44 1158.37 995.69 1155.78 990.53 1150.52 989.68 1147.2 988.18 1141.69 988.2 1141.3 990.98 1139.83 989.04 1140.5 986.49 1141.57 983.89 1141.07 981.57 1142.99 980.06 1140.32 978.15 1140.25 972.99 1145.2 971.85 1149.81 976.44 1149.55 979.16 1154.66 979.74 1155.87 978.69 1159.4 981.84 1165.7 980.92 1171.16 977.68 1178.94 975.09 1183.32 971.26 1190.4 972.01 1189.92 973.28 1197.07 973.71 1202.77 975.93 1206.96 979.79 1211.78 983.33 Z" stroke="#ffffff" stroke-width="0.6" fill-opacity="0.15" fill="#97c1ff" id="PAN"/>
<path d="M 1145.2 971.85 1140.25 972.99 1140.32 978.15 1142.99 980.06 1141.07 981.57 1141.57 983.89 1140.5 986.49 1139.83 989.04 1132.87 986.19 1130.26 983.5 1131.74 981.28 1131.28 978.44 1127.72 975.38 1122.68 972.86 1118.26 971.21 1117.42 967.46 1114.06 965.17 1114.88 968.9 1112.32 971.96 1109.39 968.4 1105.27 967.14 1103.52 964.55 1103.59 960.65 1105.29 956.61 1101.67 954.8 1104.61 952.33 1106.54 950.68 1114.99 954.07 1117.94 952.4 1122 953.47 1124.13 956.11 1127.91 956.96 1130.98 954.25 1134.23 961.21 1139.19 966.37 1145.2 971.85 Z" stroke="#ffffff" stroke-width="0.6" fill-opacity="0.15" fill="#97c1ff" id="CRI"/>
<path d="M 1130.98 954.25 1127.91 956.96 1124.13 956.11 1122 953.47 1117.94 952.4 1114.99 954.07 1106.54 950.68 1104.61 952.33 1100.17 948.29 1094.18 943.12 1091.36 938.79 1085.95 934.77 1079.53 928.97 1080.96 926.99 1083.07 928.92 1084.04 928.02 1088.03 927.49 1089.63 924.56 1091.52 924.45 1091.24 918.14 1094.25 917.84 1096.92 917.93 1099.69 914.51 1103.47 917.1 1104.79 915.51 1107.15 913.99 1111.62 910.46 1111.84 907.82 1113.07 907.93 1114.71 904.86 1116.05 904.49 1118.24 906.45 1120.8 907.03 1123.64 905.4 1126.88 905.39 1131.33 903.72 1133.1 901.97 1137.5 902.23 1136.4 903.46 1135.74 906.32 1137.05 911.02 1134.1 915.38 1132.72 920.54 1132.31 926.19 1132.99 929.5 1133.32 935.27 1131.36 936.53 1130.16 942.01 1131.04 945.4 1128.42 948.68 1129.02 952.14 1130.98 954.25 Z" stroke="#ffffff" stroke-width="0.6" fill-opacity="0.15" fill="#97c1ff" id="NIC"/>
<path d="M 1137.5 902.23 1133.1 901.97 1131.33 903.72 1126.88 905.39 1123.64 905.4 1120.8 907.03 1118.24 906.45 1116.05 904.49 1114.71 904.86 1113.07 907.93 1111.84 907.82 1111.62 910.46 1107.15 913.99 1104.79 915.51 1103.47 917.1 1099.69 914.51 1096.92 917.93 1094.25 917.84 1091.24 918.14 1091.52 924.45 1089.63 924.56 1088.03 927.49 1084.04 928.02 1081.83 924.01 1077.93 922.89 1078.83 917.75 1077.08 916.37 1074.44 915.45 1068.82 916.98 1068.34 915.25 1064.47 913.2 1061.71 910.64 1057.93 909.56 1060.59 906.31 1059.57 903.79 1060.48 901.33 1066.55 897.74 1072.4 892.85 1073.73 893.35 1076.54 891.09 1080.21 890.91 1081.4 891.96 1083.39 891.32 1089.34 892.48 1095.27 892.14 1099.39 890.72 1100.9 889.29 1104.98 889.95 1108.05 890.82 1111.41 890.52 1113.95 889.41 1119.81 891.19 1121.84 891.47 1125.76 893.87 1129.46 896.74 1134.12 898.7 1137.5 902.23 Z" stroke="#ffffff" stroke-width="0.6" fill-opacity="0.15" fill="#97c1ff" id="HND"/>
<path d="M 1057.93 909.56 1061.71 910.64 1064.47 913.2 1068.34 915.25 1068.82 916.98 1074.44 915.45 1077.08 916.37 1078.83 917.75 1077.93 922.89 1076.51 925.91 1069.09 925.72 1064.47 924.49 1059.17 921.94 1052.05 921.14 1048.41 918.39 1048.81 916.51 1053.2 913.28 1055.61 911.86 1054.93 910.35 1057.93 909.56 Z" stroke="#ffffff" stroke-width="0.6" fill-opacity="0.15" fill="#97c1ff" id="SLV"/>
<path d="M 1021.08 908.09 1021.39 904.36 1022.88 901.35 1021.06 898.95 1027.23 888.5 1043.68 888.47 1044.01 884.1 1041.94 883.32 1040.51 880.54 1035.77 877.58 1031 873.3 1036.79 873.27 1036.8 866.05 1048.77 866.03 1060.63 866.17 1060.53 876.34 1059.52 890.81 1063.35 890.8 1067.53 893.12 1068.64 891.21 1072.4 892.85 1066.55 897.74 1060.48 901.33 1059.57 903.79 1060.59 906.31 1057.93 909.56 1054.93 910.35 1055.61 911.86 1053.2 913.28 1048.81 916.51 1048.41 918.39 1041.84 916.16 1033.84 915.92 1027.98 913.38 1021.08 908.09 Z" stroke="#ffffff" stroke-width="0.6" fill-opacity="0.15" fill="#97c1ff" id="GTM"/>
<path d="M 1060.63 866.17 1060.53 864.29 1062.08 863.7 1064.41 865.21 1069 857.47 1071.43 857.3 1071.48 859.19 1073.91 859.24 1073.7 862.73 1071.62 868.28 1072.74 870.26 1071.4 874.85 1072.21 876.07 1070.72 882.55 1068.21 885.95 1065.89 886.36 1063.35 890.8 1059.52 890.81 1060.53 876.34 1060.63 866.17 Z" stroke="#ffffff" stroke-width="0.6" fill-opacity="0.15" fill="#97c1ff" id="BLZ"/>
<path d="M 1353.72 857.12 1360.27 858.24 1362.59 860.79 1359.3 864.02 1349.65 863.95 1342.16 864.4 1341.41 858.91 1343.23 857.04 1353.72 857.12 Z" stroke="#ffffff" stroke-width="0.6" fill-opacity="0.15" fill="#97c1ff" id="PRI"/>
<path d="M 1209.01 857.43 1217.64 858.58 1224.45 861.65 1226.57 865.17 1217.56 865.4 1213.67 867.55 1206.49 865.49 1199.16 860.82 1200.7 857.89 1206.09 856.99 1209.01 857.43 Z" stroke="#ffffff" stroke-width="0.6" fill-opacity="0.15" fill="#97c1ff" id="JAM"/>
<path d="M 1148.77 797.19 1159.84 798.11 1169.92 798.25 1181.96 802.62 1187.06 807.31 1199.04 805.86 1203.58 808.88 1214.43 816.82 1222.42 822.6 1226.64 822.42 1234.28 825.04 1233.35 828.65 1242.8 829.18 1252.49 834.42 1250.97 837.43 1242.45 839.05 1233.82 839.69 1224.98 838.68 1206.63 839.93 1215.22 832.77 1210 829.44 1201.73 828.59 1197.3 824.89 1194.26 817.58 1187.02 818.08 1175.06 814.65 1171.21 811.96 1154.5 809.97 1150.03 807.47 1154.84 804.26 1142.26 803.61 1133.05 810.27 1127.73 810.45 1125.9 813.58 1119.55 814.98 1114.07 813.76 1120.83 809.8 1123.61 805.18 1129.41 802.33 1135.96 799.83 1145.66 798.6 1148.77 797.19 Z" stroke="#ffffff" stroke-width="0.6" fill-opacity="0.15" fill="#97c1ff" id="CUB"/>
<path d="M 1412.73 956.54 1420.1 954.87 1422.79 955.32 1422.28 964.87 1411.58 966.28 1409.27 965.13 1412.99 961.6 1412.73 956.54 Z" stroke="#ffffff" stroke-width="0.6" fill-opacity="0.15" fill="#97c1ff" id="TTO"/>
</g>
</svg>