<?xml version="1.0"?>
<svg xmlns="http://www.w3.org/2000/svg" version="1.2" baseProfile="tiny" width="2048" height="1024" viewBox="0 0 2048 1024" stroke-linecap="round" stroke-linejoin="round">
<g id="ne_110m_admin_0_countries">
<path d="M 1266.85 543.37 1269.25 544.93 1320.6 573.78 1321.56 581.99 1341.89 596.15 1335.35 613.6 1336.19 621.62 1345.25 626.78 1345.68 630.46 1341.78 639.02 1342.59 643.32 1341.66 650.08 1346.61 658.96 1352.47 672.92 1357.67 676.02 1346.4 684.23 1330.92 689.73 1322.42 689.5 1317.38 693.75 1307.52 694.11 1303.82 695.9 1286.8 691.91 1276.15 693.06 1272.18 673.8 1267.38 667.19 1264.53 663.28 1250.65 660.64 1242.61 656.38 1233.61 654 1227.97 651.63 1222.05 648.02 1214.41 630.18 1206.19 622.25 1203.36 614.04 1204.78 606.67 1202.23 593.64 1208.08 592.97 1213.22 587.84 1218.73 580.46 1222.23 577.49 1222.09 572.89 1219.05 569.68 1218.22 564.1 1222.31 562.31 1223.13 553.98 1217.51 545.99 1222.48 544.29 1238 544.47 1266.85 543.37 Z" stroke="#ffffff" stroke-width="0.6" fill-opacity="0.15" fill="#97c1ff" id="TZA"/>
<path d="M 664.02 138.27 664.03 139.22 663.76 141.96 663.72 163.41 617.24 162.67 617.69 198.91 604.42 200.18 600.96 207.45 603.65 227.9 548.19 227.81 545.1 232.54 545.71 226.55 545.96 226.58 577.85 225.45 579.55 220.34 585.35 213.98 590.02 194.43 609.71 179.15 616.37 161.29 620.79 160.26 625.41 149.22 637.32 147.7 642.44 149.54 648.87 149.54 653.44 146.32 662.19 145.86 661.87 138.27 664.02 138.27 Z" stroke="#ffffff" stroke-width="0.6" fill-opacity="0.15" fill="#97c1ff" id="SAH"/>
<path d="M 1202.23 593.64 1204.78 606.67 1203.36 614.04 1206.19 622.25 1214.41 630.18 1222.05 648.02 1216.47 646.58 1197.45 648.97 1193.66 650.67 1189.62 659.71 1192.79 665.95 1190.28 682.72 1188.52 696.93 1192.35 699.45 1202.25 704.96 1206.14 702.39 1207.32 717.66 1196.48 717.54 1190.66 709.75 1185.45 703.71 1174.6 701.73 1171.42 694.31 1162.76 698.78 1151.42 696.81 1146.69 690.38 1137.7 689.07 1131.06 689.41 1130.25 685.01 1125.36 684.66 1118.91 683.82 1110.14 685.94 1103.99 685.59 1100.48 686.89 1101.24 670.04 1096.52 664.79 1095.48 656.08 1097.56 647.54 1094.69 642.08 1094.43 633.17 1077.25 633.29 1078.48 628.19 1071.26 628.24 1070.5 630.7 1061.71 631.25 1058.16 639.5 1056.04 643.04 1048.21 641.04 1043.54 643.03 1034.18 644.18 1028.75 636.78 1025.5 632.2 1021.43 623.7 1017.94 613.15 976.15 612.96 971.19 614.67 967.08 614.4 961.24 616.3 959.25 611.91 962.86 610.42 963.3 604.24 965.62 600.6 970.77 597.63 974.49 599.07 979.33 593.65 987.05 593.79 987.95 597.8 993.24 600.3 1001.58 591.43 1009.83 584.51 1013.41 579.98 1012.93 568.33 1019.08 554.57 1025.57 547.28 1034.89 540.45 1036.52 535.94 1036.87 530.74 1039.18 525.83 1038.44 517.8 1040.21 505.25 1042.97 496.42 1047.22 488.85 1048.05 480.29 1049.33 470.42 1054.84 463.23 1062.42 458.67 1074.08 463.48 1083.1 468.7 1093.46 470.1 1104.02 472.86 1108.25 464.31 1110.2 463.22 1116.65 464.64 1132.42 457.57 1138.01 460.57 1142.59 460.14 1144.72 456.7 1149.98 455.49 1160.63 456.98 1169.71 457.3 1174.39 455.8 1182.97 467.49 1189.33 469.21 1193.12 466.83 1199.66 467.76 1207.55 464.77 1210.91 470.82 1223.38 480.23 1222.52 496.78 1228.2 498.7 1223.65 503.73 1218.21 507.49 1212.79 514.88 1209.81 521.46 1209.02 532.83 1205.74 538.24 1205.62 548.91 1201.55 552.86 1201.02 561.29 1199.08 562.38 1197.76 570.13 1201.33 576.57 1202.23 593.64 Z" stroke="#ffffff" stroke-width="0.6" fill-opacity="0.15" fill="#97c1ff" id="COD"/>
<path d="M 1375.63 553.76 1367.25 542.07 1367.08 490.49 1379.45 474.42 1383.33 469.96 1392.41 469.7 1405.03 459.72 1423.48 459.09 1463.49 416.59 1473.37 404.77 1479.76 396.07 1479.76 388.68 1479.76 374.4 1479.81 368.56 1479.9 368.33 1484.43 368.05 1490.95 365.95 1498.46 364.52 1505.16 359.68 1510.53 359.64 1510.85 363.55 1509.55 371.79 1509.6 379.23 1506.61 384.35 1502.62 399.65 1495.8 415.47 1487.05 433.56 1474.89 454.31 1462.8 470.17 1446.15 489.49 1431.98 500.95 1410.79 515.01 1397.59 525.78 1382.1 542.94 1378.83 550.4 1375.63 553.76 Z" stroke="#ffffff" stroke-width="0.6" fill-opacity="0.15" fill="#97c1ff" id="SOM"/>
<path d="M 1341.89 596.15 1321.56 581.99 1320.6 573.78 1269.25 544.93 1266.85 543.37 1266.71 528.36 1270.77 522.63 1277.74 513.25 1282.89 502.93 1276.66 486.68 1275 479.57 1268.29 469.74 1277 461.28 1286.6 451.95 1293.95 454.32 1293.95 462.27 1298.79 466.93 1308.65 466.93 1326.57 478.96 1331.05 479.1 1334.37 478.71 1337.5 480.35 1346.95 481.46 1351.13 475.56 1364.07 469.64 1369.78 474.42 1379.45 474.42 1367.08 490.49 1367.25 542.07 1375.63 553.76 1365.71 559.41 1362.22 565.32 1356.91 566.36 1354.9 576.34 1350.35 582.05 1347.59 591.47 1341.89 596.15 Z" stroke="#ffffff" stroke-width="0.6" fill-opacity="0.15" fill="#97c1ff" id="KEN"/>
<path d="M 1134.64 413.38 1123.86 407.19 1118.94 403.12 1118.04 398.72 1120.34 392.82 1120.29 387.04 1112.13 378.19 1110.52 372.13 1110.69 368.7 1105.49 364.53 1105.33 356.3 1102.36 350.84 1097.39 351.66 1098.82 346.46 1102.48 340.55 1100.88 334.69 1105.53 330.34 1102.58 327.04 1106.33 318.29 1112.79 307.86 1125 308.85 1124.31 252.64 1124.48 246.7 1140.77 246.65 1140.77 218.37 1197.7 218.37 1252.64 218.37 1308.81 218.37 1313.37 232.27 1310.27 234.84 1312.33 249.42 1317.52 266.32 1322.92 269.81 1330.67 275.04 1323.5 283.13 1313.07 285.45 1308.61 289.8 1307.22 299.21 1301.12 320.02 1302.62 325.69 1300.37 337.85 1294.61 351.8 1286.07 358.81 1279.99 369.63 1278.57 375.42 1271.86 379.39 1267.67 394.21 1267.86 406.94 1267.7 395.89 1265.74 395.61 1265.98 388.56 1264.28 383.7 1256.99 378.11 1255.29 367.9 1256.99 357.45 1250.42 356.47 1249.45 359.63 1240.94 360.36 1244.35 364.5 1245.56 373.01 1237.78 380.78 1230.73 391 1223.44 392.45 1211.53 384.19 1206.18 387.11 1204.72 391.24 1197.43 393.91 1196.94 396.83 1182.84 396.83 1180.89 393.91 1170.68 393.43 1165.58 395.86 1161.69 394.64 1154.39 386.38 1151.96 382.49 1141.75 384.43 1137.86 391 1134.22 403.64 1129.35 406.31 1125.01 407.85 1134.64 413.38 Z" stroke="#ffffff" stroke-width="0.6" fill-opacity="0.15" fill="#97c1ff" id="SDN"/>
<path d="M 1124.31 252.64 1125 308.85 1112.79 307.86 1106.33 318.29 1102.58 327.04 1105.53 330.34 1100.88 334.69 1102.48 340.55 1098.82 346.46 1097.39 351.66 1102.36 350.84 1105.33 356.3 1105.49 364.53 1110.69 368.7 1110.52 372.13 1101.56 374.54 1094.37 380.28 1084.13 395.73 1070.81 402.29 1057.13 401.41 1053.14 402.71 1054.54 407.7 1047.16 412.65 1041.14 418.18 1023.31 423.59 1019.78 420.39 1017.43 420.11 1014.82 423.75 1003.11 424.82 1005.33 420.98 1000.87 411.22 998.87 405.36 992.7 402.95 984.35 394.69 987.42 388.01 993.88 389.43 997.87 388.42 1005.78 388.56 998.07 375.69 998.59 366.28 997.65 356.88 992.02 347.82 993.43 341.15 984.35 340.82 984.38 331.71 978.49 326.46 984.6 307.81 1002.66 294.46 1003.41 276.04 1008.87 247.3 1011.95 241.21 1006.05 236.35 1005.83 231.85 1000.53 228.17 997.05 206.15 1011.35 198.41 1067.83 225.52 1124.31 252.64 Z" stroke="#ffffff" stroke-width="0.6" fill-opacity="0.15" fill="#97c1ff" id="TCD"/>
<path d="M 1018.2 934.6 1024.99 927.6 1030.58 931.47 1032.97 937.53 1039.32 938.56 1048.22 941.24 1055.83 940.2 1068.47 932.96 1068.49 880.66 1072.31 882.79 1080.7 896.24 1079.4 904.87 1082.56 909.84 1092.7 908.4 1099.78 902.08 1106.49 897.82 1109.96 891.04 1116.86 887.75 1122.83 889.47 1129.6 893.44 1141.12 894.14 1150.18 890.84 1151.61 886.43 1154.1 879.65 1161.81 878.52 1166.06 873.2 1170.78 863.76 1183.49 853.19 1203.53 842.76 1209.29 842.91 1216.15 845.31 1220.92 843.61 1228.44 845.03 1235.23 864.96 1238.91 875.02 1236.39 890.81 1237.6 895.89 1230.45 893.3 1226.36 894.31 1225.02 898.43 1221.15 903.75 1221.29 908.64 1229.74 916.32 1238.03 914.79 1240.91 908.5 1251.65 908.62 1248.11 918.93 1246.44 930.7 1242.78 937.09 1233.11 944.24 1230.34 946.29 1224.34 953.48 1220.39 960.76 1212.36 970.9 1196.36 985.51 1186.36 994.01 1175.67 1000.45 1160.87 1005.95 1153.65 1006.68 1151.82 1010.62 1143.22 1008.52 1136.21 1011.22 1120.86 1008.49 1112.28 1010.22 1106.41 1009.47 1091.81 1015.07 1079.72 1017.31 1070.97 1022.66 1064.53 1023 1058.54 1017.95 1053.75 1017.69 1047.65 1011.37 1046.98 1013.33 1045.1 1009.53 1045.18 1001.22 1040.58 991.73 1045.15 989.15 1044.78 978.29 1035.51 965.03 1028.39 953.04 1028.37 953 1018.2 934.6 Z M 1197.1 939.96 1190.92 935.6 1184.3 938.49 1176.63 944.03 1169.08 953 1179.7 963.89 1184.77 962.48 1187.37 957.96 1195.27 955.75 1197.67 951.13 1202.02 944.24 1197.1 939.96 Z" fill-rule="evenodd" stroke="#ffffff" stroke-width="0.6" fill-opacity="0.15" fill="#97c1ff" id="ZAF"/>
<path d="M 1197.1 939.96 1202.02 944.24 1197.67 951.13 1195.27 955.75 1187.37 957.96 1184.77 962.48 1179.7 963.89 1169.08 953 1176.63 944.03 1184.3 938.49 1190.92 935.6 1197.1 939.96 Z" stroke="#ffffff" stroke-width="0.6" fill-opacity="0.15" fill="#97c1ff" id="LSO"/>
<path d="M 1228.44 845.03 1220.92 843.61 1216.15 845.31 1209.29 842.91 1203.53 842.76 1194.5 836.36 1183.55 834.19 1179.39 825.21 1179.35 820.21 1173.29 818.69 1157.26 803.13 1152.81 794.94 1149.96 792.41 1144.51 781.09 1160.34 782.64 1164.94 784.27 1169.72 783.94 1177.56 774.78 1189.88 763.13 1194.95 762.02 1196.67 757.11 1204.73 751.47 1215.46 749.53 1216.37 754.81 1228.19 754.53 1234.75 757.52 1237.8 761.02 1244.54 762.05 1251.9 766.6 1251.93 784.52 1249.17 794.34 1248.56 804.92 1250.84 809.12 1249.24 817.45 1247.1 818.74 1243.36 828.95 1228.44 845.03 Z" stroke="#ffffff" stroke-width="0.6" fill-opacity="0.15" fill="#97c1ff" id="ZWE"/>
<path d="M 1203.53 842.76 1183.49 853.19 1170.78 863.76 1166.06 873.2 1161.81 878.52 1154.1 879.65 1151.61 886.43 1150.18 890.84 1141.12 894.14 1129.6 893.44 1122.83 889.47 1116.86 887.75 1109.96 891.04 1106.49 897.82 1099.78 902.08 1092.7 908.4 1082.56 909.84 1079.4 904.87 1080.7 896.24 1072.31 882.79 1068.49 880.66 1068.48 839.33 1082.44 838.84 1082.86 788.39 1093.4 787.92 1115.23 782.97 1120.64 788.8 1129.68 783.25 1133.98 783.22 1141.96 780.03 1144.51 781.09 1149.96 792.41 1152.81 794.94 1157.26 803.13 1173.29 818.69 1179.35 820.21 1179.39 825.21 1183.55 834.19 1194.5 836.36 1203.53 842.76 Z" stroke="#ffffff" stroke-width="0.6" fill-opacity="0.15" fill="#97c1ff" id="BWA"/>
<path d="M 1068.49 880.66 1068.47 932.96 1055.83 940.2 1048.22 941.24 1039.32 938.56 1032.97 937.53 1030.58 931.47 1024.99 927.6 1018.2 934.6 1007.68 923.9 1002.14 913.56 999.01 899.77 995.52 889.51 990.77 867.71 990.46 850.76 988.64 843.04 983.13 837.2 975.82 825.5 968.38 808.51 965.29 799.62 953.77 785.8 952.91 774.93 959.72 772.24 968.2 769.83 977.38 770.25 985.82 776.66 987.96 775.66 1045.37 775.05 1055.18 781.83 1089.46 783.84 1115.49 778.07 1127.09 774.85 1136.27 775.66 1141.86 778.86 1141.96 780.03 1133.98 783.22 1129.68 783.25 1120.64 788.8 1115.23 782.97 1093.4 787.92 1082.86 788.39 1082.44 838.84 1068.48 839.33 1068.49 880.66 Z" stroke="#ffffff" stroke-width="0.6" fill-opacity="0.15" fill="#97c1ff" id="NAM"/>
<path d="M 550.05 337.4 544.21 326.37 537.15 321.33 543.38 318.64 550.24 308.7 553.6 301.43 558.45 296.89 565.49 298.11 572.4 295.02 580.31 294.87 587.07 299.03 596.47 302.78 605.04 313.2 614.39 322.93 615.04 331.74 617.83 339.85 623.13 343.82 624.34 349.3 623.69 353.71 621.64 354.51 613.92 353.39 612.86 354.97 609.74 355.28 599.56 351.83 592.72 351.68 566.55 351.09 562.76 352.68 558.07 352.23 550.57 354.54 548.24 343.68 561.13 343.98 564.53 342 567.07 341.88 572.32 338.61 578.4 341.6 584.55 341.85 590.68 338.67 587.82 334.58 583.15 336.96 578.75 336.9 573.16 333.41 568.67 333.64 565.48 336.99 550.05 337.4 Z" stroke="#ffffff" stroke-width="0.6" fill-opacity="0.15" fill="#97c1ff" id="SEN"/>
<path d="M 623.69 353.71 624.34 349.3 623.13 343.82 617.83 339.85 615.04 331.74 614.39 322.93 619.15 320.35 621.53 312 626.02 311.68 635.91 315.62 643.9 312.82 649.37 313.76 651.5 310.61 708.32 310.4 711.47 300.48 709.01 298.74 702.18 237.62 695.34 176.51 717.02 176.25 764.79 207.15 812.56 238.05 815.92 244.68 824.74 248.73 831.3 251.04 831.46 260.05 847.17 258.66 847.21 291.27 839.47 300.73 838.26 309.46 825.68 311.7 806.36 312.92 801.12 317.95 792.05 318.51 782.97 318.57 779.43 315.86 771.64 317.87 758.4 323.75 755.7 328.17 744.71 334.52 742.79 338.16 736.85 341.04 730 339.13 726.12 342.59 724.04 352.3 712.8 364.04 713.13 368.83 709.27 374.84 710.21 383.06 704.36 385.16 701.06 386.94 698.86 380.89 694.78 382.48 692.33 382.21 689.73 386.34 678.79 386.22 674.87 384.1 673.02 385.38 668.7 381.3 669.45 377.08 667.68 375.43 664.66 376.82 665.22 372.22 668.12 368.57 662.32 362.64 660.63 358.73 657.48 355.62 654.65 355.25 651.24 357.23 646.67 359.13 642.79 362.19 636.73 361.06 632.79 357.47 630.45 356.99 626.75 358.88 624.51 358.9 623.69 353.71 Z" stroke="#ffffff" stroke-width="0.6" fill-opacity="0.15" fill="#97c1ff" id="MLI"/>
<path d="M 545.1 232.54 548.19 227.81 603.65 227.9 600.96 207.45 604.42 200.18 617.69 198.91 617.24 162.67 663.72 163.41 663.76 141.96 717.02 176.25 695.34 176.51 702.18 237.62 709.01 298.74 711.47 300.48 708.32 310.4 651.5 310.61 649.37 313.76 643.9 312.82 635.91 315.62 626.02 311.68 621.53 312 619.15 320.35 614.39 322.93 605.04 313.2 596.47 302.78 587.07 299.03 580.31 294.87 572.4 295.02 565.49 298.11 558.45 296.89 553.6 301.43 552.37 293.8 556.33 286.82 558.09 273.48 556.52 259.49 554.81 252.45 556.22 245.39 552.56 238.65 545.1 232.54 Z" stroke="#ffffff" stroke-width="0.6" fill-opacity="0.15" fill="#97c1ff" id="MRT"/>
<path d="M 824.86 441.29 813.15 442.94 809.66 433.17 810.31 400.65 807.46 397.73 806.92 390.78 802 385.82 797.68 381.64 799.48 374.18 804.35 372.58 807.23 366.39 814.15 365.07 817.25 360.83 822 356.69 827.08 356.65 837.88 364.8 837.32 369.5 840.51 377.9 837.72 383.6 839.21 387.41 832.34 396.18 827.98 400.52 825.31 409.45 825.67 418.46 824.86 441.29 Z" stroke="#ffffff" stroke-width="0.6" fill-opacity="0.15" fill="#97c1ff" id="BEN"/>
<path d="M 997.05 206.15 1000.53 228.17 1005.83 231.85 1006.05 236.35 1011.95 241.21 1008.87 247.3 1003.41 276.04 1002.66 294.46 984.6 307.81 978.49 326.46 984.38 331.71 984.35 340.82 993.43 341.15 992.02 347.82 988.02 348.63 987.56 353.14 984.93 353.45 975.35 337.95 972.02 337.38 960.95 345.3 949.99 341.17 942.36 340.34 938.28 342.33 929.98 341.9 921.62 347.93 914.4 348.28 897.26 340.96 890.55 344.44 883.32 344.19 878.01 338.85 863.82 333.56 848.6 335.24 844.91 338.3 842.92 346.45 838.86 352.16 837.88 364.8 827.08 356.65 822 356.69 817.25 360.83 817.57 351.13 801.24 347.92 800.8 341.07 792.83 331.82 790.92 325.37 792.05 318.51 801.12 317.95 806.36 312.92 825.68 311.7 838.26 309.46 839.47 300.73 847.21 291.27 847.17 258.66 867.14 252.34 908.14 224.52 956.66 197.53 979.07 203.64 987.03 211.42 997.05 206.15 Z" stroke="#ffffff" stroke-width="0.6" fill-opacity="0.15" fill="#97c1ff" id="NER"/>
<path d="M 824.86 441.29 825.67 418.46 825.31 409.45 827.98 400.52 832.34 396.18 839.21 387.41 837.72 383.6 840.51 377.9 837.32 369.5 837.88 364.8 838.86 352.16 842.92 346.45 844.91 338.3 848.6 335.24 863.82 333.56 878.01 338.85 883.32 344.19 890.55 344.44 897.26 340.96 914.4 348.28 921.62 347.93 929.98 341.9 938.28 342.33 942.36 340.34 949.99 341.17 960.95 345.3 972.02 337.38 975.35 337.95 984.93 353.45 987.56 353.14 993.17 358.78 991.62 361.33 990.88 366.04 978.95 377 975.2 386.04 973.21 393.4 970.2 396.55 967.34 406.47 959.77 412.3 957.58 419.47 954.4 425.17 953.07 431.06 943.34 435.83 935.39 430.01 930.02 430.24 921.59 438.53 917.49 438.66 910.75 452.32 907.11 462.34 892.41 467.44 887.04 466.69 881.59 469.87 870.26 469.56 862.68 460.7 858.02 450.45 847.99 441.12 837.35 441.29 824.86 441.29 Z" stroke="#ffffff" stroke-width="0.6" fill-opacity="0.15" fill="#97c1ff" id="NGA"/>
<path d="M 992.02 347.82 997.65 356.88 998.59 366.28 998.07 375.69 1005.78 388.56 997.87 388.42 993.88 389.43 987.42 388.01 984.35 394.69 992.7 402.95 998.87 405.36 1000.87 411.22 1005.33 420.98 1003.11 424.82 995.99 439.17 992.59 441.74 991.5 452.72 992.91 458.68 991.77 462.9 998.46 470.3 999.67 475.38 1004.9 482.69 1011.37 487.24 1012.01 493.7 1013.5 497.81 1012.48 505.45 1001.23 502.11 989.78 498.37 971.91 497.81 970.14 497.04 961.76 498.87 953.16 496.97 946.43 497.9 923.38 497.58 925.45 486.4 919.91 477.03 913.45 474.63 910.58 468.29 906.95 466.26 907.11 462.34 910.75 452.32 917.49 438.66 921.59 438.53 930.02 430.24 935.39 430.01 943.34 435.83 953.07 431.06 954.4 425.17 957.58 419.47 959.77 412.3 967.34 406.47 970.2 396.55 973.21 393.4 975.2 386.04 978.95 377 990.88 366.04 991.62 361.33 993.17 358.78 987.56 353.14 988.02 348.63 992.02 347.82 Z" stroke="#ffffff" stroke-width="0.6" fill-opacity="0.15" fill="#97c1ff" id="CMR"/>
<path d="M 799.48 374.18 797.68 381.64 802 385.82 806.92 390.78 807.46 397.73 810.31 400.65 809.66 433.17 813.15 442.94 801.75 445.96 798.59 440.99 794.82 432 793.69 424.96 796.82 412.21 793.27 407.04 791.92 395.88 791.94 385.6 786.03 378.3 787.07 373.88 799.48 374.18 Z" stroke="#ffffff" stroke-width="0.6" fill-opacity="0.15" fill="#97c1ff" id="TGO"/>
<path d="M 787.07 373.88 786.03 378.3 791.94 385.6 791.92 395.88 793.27 407.04 796.82 412.21 793.69 424.96 794.82 432 798.59 440.99 801.75 445.96 779.55 454.25 771.68 459.11 758.92 463.21 746.29 459.19 746.94 453.6 740.79 441.41 744.49 425.41 750.45 413.52 746.7 393.37 744.77 382.71 745.1 374.68 769.7 374.01 775.95 375.04 780.53 372.75 787.07 373.88 Z" stroke="#ffffff" stroke-width="0.6" fill-opacity="0.15" fill="#97c1ff" id="GHA"/>
<path d="M 673.02 385.38 674.87 384.1 678.79 386.22 689.73 386.34 692.33 382.21 694.78 382.48 698.86 380.89 701.06 386.94 704.36 385.16 710.21 383.06 716.57 386.15 719.05 390.83 725.42 393.82 730.37 390.26 737.01 389.72 746.7 393.37 750.45 413.52 744.49 425.41 740.79 441.41 746.94 453.6 746.29 459.19 739.85 459.34 729.97 456.57 720.89 456.73 704.11 459.2 694.28 463.29 680.26 468.48 677.52 468.11 678.61 456.45 679.97 454.68 679.54 449.1 673.54 443.17 669.04 442.22 664.91 438.33 667.99 432.04 666.57 425.19 667.23 421.08 669.47 421.06 670.31 414.88 669.21 412.15 670.57 410.18 675.83 408.48 672.33 397.14 669.06 391.29 670.2 386.48 673.02 385.38 Z" stroke="#ffffff" stroke-width="0.6" fill-opacity="0.15" fill="#97c1ff" id="CIV"/>
<path d="M 592.72 351.68 599.56 351.83 609.74 355.28 612.86 354.97 613.92 353.39 621.64 354.51 623.69 353.71 624.51 358.9 626.75 358.88 630.45 356.99 632.79 357.47 636.73 361.06 642.79 362.19 646.67 359.13 651.24 357.23 654.65 355.25 657.48 355.62 660.63 358.73 662.32 362.64 668.12 368.57 665.22 372.22 664.66 376.82 667.68 375.43 669.45 377.08 668.7 381.3 673.02 385.38 670.2 386.48 669.06 391.29 672.33 397.14 675.83 408.48 670.57 410.18 669.21 412.15 670.31 414.88 669.47 421.06 667.23 421.08 663.22 420.71 660.33 426.42 656.33 426.35 653.58 423.33 654.51 417.64 648.59 408.97 644.89 410.56 641.87 410.88 637.97 411.69 638.13 406.5 635.85 402.79 636.31 398.68 633.24 392.72 629.3 387.66 617.98 387.64 614.67 390.31 610.77 390.63 608.35 393.69 606.72 397.62 599.15 403.84 592.94 395.46 587.43 389.92 583.81 388.09 580.27 385.27 578.66 379.01 576.59 375.89 572.47 373.57 578.77 366.67 583.07 366.93 586.76 364.56 589.89 364.54 592.12 362.66 590.91 357.97 592.46 356.49 592.72 351.68 Z" stroke="#ffffff" stroke-width="0.6" fill-opacity="0.15" fill="#97c1ff" id="GIN"/>
<path d="M 550.57 354.54 558.07 352.23 562.76 352.68 566.55 351.09 592.72 351.68 592.46 356.49 590.91 357.97 592.12 362.66 589.89 364.54 586.76 364.56 583.07 366.93 578.77 366.67 572.47 373.57 564.91 367.65 558.95 366.72 555.7 362.73 555.78 360.57 551.47 357.57 550.57 354.54 Z" stroke="#ffffff" stroke-width="0.6" fill-opacity="0.15" fill="#97c1ff" id="GNB"/>
<path d="M 667.23 421.08 666.57 425.19 667.99 432.04 664.91 438.33 669.04 442.22 673.54 443.17 679.54 449.1 679.97 454.68 678.61 456.45 677.52 468.11 673.82 468.24 659.22 461.49 646.35 450.71 634.29 442.96 624.75 433.82 628.14 429.29 628.89 425.17 635.28 417.49 641.87 410.88 644.89 410.56 648.59 408.97 654.51 417.64 653.58 423.33 656.33 426.35 660.33 426.42 663.22 420.71 667.23 421.08 Z" stroke="#ffffff" stroke-width="0.6" fill-opacity="0.15" fill="#97c1ff" id="LBR"/>
<path d="M 599.15 403.84 606.72 397.62 608.35 393.69 610.77 390.63 614.67 390.31 617.98 387.64 629.3 387.66 633.24 392.72 636.31 398.68 635.85 402.79 638.13 406.5 637.97 411.69 641.87 410.88 635.28 417.49 628.89 425.17 628.14 429.29 624.75 433.82 620.94 432.77 610.74 427.07 603.36 419.48 600.89 414.31 599.15 403.84 Z" stroke="#ffffff" stroke-width="0.6" fill-opacity="0.15" fill="#97c1ff" id="SLE"/>
<path d="M 710.21 383.06 709.27 374.84 713.13 368.83 712.8 364.04 724.04 352.3 726.12 342.59 730 339.13 736.85 341.04 742.79 338.16 744.71 334.52 755.7 328.17 758.4 323.75 771.64 317.87 779.43 315.86 782.97 318.57 792.05 318.51 790.92 325.37 792.83 331.82 800.8 341.07 801.24 347.92 817.57 351.13 817.25 360.83 814.15 365.07 807.23 366.39 804.35 372.58 799.48 374.18 787.07 373.88 780.53 372.75 775.95 375.04 769.7 374.01 745.1 374.68 744.77 382.71 746.7 393.37 737.01 389.72 730.37 390.26 725.42 393.82 719.05 390.83 716.57 386.15 710.21 383.06 Z" stroke="#ffffff" stroke-width="0.6" fill-opacity="0.15" fill="#97c1ff" id="BFA"/>
<path d="M 1174.39 455.8 1169.71 457.3 1160.63 456.98 1149.98 455.49 1144.72 456.7 1142.59 460.14 1138.01 460.57 1132.42 457.57 1116.65 464.64 1110.2 463.22 1108.25 464.31 1104.02 472.86 1093.46 470.1 1083.1 468.7 1074.08 463.48 1062.42 458.67 1054.84 463.23 1049.33 470.42 1048.05 480.29 1038.95 479.5 1029.36 477.12 1020.92 484.63 1013.5 497.81 1012.01 493.7 1011.37 487.24 1004.9 482.69 999.67 475.38 998.46 470.3 991.77 462.9 992.91 458.68 991.5 452.72 992.59 441.74 995.99 439.17 1003.11 424.82 1014.82 423.75 1017.43 420.11 1019.78 420.39 1023.31 423.59 1041.14 418.18 1047.16 412.65 1054.54 407.7 1053.14 402.71 1057.13 401.41 1070.81 402.29 1084.13 395.73 1094.37 380.28 1101.56 374.54 1110.52 372.13 1112.13 378.19 1120.29 387.04 1120.34 392.82 1118.04 398.72 1118.94 403.12 1123.86 407.19 1134.64 413.38 1142.39 419.11 1142.53 423.71 1152.05 431.08 1157.95 437.21 1161.53 445.71 1172.11 451.31 1174.39 455.8 Z" stroke="#ffffff" stroke-width="0.6" fill-opacity="0.15" fill="#97c1ff" id="CAF"/>
<path d="M 1048.05 480.29 1047.22 488.85 1042.97 496.42 1040.21 505.25 1038.44 517.8 1039.18 525.83 1036.87 530.74 1036.52 535.94 1034.89 540.45 1025.57 547.28 1019.08 554.57 1012.93 568.33 1013.41 579.98 1009.83 584.51 1001.58 591.43 993.24 600.3 987.95 597.8 987.05 593.79 979.33 593.65 974.49 599.07 970.77 597.63 965.46 592.77 961.18 595.15 955.47 601.26 943.84 586.26 954.62 578.45 949.28 569.08 954.14 565.52 963.69 563.79 964.82 557.51 972.39 564.31 984.89 564.91 989.23 558.22 991.02 548.8 989.48 537.75 982.78 529.37 988.91 512.97 985.37 510.16 974.84 511.31 970.88 503.99 971.91 497.81 989.78 498.37 1001.23 502.11 1012.48 505.45 1013.5 497.81 1020.92 484.63 1029.36 477.12 1038.95 479.5 1048.05 480.29 Z" stroke="#ffffff" stroke-width="0.6" fill-opacity="0.15" fill="#97c1ff" id="COG"/>
<path d="M 946.43 497.9 953.16 496.97 961.76 498.87 970.14 497.04 971.91 497.81 970.88 503.99 974.84 511.31 985.37 510.16 988.91 512.97 982.78 529.37 989.48 537.75 991.02 548.8 989.23 558.22 984.89 564.91 972.39 564.31 964.82 557.51 963.69 563.79 954.14 565.52 949.28 569.08 954.62 578.45 943.84 586.26 929.29 571.97 919.93 560.29 911.33 545.66 911.78 540.95 914.87 536.42 918.31 526.12 921.17 515.62 925.95 514.8 946.55 514.94 946.43 497.9 Z" stroke="#ffffff" stroke-width="0.6" fill-opacity="0.15" fill="#97c1ff" id="GAB"/>
<path d="M 923.38 497.58 946.43 497.9 946.55 514.94 925.95 514.8 921.17 515.62 918.52 513.48 923.38 497.58 Z" stroke="#ffffff" stroke-width="0.6" fill-opacity="0.15" fill="#97c1ff" id="GNQ"/>
<path d="M 1222.05 648.02 1227.97 651.63 1233.61 654 1242.61 656.38 1250.65 660.64 1257.33 666.95 1260.93 678.97 1258.52 682.81 1255.68 694.29 1258.4 706.02 1253.94 710.95 1249.64 724.11 1257.09 727.78 1214.11 739.45 1215.46 749.53 1204.73 751.47 1196.67 757.11 1194.95 762.02 1189.88 763.13 1177.56 774.78 1169.72 783.94 1164.94 784.27 1160.34 782.64 1144.51 781.09 1141.96 780.03 1141.86 778.86 1136.27 775.66 1127.09 774.85 1115.49 778.07 1106.25 769.22 1096.7 757.64 1097.35 712.58 1126.83 712.76 1125.63 707.87 1127.74 702.56 1125.25 695.92 1126.86 689.05 1125.36 684.66 1130.25 685.01 1131.06 689.41 1137.7 689.07 1146.69 690.38 1151.42 696.81 1162.76 698.78 1171.42 694.31 1174.6 701.73 1185.45 703.71 1190.66 709.75 1196.48 717.54 1207.32 717.66 1206.14 702.39 1202.25 704.96 1192.35 699.45 1188.52 696.93 1190.28 682.72 1192.79 665.95 1189.62 659.71 1193.66 650.67 1197.45 648.97 1216.47 646.58 1222.05 648.02 Z" stroke="#ffffff" stroke-width="0.6" fill-opacity="0.15" fill="#97c1ff" id="ZMB"/>
<path d="M 1250.65 660.64 1264.53 663.28 1267.38 667.19 1272.18 673.8 1276.15 693.06 1272.18 703.82 1276.15 722.23 1281.06 722.02 1286.17 726.59 1292.11 736.83 1293.31 755.04 1287.18 758.02 1282.86 767.85 1273.62 759.1 1272.57 749.12 1275.55 742.53 1274.73 736.86 1269.14 733.27 1265.24 734.57 1257.09 727.78 1249.64 724.11 1253.94 710.95 1258.4 706.02 1255.68 694.29 1258.52 682.81 1260.93 678.97 1257.33 666.95 1250.65 660.64 Z" stroke="#ffffff" stroke-width="0.6" fill-opacity="0.15" fill="#97c1ff" id="MWI"/>
<path d="M 1276.15 693.06 1286.8 691.91 1303.82 695.9 1307.52 694.11 1317.38 693.75 1322.42 689.5 1330.92 689.73 1346.4 684.23 1357.67 676.02 1359.96 682.37 1359.38 696.48 1361.13 708.91 1361.68 731.04 1364.17 737.97 1359.94 748.09 1354.45 757.93 1345.43 766.71 1332.49 772.09 1316.52 778.96 1300.52 794.16 1295.07 796.75 1285.19 806.81 1279.35 810.08 1278.16 820.18 1284.87 830.91 1287.67 839.21 1287.84 843.45 1290.35 842.74 1289.94 856.63 1287.64 863.21 1290.98 865.63 1288.88 871.52 1282.96 876.56 1271.27 881.35 1254.24 889.01 1248.03 894.25 1249.25 900.21 1252.87 901.17 1251.65 908.62 1240.91 908.5 1239.69 902.24 1237.6 895.89 1236.39 890.81 1238.91 875.02 1235.23 864.96 1228.44 845.03 1243.36 828.95 1247.1 818.74 1249.24 817.45 1250.84 809.12 1248.56 804.92 1249.17 794.34 1251.93 784.52 1251.9 766.6 1244.54 762.05 1237.8 761.02 1234.75 757.52 1228.19 754.53 1216.37 754.81 1215.46 749.53 1214.11 739.45 1257.09 727.78 1265.24 734.57 1269.14 733.27 1274.73 736.86 1275.55 742.53 1272.57 749.12 1273.62 759.1 1282.86 767.85 1287.18 758.02 1293.31 755.04 1292.11 736.83 1286.17 726.59 1281.06 722.02 1276.15 722.23 1272.18 703.82 1276.15 693.06 Z" stroke="#ffffff" stroke-width="0.6" fill-opacity="0.15" fill="#97c1ff" id="MOZ"/>
<path d="M 1240.91 908.5 1238.03 914.79 1229.74 916.32 1221.29 908.64 1221.15 903.75 1225.02 898.43 1226.36 894.31 1230.45 893.3 1237.6 895.89 1239.69 902.24 1240.91 908.5 Z" stroke="#ffffff" stroke-width="0.6" fill-opacity="0.15" fill="#97c1ff" id="SWZ"/>
<path d="M 970.77 597.63 965.62 600.6 963.3 604.24 962.86 610.42 959.25 611.91 955.47 601.26 961.18 595.15 965.46 592.77 970.77 597.63 Z M 961.24 616.3 967.08 614.4 971.19 614.67 976.15 612.96 1017.94 613.15 1021.43 623.7 1025.5 632.2 1028.75 636.78 1034.18 644.18 1043.54 643.03 1048.21 641.04 1056.04 643.04 1058.16 639.5 1061.71 631.25 1070.5 630.7 1071.26 628.24 1078.48 628.19 1077.25 633.29 1094.43 633.17 1094.69 642.08 1097.56 647.54 1095.48 656.08 1096.52 664.79 1101.24 670.04 1100.48 686.89 1103.99 685.59 1110.14 685.94 1118.91 683.82 1125.36 684.66 1126.86 689.05 1125.25 695.92 1127.74 702.56 1125.63 707.87 1126.83 712.76 1097.35 712.58 1096.7 757.64 1106.25 769.22 1115.49 778.07 1089.46 783.84 1055.18 781.83 1045.37 775.05 987.96 775.66 985.82 776.66 977.38 770.25 968.2 769.83 959.72 772.24 952.91 774.93 951.58 766.03 953.54 753.58 958.42 740.61 959.16 734.54 963.75 721.77 967.13 715.97 975.26 706.7 979.81 700.4 981.29 689.91 980.55 681.88 976.32 676.82 972.55 668.23 969.07 659.73 969.83 656.79 974.18 651.18 969.88 637.5 966.99 628.02 959.89 619.06 961.24 616.3 Z" fill-rule="evenodd" stroke="#ffffff" stroke-width="0.6" fill-opacity="0.15" fill="#97c1ff" id="AGO"/>
<path d="M 1218.22 564.1 1219.05 569.68 1222.09 572.89 1222.23 577.49 1218.73 580.46 1213.22 587.84 1208.08 592.97 1202.23 593.64 1201.33 576.57 1197.76 570.13 1206.36 571.24 1210.7 563.18 1218.22 564.1 Z" stroke="#ffffff" stroke-width="0.6" fill-opacity="0.15" fill="#97c1ff" id="BDI"/>
<path d="M 1488.33 706.51 1492.09 712.53 1495.6 721.89 1497.88 738.92 1501.54 745.55 1500.14 752.34 1497.63 756.5 1492.82 748.2 1490.16 752.39 1492.86 762.89 1491.6 768.89 1487.7 772.16 1486.8 784.16 1481.23 800.66 1474.24 820.18 1465.49 847.01 1460.07 866.7 1453.67 883.12 1442.15 886.48 1429.79 892.47 1421.63 888.85 1410.39 883.78 1406.48 876.31 1405.55 863.76 1400.56 852.47 1399.27 842.28 1401.8 832.07 1408.32 829.62 1408.36 824.9 1415.13 814.17 1416.41 805.15 1413.12 798.44 1410.44 789.51 1409.31 776.46 1414.25 768.54 1416.15 759.56 1423.21 759.04 1431.11 756.14 1436.35 753.57 1442.57 753.38 1450.64 745.31 1462.3 736.59 1466.55 729.47 1464.62 723.42 1470.64 725.12 1478.44 715.28 1478.7 706.76 1483.39 700.43 1488.33 706.51 Z" stroke="#ffffff" stroke-width="0.6" fill-opacity="0.15" fill="#97c1ff" id="MDG"/>
<path d="M 550.05 337.4 565.48 336.99 568.67 333.64 573.16 333.41 578.75 336.9 583.15 336.96 587.82 334.58 590.68 338.67 584.55 341.85 578.4 341.6 572.32 338.61 567.07 341.88 564.53 342 561.13 343.98 548.24 343.68 550.05 337.4 Z" stroke="#ffffff" stroke-width="0.6" fill-opacity="0.15" fill="#97c1ff" id="GMB"/>
<path d="M 921.02 100.73 914.98 75.31 906.25 69.59 906.12 66.16 894.54 57.73 893.29 47.06 902.02 39.16 905.36 27.48 903.11 13.98 905.99 6.71 921.41 1 931.32 2.7 930.91 9.86 942.92 4.65 943.93 7.37 936.85 14.31 936.75 20.86 941.65 24.38 939.79 36.64 930.47 43.76 933.16 51.47 940.48 51.71 944.05 58.45 949.43 60.66 948.63 71.54 941.73 75.6 937.37 80.14 927.64 85.6 929.15 91.46 927.92 97.45 921.02 100.73 Z" stroke="#ffffff" stroke-width="0.6" fill-opacity="0.15" fill="#97c1ff" id="TUN"/>
<path d="M 663.76 141.96 664.03 139.22 664.02 138.27 663.9 121.49 686.77 111.04 700.91 108.88 712.5 105.08 717.92 97.99 734.48 92.38 735.08 81.9 743.28 80.66 749.68 75.43 768.22 73.04 770.81 67.54 767.08 64.53 762.19 49.58 761.35 40.96 756.01 31.89 769.62 24.16 784.93 21.69 793.87 15.85 807.51 11.54 831.51 9.02 854.93 7.87 862.08 9.97 875.41 4.39 890.54 4.28 896.3 7.57 905.99 6.71 903.11 13.98 905.36 27.48 902.02 39.16 893.29 47.06 894.54 57.73 906.12 66.16 906.25 69.59 914.98 75.31 921.02 100.73 925.6 113.23 926.37 119.81 923.87 131.37 924.9 137.82 923.1 145.57 924.33 154.48 918.71 160.39 927.08 170.72 927.62 176.78 932.65 184.68 939.27 182.09 950.45 188.67 956.66 197.53 908.14 224.52 867.14 252.34 847.17 258.66 831.46 260.05 831.3 251.04 824.74 248.73 815.92 244.68 812.56 238.05 764.79 207.15 717.02 176.25 663.76 141.96 Z" stroke="#ffffff" stroke-width="0.6" fill-opacity="0.15" fill="#97c1ff" id="DZA"/>
<path d="M 1302.62 325.69 1301.12 320.02 1307.22 299.21 1308.61 289.8 1313.07 285.45 1323.5 283.13 1330.67 275.04 1338.89 291.44 1342.79 304.44 1350.55 311.33 1369.88 324.71 1377.75 332.78 1385.43 340.95 1389.86 345.82 1396.82 350.08 1392.55 353.54 1386.49 352.31 1381.65 347.72 1375.82 339.42 1369.54 334.87 1365.88 329.98 1353.56 324.31 1343.85 324.14 1340.43 321.17 1332.13 324.51 1323.53 318.08 1319.11 328.65 1302.62 325.69 Z" stroke="#ffffff" stroke-width="0.6" fill-opacity="0.15" fill="#97c1ff" id="ERI"/>
<path d="M 756.01 31.89 761.35 40.96 762.19 49.58 767.08 64.53 770.81 67.54 768.22 73.04 749.68 75.43 743.28 80.66 735.08 81.9 734.48 92.38 717.92 97.99 712.5 105.08 700.91 108.88 686.77 111.04 663.9 121.49 664.02 138.27 661.87 138.27 662.19 145.86 653.44 146.32 648.87 149.54 642.44 149.54 637.32 147.7 625.41 149.22 620.79 160.26 616.37 161.29 609.71 179.15 590.02 194.43 585.35 213.98 579.55 220.34 577.85 225.45 545.96 226.58 545.71 226.55 546.38 219.99 551.82 216.13 556.45 208.75 555.54 203.96 560.41 193.97 568.29 184.97 573.06 182.68 576.8 174.42 577.14 166.88 582.25 158.13 591.68 152.96 600.66 138.5 600.92 138.3 608.04 132.87 621.21 131.3 632.37 121.62 639.47 117.85 651.29 106.03 647.75 88.41 653.13 76.22 655.03 68.77 664.14 59.2 678.35 52.73 688.85 46.88 698.31 32.21 702.76 23.52 713.19 23.58 721.72 29.6 735.19 28.62 749.86 31.74 756.01 31.89 Z" stroke="#ffffff" stroke-width="0.6" fill-opacity="0.15" fill="#97c1ff" id="MAR"/>
<path d="M 1308.81 218.37 1252.64 218.37 1197.7 218.37 1140.77 218.37 1140.77 166.23 1140.77 115.87 1136.52 104.46 1140.17 95.72 1137.98 89.66 1143.1 82.86 1161.94 82.63 1175.57 86.37 1189.63 90.56 1196.19 92.76 1207.09 88.28 1212.92 84.22 1225.41 83.05 1235.48 84.84 1239.33 91.86 1242.62 87.24 1253.97 90.58 1265.01 91.38 1271.98 87.82 1279.88 108.47 1281.28 112.15 1277.31 117.84 1274.26 128.54 1270.41 135.91 1267.1 138.38 1262.38 133.81 1255.99 127.49 1245.89 107.19 1244.43 108.48 1250.3 123.42 1259 137.66 1269.7 159.71 1274.93 167.41 1279.48 175.41 1292.18 191.09 1289.37 193.56 1289.83 202.76 1306.32 215.47 1308.81 218.37 Z" stroke="#ffffff" stroke-width="0.6" fill-opacity="0.15" fill="#97c1ff" id="EGY"/>
<path d="M 1140.77 218.37 1140.77 246.65 1124.48 246.7 1124.31 252.64 1067.83 225.52 1011.35 198.41 997.05 206.15 987.03 211.42 979.07 203.64 956.66 197.53 950.45 188.67 939.27 182.09 932.65 184.68 927.62 176.78 927.08 170.72 918.71 160.39 924.33 154.48 923.1 145.57 924.9 137.82 923.87 131.37 926.37 119.81 925.6 113.23 921.02 100.73 927.92 97.45 929.15 91.46 927.64 85.6 937.37 80.14 941.73 75.6 948.63 71.54 949.43 60.66 966.07 65.54 972.01 64.32 983.84 66.68 1002.63 73.01 1009.27 85.6 1021.98 88.34 1041.94 94.27 1057.02 101.31 1063.93 97.64 1070.72 91.13 1067.42 80.28 1071.86 73.39 1082.06 66.75 1091.81 64.82 1110.97 67.72 1115.8 74.05 1121.07 74.11 1125.58 76.53 1139.65 78.19 1143.1 82.86 1137.98 89.66 1140.17 95.72 1136.52 104.46 1140.77 115.87 1140.77 166.23 1140.77 218.37 Z" stroke="#ffffff" stroke-width="0.6" fill-opacity="0.15" fill="#97c1ff" id="LBY"/>
<path d="M 1463.49 416.59 1423.48 459.09 1405.03 459.72 1392.41 469.7 1383.33 469.96 1379.45 474.42 1369.78 474.42 1364.07 469.64 1351.13 475.56 1346.95 481.46 1337.5 480.35 1334.37 478.71 1331.05 479.1 1326.57 478.96 1308.65 466.93 1298.79 466.93 1293.95 462.27 1293.95 454.32 1286.6 451.95 1278.23 436.54 1271.76 433.25 1269.28 427.59 1262.1 420.69 1253.41 419.68 1258.23 411.61 1265.75 411.26 1267.86 406.94 1267.67 394.21 1271.86 379.39 1278.57 375.42 1279.99 369.63 1286.07 358.81 1294.61 351.8 1300.37 337.85 1302.62 325.69 1319.11 328.65 1323.53 318.08 1332.13 324.51 1340.43 321.17 1343.85 324.14 1353.56 324.31 1365.88 329.98 1369.54 334.87 1375.82 339.42 1381.65 347.72 1386.49 352.31 1381.51 358.57 1376.72 365.21 1377.82 369.12 1378.05 373.43 1385.96 373.66 1389.37 372.66 1392.51 375.18 1389.42 380.2 1394.65 388 1399.87 394.82 1405.28 399.87 1451.58 416.67 1463.49 416.59 Z" stroke="#ffffff" stroke-width="0.6" fill-opacity="0.15" fill="#97c1ff" id="ETH"/>
<path d="M 1386.49 352.31 1392.55 353.54 1396.82 350.08 1400.17 354.46 1399.72 360.34 1391.64 363.73 1397.73 367.6 1392.51 375.18 1389.37 372.66 1385.96 373.66 1378.05 373.43 1377.82 369.12 1376.72 365.21 1381.51 358.57 1386.49 352.31 Z" stroke="#ffffff" stroke-width="0.6" fill-opacity="0.15" fill="#97c1ff" id="DJI"/>
<path d="M 1479.9 368.33 1479.81 368.56 1479.76 374.4 1479.76 388.68 1479.76 396.07 1473.37 404.77 1463.49 416.59 1451.58 416.67 1405.28 399.87 1399.87 394.82 1394.65 388 1389.42 380.2 1392.51 375.18 1397.73 367.6 1402.33 370.21 1405.11 376.07 1411.5 382 1418.53 382.05 1431.88 378.42 1447.29 376.74 1459.76 372.35 1466.78 371.41 1471.84 368.83 1479.9 368.33 Z" stroke="#ffffff" stroke-width="0.6" fill-opacity="0.15" fill="#97c1ff" id="SOL"/>
<path d="M 1266.85 543.37 1238 544.47 1222.48 544.29 1217.51 545.99 1209.05 550.36 1205.62 548.91 1205.74 538.24 1209.02 532.83 1209.81 521.46 1212.79 514.88 1218.21 507.49 1223.65 503.73 1228.2 498.7 1222.52 496.78 1223.38 480.23 1229.21 476.36 1238.22 479.53 1249.62 476.22 1259.58 476.25 1268.29 469.74 1275 479.57 1276.66 486.68 1282.89 502.93 1277.74 513.25 1270.77 522.63 1266.71 528.36 1266.85 543.37 Z" stroke="#ffffff" stroke-width="0.6" fill-opacity="0.15" fill="#97c1ff" id="UGA"/>
<path d="M 1217.51 545.99 1223.13 553.98 1222.31 562.31 1218.22 564.1 1210.7 563.18 1206.36 571.24 1197.76 570.13 1199.08 562.38 1201.02 561.29 1201.55 552.86 1205.62 548.91 1209.05 550.36 1217.51 545.99 Z" stroke="#ffffff" stroke-width="0.6" fill-opacity="0.15" fill="#97c1ff" id="RWA"/>
<path d="M 1223.38 480.23 1210.91 470.82 1207.55 464.77 1199.66 467.76 1193.12 466.83 1189.33 469.21 1182.97 467.49 1174.39 455.8 1172.11 451.31 1161.53 445.71 1157.95 437.21 1152.05 431.08 1142.53 423.71 1142.39 419.11 1134.64 413.38 1125.01 407.85 1129.35 406.31 1134.22 403.64 1137.86 391 1141.75 384.43 1151.96 382.49 1154.39 386.38 1161.69 394.64 1165.58 395.86 1170.68 393.43 1180.89 393.91 1182.84 396.83 1196.94 396.83 1197.43 393.91 1204.72 391.24 1206.18 387.11 1211.53 384.19 1223.44 392.45 1230.73 391 1237.78 380.78 1245.56 373.01 1244.35 364.5 1240.94 360.36 1249.45 359.63 1250.42 356.47 1256.99 357.45 1255.29 367.9 1256.99 378.11 1264.28 383.7 1265.98 388.56 1265.74 395.61 1267.7 395.89 1267.86 406.94 1265.75 411.26 1258.23 411.61 1253.41 419.68 1262.1 420.69 1269.28 427.59 1271.76 433.25 1278.23 436.54 1286.6 451.95 1277 461.28 1268.29 469.74 1259.58 476.25 1249.62 476.22 1238.22 479.53 1229.21 476.36 1223.38 480.23 Z" stroke="#ffffff" stroke-width="0.6" fill-opacity="0.15" fill="#97c1ff" id="SDS"/>
</g>
</svg>