<?xml version="1.0"?>
<svg xmlns="http://www.w3.org/2000/svg" version="1.2" baseProfile="tiny" width="2048" height="1024" viewBox="0 0 2048 1024" stroke-linecap="round" stroke-linejoin="round">
<g id="ne_110m_admin_0_countries">
<path d="M 865.35 978.31 871.12 985.28 878.63 996.54 898.15 1005.55 919.18 1009.31 912.42 1016.81 898.15 1017.57 890.49 1012.26 881.44 1011.86 865.36 1011.85 865.35 978.31 Z M 1030.69 641.6 1026.94 653.61 1022.92 669.05 1023.07 684.01 1019.81 687.36 1018.64 697.06 1017.62 704.9 1036.69 717.77 1034.63 728.12 1044.02 734.66 1043.26 742 1028.83 761.26 1006.56 769.31 976.44 772.44 959.94 770.93 963.1 779.88 960.02 791.12 962.79 798.7 953.78 803.98 938.39 806.06 923.95 800.59 918.16 804.52 920.25 819.44 930.39 823.96 938.61 819.23 943.09 827.03 929.26 831.69 917.2 841.03 914.99 856.14 911.44 864.18 897.25 864.22 885.48 871.91 881.17 883.18 895.94 894.17 910.3 897.21 905.13 910.68 887.4 919.15 877.63 936.76 863.93 942.69 857.77 949.72 862.62 965.32 872.62 974.01 866.29 973.25 852.37 970.9 816.08 968.89 809.85 960.13 810.14 948.89 800.14 949.85 794.85 944.41 793.54 928.48 805.06 921.88 809.82 912.35 808.08 904.75 816.04 891.93 821.53 872.05 819.92 863.23 826.47 860.39 824.86 854.73 817.9 851.72 822.85 845.42 816.07 839.72 812.56 822.4 818.6 819.34 816.06 801.03 819.59 785.65 823.61 772.25 832.6 766.8 828.04 752.14 827.99 738.34 839.36 728.53 839.01 715.99 847.58 701.33 847.62 687.52 843.72 684.77 836.8 658.85 846.05 643.4 844.63 628.85 850 615.21 859.84 601.12 870.43 591.78 865.94 585.89 869.08 581.05 868.6 556.02 884.96 548.62 890.11 533.01 888.29 529.25 900.8 515.68 920.46 519.34 929.28 530.18 935.14 518.1 952.27 518.72 954.7 521.94 982.31 546.44 994.59 548.73 1012.94 559.82 1028.4 565.69 1030.56 572.32 1015.77 595.15 1030.92 599.24 1047.79 601.53 1059.66 599.12 1073.29 587.61 1075.74 574.36 1083.18 571.48 1090.71 580.15 1090.41 592.14 1077.76 600.42 1067.68 606.54 1050.73 621.12 1030.69 641.6 Z" fill-rule="evenodd" stroke="#ffffff" stroke-width="0.6" fill-opacity="0.15" fill="#97c1ff" id="ARG"/>
<path d="M 865.35 978.31 865.36 1011.85 881.44 1011.86 890.49 1012.26 885.52 1018.34 872.64 1023 865.26 1022.52 856.37 1021.31 845.47 1016.79 829.73 1014.62 810.84 1006.23 795.5 998.15 774.81 981.33 787.19 984.49 808.28 994.52 828.2 999.91 835.95 993.02 840.82 982.74 854.66 976.54 865.35 978.31 Z M 850.99 451.82 858.35 462.03 860.35 472.87 868.23 479.23 863.5 493.76 871.57 510.6 877.45 531.31 888.29 529.25 890.11 533.01 884.96 548.62 868.6 556.02 869.08 581.05 865.94 585.89 870.43 591.78 859.84 601.12 850 615.21 844.63 628.85 846.05 643.4 836.8 658.85 843.72 684.77 847.62 687.52 847.58 701.33 839.01 715.99 839.36 728.53 827.99 738.34 828.04 752.14 832.6 766.8 823.61 772.25 819.59 785.65 816.06 801.03 818.6 819.34 812.56 822.4 816.07 839.72 822.85 845.42 817.9 851.72 824.86 854.73 826.47 860.39 819.92 863.23 821.53 872.05 816.04 891.93 808.08 904.75 809.82 912.35 805.06 921.88 793.54 928.48 794.85 944.41 800.14 949.85 810.14 948.89 809.85 960.13 816.08 968.89 852.37 970.9 866.29 973.25 852.93 973.14 845.69 976.83 832.14 982.26 829.72 996.29 823.36 996.64 806.42 991.76 789.23 981.3 770.54 972.7 765.84 963.19 770.09 954.39 762.54 944.4 760.61 918.8 767 904.35 782.86 892.75 760.06 888.37 774.37 875.1 779.48 850.15 796.17 855.44 804.02 824.33 793.94 820.34 789.25 839.08 779.78 836.97 784.49 815.49 789.61 787.66 796.51 777.4 792.19 762.74 790.95 745.82 797.28 745.34 806.49 721.08 816.88 697.06 823.23 674.68 819.77 652.17 824.26 639.78 822.46 621.25 831.24 602.91 833.95 573.86 838.77 542.66 843.47 509.09 842.37 484.5 839.24 463.35 846.96 459.52 850.99 451.82 Z" fill-rule="evenodd" stroke="#ffffff" stroke-width="0.6" fill-opacity="0.15" fill="#97c1ff" id="CHL"/>
<path d="M 977 966.5 995.02 957.49 1007.79 961.25 1016.8 955.24 1028.81 962 1024.31 967.25 1004.03 971.76 997.27 966.5 984.51 973.26 977 966.5 Z" stroke="#ffffff" stroke-width="0.6" fill-opacity="0.15" fill="#97c1ff" id="FLK"/>
<path d="M 1030.69 641.6 1040.44 639.99 1055.5 651.61 1061.08 651.17 1076.54 660.79 1088.32 669.09 1097 679.31 1090.38 686.44 1094.54 694.94 1088.04 704.38 1071.08 712.73 1059.99 709.73 1051.86 711.33 1037.98 704.89 1027.79 705.37 1018.64 697.06 1019.81 687.36 1023.07 684.01 1022.92 669.05 1026.94 653.61 1030.69 641.6 Z" stroke="#ffffff" stroke-width="0.6" fill-opacity="0.15" fill="#97c1ff" id="URY"/>
<path d="M 1094.54 694.94 1090.38 686.44 1097 679.31 1088.32 669.09 1076.54 660.79 1061.08 651.17 1055.5 651.61 1040.44 639.99 1030.69 641.6 1050.73 621.12 1067.68 606.54 1077.76 600.42 1090.41 592.14 1090.71 580.15 1083.18 571.48 1075.74 574.36 1078.69 565.69 1080.72 556.81 1080.73 548.55 1075.33 545.83 1069.69 548.25 1064.1 547.59 1062.34 541.81 1060.94 528.05 1058.13 523.56 1047.99 519.49 1041.86 522.44 1026 519.55 1027 499.17 1022.56 490.82 1027.25 487.71 1025.81 479.15 1029.92 472.57 1032.59 460.74 1029.04 451.4 1020.84 447.19 1019.23 441.26 1021.44 432.59 992.64 431.97 986.87 414.48 991.25 414.23 991.05 407.75 988.12 403.37 987.46 394.69 978.74 390.23 969.29 390.38 963.08 386.02 952.92 383.04 947.01 377.43 930.2 374.95 913.89 361.5 915.09 351.43 913.25 345.66 914.85 334.4 895.19 336.94 887.28 342.58 874.15 348.67 870.8 353.21 863.07 353.54 851.9 352.27 843.43 354.86 836.6 353.13 837.6 330.32 825.28 339.17 812.02 338.78 806.34 330.77 796.38 329.9 799.55 323.45 791.2 314.31 784.95 300.79 788.92 298.04 788.9 291.7 797.98 287.36 796.48 279.24 800.31 274.02 801.4 267.01 818.58 256.79 830.89 253.9 832.9 251.64 846.43 252.34 853.18 211.16 853.54 204.65 851.19 196.05 844.53 190.57 844.6 179.66 853.06 177.18 856.06 178.74 856.57 172.99 847.77 171.43 847.58 162.04 876.85 162.37 881.81 157.2 885.99 161.96 888.91 170.82 891.75 168.97 900.02 176.91 911.69 175.94 914.6 171.34 925.77 167.83 931.95 165.37 933.7 159.01 944.43 154.74 943.61 151.58 930.89 150.29 928.81 140.83 929.41 130.76 922.69 126.87 925.51 125.49 936.62 127.41 948.57 131.16 952.9 127.61 963.7 125.28 980.5 119.66 985.99 113.93 984 109.69 991.81 109.03 995.31 112.49 993.35 119.08 998.51 121.36 1001.96 128.33 997.79 133.63 995.4 146.41 999.25 154 1000.34 160.95 1009.58 168 1016.95 168.75 1018.61 165.8 1023.35 165.15 1030.15 162.52 1035.03 158.53 1043.34 159.8 1046.99 159.26 1055.16 160.49 1056.51 157.42 1053.99 154.44 1055.5 150.09 1061.56 151.42 1068.65 149.89 1077.25 153.07 1083.81 156.17 1088.46 152.1 1091.82 152.72 1093.87 156.95 1101.06 155.88 1106.81 150.17 1111.42 139.11 1120.31 125.37 1125.43 124.66 1129.14 132.97 1137.56 159.23 1145.6 161.71 1146 172.08 1134.71 184.44 1139.38 188.97 1165.92 191.33 1166.47 206.38 1177.87 196.53 1196.77 201.92 1221.72 211.1 1229.05 219.9 1226.58 228.21 1244.05 223.58 1273.28 231.52 1295.71 230.94 1317.91 243.37 1337.1 260.19 1348.66 264.53 1361.51 265.13 1366.95 269.87 1372.05 288.99 1374.54 298.07 1368.56 322.9 1360.92 332.71 1339.75 353.61 1330.18 370.58 1319.06 383.6 1315.31 383.9 1311.11 394.95 1312.18 423.09 1307.99 446.24 1306.4 456.14 1301.65 462.06 1298.98 482.14 1283.76 501.75 1281.2 517.26 1269.05 523.77 1265.53 532.77 1249.21 532.73 1225.59 538.5 1215.01 545.18 1198.19 549.57 1180.52 561.53 1167.8 576.43 1165.62 587.64 1168.11 595.93 1165.31 611.11 1161.9 618.43 1151.4 626.7 1134.74 653.13 1121.53 665.05 1111.32 672.07 1104.47 686.36 1094.54 694.94 Z" stroke="#ffffff" stroke-width="0.6" fill-opacity="0.15" fill="#97c1ff" id="BRA"/>
<path d="M 851.9 352.27 863.07 353.54 870.8 353.21 874.15 348.67 887.28 342.58 895.19 336.94 914.85 334.4 913.25 345.66 915.09 351.43 913.89 361.5 930.2 374.95 947.01 377.43 952.92 383.04 963.08 386.02 969.29 390.38 978.74 390.23 987.46 394.69 988.12 403.37 991.05 407.75 991.25 414.23 986.87 414.48 992.64 431.97 1021.44 432.59 1019.23 441.26 1020.84 447.19 1029.04 451.4 1032.59 460.74 1029.92 472.57 1025.81 479.15 1027.25 487.71 1022.56 490.82 1022.3 486.19 1008.31 478.5 994.37 478.29 968.19 482.66 960.99 495.88 960.61 503.96 954.7 521.94 952.27 518.72 935.14 518.1 929.28 530.18 920.46 519.34 900.8 515.68 888.29 529.25 877.45 531.31 871.57 510.6 863.5 493.76 868.23 479.23 860.35 472.87 858.35 462.03 850.99 451.82 860.46 435.61 854 422.98 857.45 417.93 854.75 412.37 860.62 404.86 860.92 392.08 861.66 381.53 864.88 376.44 851.9 352.27 Z" stroke="#ffffff" stroke-width="0.6" fill-opacity="0.15" fill="#97c1ff" id="BOL"/>
<path d="M 846.43 252.34 832.9 251.64 830.89 253.9 818.58 256.79 801.4 267.01 800.31 274.02 796.48 279.24 797.98 287.36 788.9 291.7 788.92 298.04 784.95 300.79 791.2 314.31 799.55 323.45 796.38 329.9 806.34 330.77 812.02 338.78 825.28 339.17 837.6 330.32 836.6 353.13 843.43 354.86 851.9 352.27 864.88 376.44 861.66 381.53 860.92 392.08 860.62 404.86 854.75 412.37 857.45 417.93 854 422.98 860.46 435.61 850.99 451.82 846.96 459.52 839.24 463.35 824.18 454.73 822.88 448.56 793.1 433.48 766.17 417.06 754.59 407.8 748.36 395.39 750.83 391.07 738.11 371.36 723.3 343.65 709.11 313.74 702.97 306.9 698.25 295.84 686.58 286.04 675.88 279.96 680.74 273.25 673.46 258.93 678.13 248.41 690.11 238.93 691.89 245.18 687.6 248.76 688.01 254.26 694.22 253.06 700.28 254.69 706.59 262.27 715.08 256.09 717.92 245.96 727.12 232.89 745.18 226.97 761.56 211.24 766.23 201.48 764.14 190.07 768.14 188.65 778.13 195.76 782.92 202.85 789.88 206.72 798.72 222.47 809.91 224.35 818.18 220.38 823.6 222.98 832.62 221.69 844.12 228.72 834.43 244 838.92 244.36 846.43 252.34 Z" stroke="#ffffff" stroke-width="0.6" fill-opacity="0.15" fill="#97c1ff" id="PER"/>
<path d="M 891.75 168.97 888.91 170.82 885.99 161.96 881.81 157.2 876.85 162.37 847.58 162.04 847.77 171.43 856.57 172.99 856.06 178.74 853.06 177.18 844.6 179.66 844.53 190.57 851.19 196.05 853.54 204.65 853.18 211.16 846.43 252.34 838.92 244.36 834.43 244 844.12 228.72 832.62 221.69 823.6 222.98 818.18 220.38 809.91 224.35 798.72 222.47 789.88 206.72 782.92 202.85 778.13 195.76 768.14 188.65 764.14 190.07 757.71 186.52 750.33 181.54 746.07 183.93 733.32 181.85 729.66 175.39 726.86 175.63 711.84 167.05 709.8 162.39 715.41 161.26 714.74 153.74 718.27 148.3 725.72 147.29 732.04 137.85 737.79 129.97 732.25 126.4 735.09 117.68 731.7 103.94 734.92 100 732.55 87.3 726.47 79.3 728.39 72 733.23 73.08 736.06 68.61 732.58 59.77 734.4 57.57 742.16 58.05 753.43 47.56 759.61 45.97 759.76 41 762.53 28.31 771.14 21.34 780.6 21.05 781.8 17.92 793.55 19.18 805.37 11.59 811.22 8.24 818.49 1 823.81 1.92 827.75 5.87 824.84 10.93 815.19 13.44 811.38 20.95 805.57 25.26 801.2 30.84 799.37 41.56 795.2 50.34 802.95 51.35 804.88 58.25 808.19 61.56 809.38 67.6 807.59 73.16 808.12 76.3 811.82 77.55 815.4 82.79 834.71 81.34 843.43 83.26 854 96.18 860.07 94.57 870.89 95.38 879.45 93.66 884.76 96.25 882.06 104.33 878.71 109.38 877.53 120.15 880.55 130.13 884.82 134.59 885.34 137.95 877.73 145.43 883.18 148.74 887.17 153.99 891.75 168.97 Z" stroke="#ffffff" stroke-width="0.6" fill-opacity="0.15" fill="#97c1ff" id="COL"/>
<path d="M 984 109.69 985.99 113.93 980.5 119.66 963.7 125.28 952.9 127.61 948.57 131.16 936.62 127.41 925.51 125.49 922.69 126.87 929.41 130.76 928.81 140.83 930.89 150.29 943.61 151.58 944.43 154.74 933.7 159.01 931.95 165.37 925.77 167.83 914.6 171.34 911.69 175.94 900.02 176.91 891.75 168.97 887.17 153.99 883.18 148.74 877.73 145.43 885.34 137.95 884.82 134.59 880.55 130.13 877.53 120.15 878.71 109.38 882.06 104.33 884.76 96.25 879.45 93.66 870.89 95.38 860.07 94.57 854 96.18 843.43 83.26 834.71 81.34 815.4 82.79 811.82 77.55 808.12 76.3 807.59 73.16 809.38 67.6 808.19 61.56 804.88 58.25 802.95 51.35 795.2 50.34 799.37 41.56 801.2 30.84 805.57 25.26 811.38 20.95 815.19 13.44 824.84 10.93 824.41 14.48 815.59 16.23 820.49 23.04 820.31 30.9 813.68 39.62 819.37 51.54 825.84 50.56 829.22 39.71 824.56 34.42 823.8 23.05 842.5 16.95 840.42 9.87 845.69 5.13 851.08 15.68 861.61 15.93 871.37 24.3 871.96 29.27 885.44 29.41 901.49 27.86 910.09 34.59 921.57 36.45 930 31.75 930.17 27.97 948.77 27.07 966.77 26.86 954.02 31.29 959.15 38.38 971.16 39.51 982.55 46.9 984.94 58.93 992.77 58.59 998.65 62.13 986.75 70.95 985.44 76.43 990.58 82 986.85 84.81 977.61 87.22 977.91 94.16 973.84 98.29 984 109.69 Z" stroke="#ffffff" stroke-width="0.6" fill-opacity="0.15" fill="#97c1ff" id="VEN"/>
<path d="M 1046.99 159.26 1043.34 159.8 1035.03 158.53 1030.15 162.52 1023.35 165.15 1018.61 165.8 1016.95 168.75 1009.58 168 1000.34 160.95 999.25 154 995.4 146.41 997.79 133.63 1001.96 128.33 998.51 121.36 993.35 119.08 995.31 112.49 991.81 109.03 984 109.69 973.84 98.29 977.91 94.16 977.61 87.22 986.85 84.81 990.58 82 985.44 76.43 986.75 70.95 998.65 62.13 1008.51 67.65 1017.8 77.44 1018.23 85.17 1023.89 85.53 1031.93 92.85 1037.86 98.08 1035.46 111.59 1026.35 115.51 1027.16 119.05 1024.39 126.8 1031.04 137.71 1035.85 137.73 1037.82 146.21 1046.99 159.26 Z" stroke="#ffffff" stroke-width="0.6" fill-opacity="0.15" fill="#97c1ff" id="GUY"/>
<path d="M 1077.25 153.07 1068.65 149.89 1061.56 151.42 1055.5 150.09 1053.99 154.44 1056.51 157.42 1055.16 160.49 1046.99 159.26 1037.82 146.21 1035.85 137.73 1031.04 137.71 1024.39 126.8 1027.16 119.05 1026.35 115.51 1035.46 111.59 1037.86 98.08 1055.86 101.09 1057.47 98.38 1069.61 97.3 1085.76 101.34 1077.94 114.25 1079.13 124.52 1085.03 133.42 1082.4 139.88 1081.08 146.75 1077.25 153.07 Z" stroke="#ffffff" stroke-width="0.6" fill-opacity="0.15" fill="#97c1ff" id="SUR"/>
<path d="M 764.14 190.07 766.23 201.48 761.56 211.24 745.18 226.97 727.12 232.89 717.92 245.96 715.08 256.09 706.59 262.27 700.28 254.69 694.22 253.06 688.01 254.26 687.6 248.76 691.89 245.18 690.11 238.93 698.1 227.7 694.85 221.14 689.11 228.12 680.12 221.54 683.16 217.3 680.63 203.67 685.89 201.41 688.65 192.05 694.34 182.38 693.29 176.25 701.52 173.03 711.84 167.05 726.86 175.63 729.66 175.39 733.32 181.85 746.07 183.93 750.33 181.54 757.71 186.52 764.14 190.07 Z" stroke="#ffffff" stroke-width="0.6" fill-opacity="0.15" fill="#97c1ff" id="ECU"/>
<path d="M 1022.56 490.82 1027 499.17 1026 519.55 1041.86 522.44 1047.99 519.49 1058.13 523.56 1060.94 528.05 1062.34 541.81 1064.1 547.59 1069.69 548.25 1075.33 545.83 1080.73 548.55 1080.72 556.81 1078.69 565.69 1075.74 574.36 1073.29 587.61 1059.66 599.12 1047.79 601.53 1030.92 599.24 1015.77 595.15 1030.56 572.32 1028.4 565.69 1012.94 559.82 994.59 548.73 982.31 546.44 954.7 521.94 960.61 503.96 960.99 495.88 968.19 482.66 994.37 478.29 1008.31 478.5 1022.3 486.19 1022.56 490.82 Z" stroke="#ffffff" stroke-width="0.6" fill-opacity="0.15" fill="#97c1ff" id="PRY"/>
</g>
</svg>