<?xml version="1.0"?>
<svg xmlns="http://www.w3.org/2000/svg" version="1.2" baseProfile="tiny" width="2048" height="1024" viewBox="0 0 2048 1024" stroke-linecap="round" stroke-linejoin="round">
<g id="ne_110m_admin_0_countries">
<path d="M 1048.35 96.92 1036.52 107.27 1023.61 108.72 1022.87 124.31 1014.22 131.33 983.39 126.22 972.17 154.05 964.21 157.51 933.42 163.72 947.41 190.72 936.75 194.77 937.99 203.63 928.41 201.35 920.61 195.76 897.54 194.14 871.77 193.71 866.12 195.42 843.98 188.89 835.16 192.11 832.74 201.29 807.17 195.93 796.94 198.12 793.46 204.93 784.54 207.81 764.04 218.64 757.24 229.77 751.45 229.87 747.19 222.5 727.42 222 724.25 209.26 716.68 209.15 717.84 193.56 699.23 182.21 672.57 183.42 654.34 185.68 639.5 171.67 626.78 165.79 602.68 154.66 599.78 153.32 559.76 162.5 560.37 219.82 552.4 220.58 541.52 208.39 531.01 204.03 513.37 207.27 506.5 212.44 505.63 208.65 509.45 202.17 506.48 196.76 488.47 191.46 481.45 177.5 472.87 173.57 472.35 168.5 487.47 169.98 488.07 158.61 501.29 156.09 514.87 158.41 517.67 143.24 514.9 133.63 499.34 134.38 486.13 130.59 468.13 137.43 453.63 140.68 445.73 138.17 447.31 130.17 437.4 119.79 425.87 120.22 412.67 109.68 421.64 97.89 417.1 94.72 429.51 77.64 445.49 86.66 447.43 75.31 479.52 58.4 503.8 58 538.06 68.76 556.47 75.05 572.96 68.49 597.61 68.18 617.49 76.23 622 71.62 643.84 72.29 647.73 64.93 622.54 54.24 637.46 46.67 634.55 42.43 649.47 38.39 638.25 27.74 645.38 22.44 703.55 17.03 711.14 13.19 750.04 7.45 764.01 1 791.95 4.35 796.84 20.46 813.07 16.68 833.04 21.98 831.75 30.46 846.66 29.58 885.62 14.91 879.93 19.78 899.76 31.79 934.5 71.27 942.78 63.13 964.19 72.09 986.53 68.09 995.12 70.89 1002.6 79.87 1013.47 82.89 1020.08 89.49 1040.11 87.41 1048.35 96.92 Z" stroke="#ffffff" stroke-width="0.6" fill-opacity="0.15" fill="#97c1ff" id="KAZ"/>
<path d="M 560.37 219.82 559.76 162.5 599.78 153.32 602.68 154.66 626.78 165.79 639.5 171.67 654.34 185.68 672.57 183.42 699.23 182.21 717.84 193.56 716.68 209.15 724.25 209.26 727.42 222 747.19 222.5 751.45 229.87 757.24 229.77 764.04 218.64 784.54 207.81 793.46 204.93 798.07 206.46 785.03 216.53 796.5 222.38 807.57 218.51 825.99 226.7 806.09 237.89 794.26 236.36 787.85 236.76 785.62 232.44 788.86 225.24 768.07 228.85 763.13 238.82 755.75 247.41 742.77 246.68 738.74 253.53 750.14 257.24 753.5 268.81 744.76 284.54 733.04 281.26 724.38 281.16 724.81 271.64 704.13 264.99 687.87 257.38 677.73 250.06 659.96 239.32 652.31 223.3 647.1 220.48 630.29 221.19 624.34 218.01 622.68 205.6 601.74 197.39 588.64 206.42 575.36 211.78 577.91 219.61 560.37 219.82 Z" stroke="#ffffff" stroke-width="0.6" fill-opacity="0.15" fill="#97c1ff" id="UZB"/>
<path d="M 1882.18 902.37 1882.45 953.03 1882.71 1003.69 1868.87 990.93 1853.08 987.81 1849.25 992.24 1829.55 992.71 1836.15 980.06 1845.94 975.75 1841.89 958.84 1834.42 945.79 1804.29 932.63 1791.47 931.33 1768.13 916.97 1763.54 924.52 1757.57 925.89 1754.04 920.19 1753.99 913.44 1742.12 905.8 1758.86 900.2 1769.95 900.5 1768.64 896.38 1745.89 896.35 1739.73 887.09 1725.84 884.22 1719.26 876.53 1740.22 872.77 1748.19 867.7 1773.14 874.08 1775.6 879.86 1779.94 905 1796.03 914.31 1809.02 897.82 1826.85 888.44 1840.67 888.42 1853.97 893.84 1865.5 899.4 1882.18 902.37 Z M 1632.98 1000.19 1634.55 1003.26 1634.84 1007.97 1624.7 1019.58 1611.39 1023 1609.52 1021.13 1610.92 1015.85 1617.61 1006.37 1632.98 1000.19 Z M 1776.63 969.14 1775.12 957.44 1777.88 951.85 1781.13 946.6 1784.67 951.15 1784.63 958.56 1776.63 969.14 Z M 1522.82 797.64 1513.97 811.68 1525.4 826.39 1522.72 833.55 1540.14 847.93 1521.72 849.76 1516.54 860.36 1517.21 874.45 1502.27 885.08 1501.86 900.56 1495.86 924.33 1493.57 918.8 1475.91 925.8 1469.75 916.3 1458.67 915.42 1450.92 910.44 1432.44 916.03 1426.77 908.5 1416.59 909.36 1403.77 907.56 1401.39 886.72 1393.64 882.4 1386.17 869.1 1384.01 855.5 1385.82 841.1 1395.06 830.77 1397.65 841.15 1408.28 849.94 1418.31 846.78 1428.23 847.9 1437.29 840.04 1444.75 838.67 1459.45 843.03 1472.13 839.72 1480.1 818.1 1486.08 812.69 1491.47 795.01 1509.34 795.02 1522.82 797.64 Z M 1701.41 905.51 1718.51 910.05 1724.16 921.93 1711.04 915.53 1698.06 914.23 1689.28 915.25 1678.53 914.71 1682.21 906.16 1701.41 905.51 Z M 1662.61 920.89 1651.87 918.03 1648.84 911.35 1664.56 910.6 1668.43 915.73 1662.61 920.89 Z M 1679.05 828.15 1680.16 836.64 1689.34 838 1690.8 844.35 1689.98 857.94 1681.97 856.42 1679.6 865.87 1686 874.08 1681.65 875.95 1675.38 866.1 1670.76 846.23 1673.89 833.81 1679.05 828.15 Z M 1601.25 848.35 1619.12 847.7 1634.49 836.41 1637.2 839.88 1624.71 855.3 1613.03 858.29 1598.07 855.25 1572.17 856.03 1558.58 858.27 1556.37 870.03 1570.29 883.86 1578.68 876.82 1607.67 871.53 1606.39 878.69 1599.62 876.43 1592.87 885.53 1579.18 891.56 1593.89 911.48 1591.06 916.82 1605.03 934.76 1604.9 944.97 1596.6 949.54 1590.5 944.08 1598.01 931.35 1582.76 937.37 1578.89 933.07 1580.91 927.06 1569.7 917.95 1570.85 902.8 1560.49 907.53 1561.8 925.65 1562.43 947.89 1552.58 950.15 1545.9 945.58 1550.35 931.28 1547.95 916.28 1541.41 916.16 1536.58 905.51 1543.01 895.33 1545.22 882.99 1553.03 859.56 1556.29 853.15 1569.51 841.6 1581.65 846.19 1601.25 848.35 Z M 1560.32 1021.42 1539.69 1010.53 1554.19 1007.48 1562.36 1012.21 1567.79 1016.93 1566.86 1021.13 1560.32 1021.42 Z M 1576.6 994.66 1586.94 993.47 1600.87 987.78 1598.6 996.42 1575.24 1000.83 1554.56 998.91 1554.51 993.23 1566.85 990 1576.6 994.66 Z M 1528.7 991.95 1538.3 990.68 1542.16 997.29 1524.19 1000.41 1513.42 1002.49 1505.06 1002.37 1510.41 993.42 1518.93 993.3 1523.1 987.8 1528.7 991.95 Z M 1376.77 961.78 1378.89 967.31 1408.67 968.86 1412.1 962.46 1440.94 969.93 1446.59 980.01 1469.91 982.84 1488.98 992.08 1471.25 998 1454.15 991.74 1440.08 992.16 1423.95 991.01 1409.4 988.22 1391.39 982.28 1379.98 980.74 1373.52 982.69 1345.17 976.29 1342.47 969.6 1328.25 968.46 1338.91 953.61 1357.78 954.52 1370.32 960.6 1376.77 961.78 Z M 1312.77 878.82 1315.41 889.66 1320.82 898.34 1332.24 899.71 1339.8 909.55 1335.9 928.88 1335.28 952.93 1318.06 953.25 1304.97 940.26 1285.01 927.56 1278.36 918.14 1266.59 905.48 1258.87 893.83 1247.05 872.07 1233.4 859.11 1228.83 845.74 1223.1 833.61 1209.08 823.82 1200.96 810.52 1189.25 801.81 1173.04 784.69 1171.67 776.77 1181.68 777.4 1205.74 780.4 1219.49 795.6 1231.51 806.14 1240.09 812.61 1254.81 829.32 1270.62 829.56 1283.68 840.21 1292.67 853.23 1304.51 860.33 1298.28 873.02 1307.19 878.42 1312.77 878.82 Z" fill-rule="evenodd" stroke="#ffffff" stroke-width="0.6" fill-opacity="0.15" fill="#97c1ff" id="IDN"/>
<path d="M 1632.98 1000.19 1634.8 996.53 1648.19 993.03 1659.03 992.51 1663.89 990.56 1669.77 992.49 1664.06 996.7 1647.86 1003.51 1634.84 1007.97 1634.55 1003.26 1632.98 1000.19 Z" stroke="#ffffff" stroke-width="0.6" fill-opacity="0.15" fill="#97c1ff" id="TLS"/>
<path d="M 245.62 353.5 242.91 358.4 237.29 356.24 234.03 366.59 237.94 368.34 233.97 370.48 233.3 374.57 240.61 372.46 240.97 378.51 233.22 403.36 231.68 399.32 223.01 376.66 227.53 371.53 226.47 370.65 230.58 363.39 233.73 351.66 235.96 347.72 236.39 347.56 241.59 347.59 243.02 344.87 247.19 344.66 247.43 351.03 245.32 353.39 245.62 353.5 Z" stroke="#ffffff" stroke-width="0.6" fill-opacity="0.15" fill="#97c1ff" id="ISR"/>
<path d="M 247.19 344.66 243.02 344.87 241.59 347.59 236.39 347.56 241.92 334.9 249.65 323.95 249.95 323.41 256.94 324.2 259.48 330.29 251 336.15 247.19 344.66 Z" stroke="#ffffff" stroke-width="0.6" fill-opacity="0.15" fill="#97c1ff" id="LBN"/>
<path d="M 240.61 372.46 233.3 374.57 233.97 370.48 237.94 368.34 234.03 366.59 237.29 356.24 242.91 358.4 242.9 367.9 240.61 372.46 Z" stroke="#ffffff" stroke-width="0.6" fill-opacity="0.15" fill="#97c1ff" id="PSX"/>
<path d="M 242.91 358.4 245.62 353.5 262.94 359.66 293.38 343.09 299.64 362.02 296.68 364.36 265.55 372.16 281.04 387.71 275.9 390.35 273.34 395.55 261.48 397.7 257.76 403.3 251.04 408.08 233.74 405.61 233.22 403.36 240.97 378.51 240.61 372.46 242.9 367.9 242.91 358.4 Z" stroke="#ffffff" stroke-width="0.6" fill-opacity="0.15" fill="#97c1ff" id="JOR"/>
<path d="M 492.15 485.06 494.92 484.31 495.49 488.57 507.66 486.12 520.51 486.53 529.9 486.99 540.55 476.48 552.15 466.51 561.97 456.93 564.93 462.23 567.04 474.5 559.1 474.56 557.82 484.69 560.58 486.85 553.54 489.91 553.5 496.26 548.97 502.7 548.56 508.96 545.43 512.24 498.7 504.41 492.75 488.66 492.15 485.06 Z" stroke="#ffffff" stroke-width="0.6" fill-opacity="0.15" fill="#97c1ff" id="ARE"/>
<path d="M 480.19 477.15 479.16 465.84 483.35 457.68 487.6 456.01 492.3 460.88 492.58 469.98 489.2 479.13 484.89 480.23 480.19 477.15 Z" stroke="#ffffff" stroke-width="0.6" fill-opacity="0.15" fill="#97c1ff" id="QAT"/>
<path d="M 436.11 395.99 439.36 402.85 437.97 406.39 442.98 418.12 431.98 418.52 428.11 411.12 414.26 409.62 425.67 394.69 436.11 395.99 Z" stroke="#ffffff" stroke-width="0.6" fill-opacity="0.15" fill="#97c1ff" id="KWT"/>
<path d="M 299.64 362.02 293.38 343.09 327.79 326.91 333.66 308.12 332.2 296.76 340.71 292.92 348.67 283.22 355.35 280.81 373.43 282.81 378.89 286.77 386.34 284.15 396.41 302.69 406.61 307.36 407.78 316.44 399.96 321.8 396.35 333.93 407.12 348.71 426.17 357.23 434.17 369.04 431.62 380.3 436.58 380.3 436.74 388.58 445.34 396.75 436.11 395.99 425.67 394.69 414.26 409.62 385.36 408.37 341.53 377.11 318.37 366.23 299.64 362.02 Z" stroke="#ffffff" stroke-width="0.6" fill-opacity="0.15" fill="#97c1ff" id="IRQ"/>
<path d="M 548.56 508.96 548.97 502.7 553.5 496.26 553.54 489.91 560.58 486.85 557.82 484.69 559.1 474.56 567.04 474.5 574.01 485.12 582.68 490.77 594.09 492.8 603.29 495.63 610.31 504.54 614.5 509.7 620.06 511.67 620.03 515.14 614.38 524.41 611.89 528.77 605.34 533.74 599.54 544.39 592.49 543.57 589.26 547.28 586.76 555.16 588.67 565.55 587.21 567.46 580.05 567.41 570.35 573.22 568.83 580.79 565.28 584.07 555.61 583.95 549.52 587.86 549.6 594.14 542.07 598.46 533.5 596.99 523.1 602.24 515.92 603.12 510.85 592.26 498.69 566.6 545.32 551.06 555.69 519.97 548.56 508.96 Z M 564.93 462.23 561.97 456.93 566.5 451.63 568.42 452.98 566.95 459.41 564.93 462.23 Z" fill-rule="evenodd" stroke="#ffffff" stroke-width="0.6" fill-opacity="0.15" fill="#97c1ff" id="OMN"/>
<path d="M 1285.02 672.52 1281.34 653.74 1291.3 640.82 1311.4 637.85 1325.97 640.08 1338.79 646.18 1345.83 635.46 1359.61 641.18 1363.21 651.55 1361.29 670.18 1335.17 682.14 1341.99 691.56 1325.67 692.68 1312.22 698.94 1299.21 696.67 1292.89 688.57 1285.02 672.52 Z" stroke="#ffffff" stroke-width="0.6" fill-opacity="0.15" fill="#97c1ff" id="KHM"/>
<path d="M 1325.97 640.08 1311.4 637.85 1291.3 640.82 1281.34 653.74 1285.02 672.52 1271.07 665.38 1257.77 665.67 1260.05 653.46 1246.36 653.55 1245.13 670.65 1236.74 693.35 1231.69 707.08 1232.75 718.33 1242.88 718.82 1249.19 733.01 1251.98 746.46 1260.66 755.37 1270.07 757.17 1278.13 765.24 1273.04 771.63 1262.78 773.48 1261.56 765.5 1248.88 758.69 1246.17 761.47 1240.03 755.5 1237.37 747.8 1229.11 739.03 1221.58 731.65 1219.03 740.79 1216.08 732.16 1217.78 722.46 1222.36 707.55 1229.89 691.58 1238.43 677.08 1232.35 662.91 1232.59 655.69 1230.82 647.01 1220.45 634.66 1216.74 626.86 1222.11 623.99 1227.79 610.47 1221.43 600.21 1211.56 588.86 1204.05 575.22 1210.61 572.4 1217.7 555.59 1228.67 554.9 1237.74 548.16 1246.64 544.56 1253.37 549.36 1254.27 558.7 1264.77 559.41 1260.95 575.79 1261.31 589.73 1277.7 580.45 1282.35 583.19 1291.46 582.74 1294.59 577.34 1306.34 578.4 1318.17 591.03 1319.14 606.37 1331.72 619.92 1331.03 633.07 1325.97 640.08 Z" stroke="#ffffff" stroke-width="0.6" fill-opacity="0.15" fill="#97c1ff" id="THA"/>
<path d="M 1359.61 641.18 1345.83 635.46 1338.79 646.18 1325.97 640.08 1331.03 633.07 1331.72 619.92 1319.14 606.37 1318.17 591.03 1306.34 578.4 1294.59 577.34 1291.46 582.74 1282.35 583.19 1277.7 580.45 1261.31 589.73 1260.95 575.79 1264.77 559.41 1254.27 558.7 1253.37 549.36 1246.64 544.56 1249.96 538.84 1263.18 528.73 1264.58 532.38 1272.87 532.8 1270.52 515.02 1278.58 512.74 1287.67 525.02 1294.65 539.14 1313.78 539.26 1319.81 552.82 1309.87 556.89 1305.41 562.48 1324.04 571.78 1336.96 590.15 1346.75 603.84 1358.52 614.66 1362.43 625.64 1359.61 641.18 Z" stroke="#ffffff" stroke-width="0.6" fill-opacity="0.15" fill="#97c1ff" id="LAO"/>
<path d="M 1246.64 544.56 1237.74 548.16 1228.67 554.9 1217.7 555.59 1210.61 572.4 1204.05 575.22 1211.56 588.86 1221.43 600.21 1227.79 610.47 1222.11 623.99 1216.74 626.86 1220.45 634.66 1230.82 647.01 1232.59 655.69 1232.35 662.91 1238.43 677.08 1229.89 691.58 1222.36 707.55 1220.86 696.01 1225.64 684.1 1220.41 674.9 1221.67 657.97 1215.36 649.92 1210.3 631.31 1207.49 611.67 1200.77 598.8 1190.52 606.6 1172.86 617.68 1164.14 616.29 1154.51 612.65 1159.87 593.38 1156.62 578.83 1144.44 560.91 1146.34 555.3 1137.24 553.31 1126.21 540.63 1125.2 528.12 1130.62 530.48 1130.94 519.33 1138.61 515.64 1136.97 509.04 1140.48 503.75 1141.08 487.66 1153.23 491.2 1160.16 478.38 1160.95 470.81 1169.53 457.77 1169.06 448.87 1189.18 438.13 1200.29 440.94 1199.02 431.38 1204.47 428.53 1203.29 422.63 1212.38 421.48 1217.58 430.63 1224.36 434.34 1224.82 446.23 1224.2 459.05 1209.47 472.03 1207.61 490.47 1224.02 487.9 1227.72 502.21 1237.57 505.22 1233.04 518.13 1244.59 523.96 1251.32 526.83 1262.72 522.3 1263.18 528.73 1249.96 538.84 1246.64 544.56 Z" stroke="#ffffff" stroke-width="0.6" fill-opacity="0.15" fill="#97c1ff" id="MMR"/>
<path d="M 1312.22 698.94 1325.67 692.68 1341.99 691.56 1335.17 682.14 1361.29 670.18 1363.21 651.55 1359.61 641.18 1362.43 625.64 1358.52 614.66 1346.75 603.84 1336.96 590.15 1324.04 571.78 1305.41 562.48 1309.87 556.89 1319.81 552.82 1313.78 539.26 1294.65 539.14 1287.67 525.02 1278.58 512.74 1286.92 508.95 1299.32 509.03 1314.43 507.24 1327.68 498.95 1335.18 504.78 1349.39 507.62 1346.93 516.58 1354.33 522.89 1369.98 526.93 1349.23 540.23 1336.27 554.91 1332.86 565.7 1344.75 582.08 1359.28 602.4 1373.39 612 1382.84 624.48 1389.96 653.25 1387.86 680.6 1374.89 690.83 1357.09 700.84 1344.41 713.8 1325.03 728.27 1319.38 718.3 1323.75 707.77 1312.22 698.94 Z" stroke="#ffffff" stroke-width="0.6" fill-opacity="0.15" fill="#97c1ff" id="VNM"/>
<path d="M 1721.14 202.93 1723.31 205.65 1717.41 204.72 1710.66 209.98 1706.02 215.27 1706.6 226.44 1698.57 229.87 1695.8 232.62 1689.94 237.21 1679.59 239.77 1672.85 243.94 1672.36 250.67 1670.54 252.39 1676.73 254.92 1685.53 261.73 1683.3 265.49 1676.68 266.52 1665.69 267.27 1659.64 274.29 1652.7 273.73 1651.72 275.14 1644.18 272.18 1642.3 275.1 1637.74 276.4 1637.2 273.47 1633.17 272.05 1628.99 269.57 1633.25 262.73 1636.91 260.9 1635.53 258.06 1639.47 249.68 1638.45 247.14 1629.38 245.44 1622.05 241.27 1634.71 231.3 1651.84 222.95 1662.52 211.92 1669.9 216.8 1683.34 217.36 1680.91 209.16 1704.92 202.47 1711.1 193.75 1721.14 202.93 Z" stroke="#ffffff" stroke-width="0.6" fill-opacity="0.15" fill="#97c1ff" id="PRK"/>
<path d="M 1651.72 275.14 1652.7 273.73 1659.64 274.29 1665.69 267.27 1676.68 266.52 1683.3 265.49 1685.53 261.73 1698.95 280.07 1702.8 290.15 1702.92 308.06 1697.06 316.6 1682.99 319.59 1670.56 326.04 1656.56 327.37 1654.82 318.9 1657.7 307.24 1650.83 291.06 1662.38 288.44 1651.72 275.14 Z" stroke="#ffffff" stroke-width="0.6" fill-opacity="0.15" fill="#97c1ff" id="KOR"/>
<path d="M 1054.44 95.64 1070.83 92.94 1100.49 79.55 1124.13 72.24 1137.65 77.01 1153.87 77.24 1164.26 84.5 1179.77 85.06 1202.25 88.97 1217.35 78.15 1211.04 69 1227.14 52.89 1244.56 59.31 1258.67 61.13 1276.95 65.13 1279.91 76.78 1301.99 83.31 1316.68 80.43 1336.35 78.4 1351.93 80.45 1367.15 87.92 1376.59 95.87 1391 95.7 1410.58 98.23 1424.87 94.38 1445.34 91.81 1468.1 80.85 1477.43 82.53 1485.56 87.74 1504.11 86.45 1496.54 98.17 1485.56 113.7 1489.56 120.05 1498.36 118.08 1513.7 120.5 1525.65 114.77 1538.12 119.73 1552.21 130.6 1550.5 136.12 1538.24 134.37 1515.66 136.43 1504.72 140.86 1493.33 151.13 1469.63 157.15 1454.14 165.41 1438.16 162.26 1429.41 160.85 1421.25 170.87 1426.22 176.84 1428.73 181.98 1417.85 187.2 1406.7 195.53 1388.53 201 1365.23 201.59 1340.12 206.98 1322.02 215.33 1315.14 210.5 1296.33 210.51 1273.34 201.07 1257.99 198.75 1237.32 200.92 1205.23 197.43 1188.09 197.79 1178.97 188.56 1171.89 174.23 1162.28 172.51 1143.5 162.82 1122.56 160.65 1104.09 157.99 1098.5 151.25 1104.48 133.09 1093.76 120.57 1071.58 114.73 1058.52 106.48 1054.44 95.64 Z" stroke="#ffffff" stroke-width="0.6" fill-opacity="0.15" fill="#97c1ff" id="MNG"/>
<path d="M 1203.29 422.63 1204.47 428.53 1199.02 431.38 1200.29 440.94 1189.18 438.13 1169.06 448.87 1169.53 457.77 1160.95 470.81 1160.16 478.38 1153.23 491.2 1141.08 487.66 1140.48 503.75 1136.97 509.04 1138.61 515.64 1130.94 519.33 1122.75 494.67 1118.46 494.72 1115.92 504.65 1107.41 496.6 1112.21 487.75 1119.16 486.85 1126.33 473.7 1117.37 471.04 1102.95 471.27 1088.16 469.14 1086.79 458.33 1079.37 457.57 1067.06 450.85 1061.56 461.39 1072.78 469.62 1063.07 475.42 1059.62 481.08 1069.18 485.25 1066.54 494.61 1071.93 506.3 1074.35 519.1 1072.12 524.78 1061.54 524.58 1042.38 527.81 1043.27 539.5 1034.98 548.7 1012.61 559.16 995.21 577.45 983.52 587.26 968.03 597.43 968.01 604.58 960.26 608.42 946.26 613.98 939 614.81 934.33 626.66 937.57 646.88 938.4 659.78 931.81 674.54 931.74 700.95 923.69 701.71 916.62 713.56 921.35 718.69 907.18 723.09 901.94 733.66 895.7 738.13 880.98 723.62 873.79 701.85 867.82 686.17 862.38 678.82 854.12 663.88 850.26 644.44 847.58 634.73 833.43 613.38 826.99 583.26 822.35 563.37 822.4 544.54 819.39 529.98 796.77 539.28 785.81 537.42 765.5 518.58 772.98 512.96 768.39 506.86 750.15 493.67 760.5 483.3 794.71 483.34 791.63 469.99 782.89 462.11 781.12 450.14 770.95 443.16 788.08 426.87 806.13 428.05 822.39 411.75 832.14 395.98 847.23 380.38 846.99 369.3 860.24 360.31 847.7 352.63 842.3 342.11 836.79 328.49 844.41 321.79 867.99 325.58 885.32 323.27 900.33 310.21 917.04 328.43 915.46 341.11 921.65 349.06 921.14 357 909.98 354.91 914.34 372.05 929.61 381.89 951.22 392.76 941.36 399.81 935.32 414.35 950.38 420.23 965.03 427.86 985.31 436.58 1006.62 438.59 1015.58 446.5 1027.59 447.98 1046.29 451.6 1059.24 451.34 1061.02 445.19 1058.97 435.31 1060.18 428.62 1069.66 425.35 1070.96 437.59 1071.29 440.71 1085.42 446.61 1095.2 444.18 1108.32 445.22 1121 444.76 1122.1 435.21 1115.77 430.25 1128.3 428.3 1142.45 416.74 1160.37 406.84 1173.41 410.66 1184.49 404.12 1191.78 413.78 1186.53 420.31 1203.29 422.63 Z" stroke="#ffffff" stroke-width="0.6" fill-opacity="0.15" fill="#97c1ff" id="IND"/>
<path d="M 1130.94 519.33 1130.62 530.48 1125.2 528.12 1126.21 540.63 1121.77 532.53 1120.88 524.61 1117.92 517.13 1111.42 508.08 1097.1 507.45 1098.52 513.86 1093.64 522.51 1087.02 519.36 1084.76 522.19 1080.36 520.49 1074.35 519.1 1071.93 506.3 1066.54 494.61 1069.18 485.25 1059.62 481.08 1063.07 475.42 1072.78 469.62 1061.56 461.39 1067.06 450.85 1079.37 457.57 1086.79 458.33 1088.16 469.14 1102.95 471.27 1117.37 471.04 1126.33 473.7 1119.16 486.85 1112.21 487.75 1107.41 496.6 1115.92 504.65 1118.46 494.72 1122.75 494.67 1130.94 519.33 Z" stroke="#ffffff" stroke-width="0.6" fill-opacity="0.15" fill="#97c1ff" id="BGD"/>
<path d="M 1115.77 430.25 1122.1 435.21 1121 444.76 1108.32 445.22 1095.2 444.18 1085.42 446.61 1071.29 440.71 1070.96 437.59 1081.24 426.03 1089.64 422.09 1100.75 425.69 1108.96 426.07 1115.77 430.25 Z" stroke="#ffffff" stroke-width="0.6" fill-opacity="0.15" fill="#97c1ff" id="BTN"/>
<path d="M 1060.18 428.62 1058.97 435.31 1061.02 445.19 1059.24 451.34 1046.29 451.6 1027.59 447.98 1015.58 446.5 1006.62 438.59 985.31 436.58 965.03 427.86 950.38 420.23 935.32 414.35 941.36 399.81 951.22 392.76 957.66 389.04 970.13 393.82 985.82 403.95 994.55 406.18 999.77 413.64 1011.85 416.71 1024.47 423.54 1042.05 427.1 1060.18 428.62 Z" stroke="#ffffff" stroke-width="0.6" fill-opacity="0.15" fill="#97c1ff" id="NPL"/>
<path d="M 900.33 310.21 885.32 323.27 867.99 325.58 844.41 321.79 836.79 328.49 842.3 342.11 847.7 352.63 860.24 360.31 846.99 369.3 847.23 380.38 832.14 395.98 822.39 411.75 806.13 428.05 788.08 426.87 770.95 443.16 781.12 450.14 782.89 462.11 791.63 469.99 794.71 483.34 760.5 483.3 750.15 493.67 738.76 489.74 734.12 478.56 722.11 466.73 693.47 469.65 668.22 469.94 646.32 472.12 652.18 454.06 674.6 446.03 673.32 438.87 665.88 436.35 665.45 422.66 650.59 415.83 644.33 406.44 636.64 398.26 662.68 406.2 678.24 403.87 687.53 405.86 690.67 402.45 701.5 403.81 721.7 397.35 722.25 384.12 730.91 375.33 742.49 375.35 744.18 371 756.06 368.98 761.81 370.42 767.89 366.05 767.03 356.72 773.63 347.34 783.53 343.4 777.42 333.12 792.2 333.6 796.48 328.01 795.83 322.03 803.57 315.5 801.79 307.77 798.12 301.18 807.2 294.41 823.89 291.15 841.73 289.34 849.63 286.47 858.68 284.73 870.16 291.98 874.76 303.92 900.33 310.21 Z" stroke="#ffffff" stroke-width="0.6" fill-opacity="0.15" fill="#97c1ff" id="PAK"/>
<path d="M 724.38 281.16 733.04 281.26 744.76 284.54 749.51 286.44 760.77 281.44 766 284.45 771.02 277.33 780.31 277.65 782.7 275.37 784.35 269.1 791.04 263.69 799.45 267.23 797.76 271.98 802.47 272.72 801.02 285.78 807.17 290.87 812.59 287.6 819.49 286.06 829.17 279.1 839.88 280.24 855.91 280.27 858.68 284.73 849.63 286.47 841.73 289.34 823.89 291.15 807.2 294.41 798.12 301.18 801.79 307.77 803.57 315.5 795.83 322.03 796.48 328.01 792.2 333.6 777.42 333.12 783.53 343.4 773.63 347.34 767.03 356.72 767.89 366.05 761.81 370.42 756.06 368.98 744.18 371 742.49 375.35 730.91 375.33 722.25 384.12 721.7 397.35 701.5 403.81 690.67 402.45 687.53 405.86 678.24 403.87 662.68 406.2 636.64 398.26 650.74 384.17 649.46 374.17 637.69 371.55 636.47 361.68 631.38 349.27 638.03 340.75 631.26 338.46 635.53 327.15 641.87 307.78 657.72 313.68 669.44 311.6 672.69 304.56 684.96 302.22 693.72 297.49 696.83 285.06 709.93 282.05 712.36 276.52 719.7 280.67 724.38 281.16 Z" stroke="#ffffff" stroke-width="0.6" fill-opacity="0.15" fill="#97c1ff" id="AFG"/>
<path d="M 744.76 284.54 753.5 268.81 750.14 257.24 738.74 253.53 742.77 246.68 755.75 247.41 763.13 238.82 768.07 228.85 788.86 225.24 785.62 232.44 787.85 236.76 794.26 236.36 788.57 241.16 771.65 238.56 770.18 247.52 787.03 246.31 806.24 251.36 835.63 249 839.57 263.39 844.68 261.82 854.12 265.36 853.58 271.41 855.91 280.27 839.88 280.24 829.17 279.1 819.49 286.06 812.59 287.6 807.17 290.87 801.02 285.78 802.47 272.72 797.76 271.98 799.45 267.23 791.04 263.69 784.35 269.1 782.7 275.37 780.31 277.65 771.02 277.33 766 284.45 760.77 281.44 749.51 286.44 744.76 284.54 Z" stroke="#ffffff" stroke-width="0.6" fill-opacity="0.15" fill="#97c1ff" id="TJK"/>
<path d="M 793.46 204.93 796.94 198.12 807.17 195.93 832.74 201.29 835.16 192.11 843.98 188.89 866.12 195.42 871.77 193.71 897.54 194.14 920.61 195.76 928.41 201.35 937.99 203.63 935.8 207.15 911.31 215.57 905.77 221.74 885.83 223.58 879.95 233.51 863.49 231.42 852.75 234.47 837.91 241.81 840.05 245.45 835.63 249 806.24 251.36 787.03 246.31 770.18 247.52 771.65 238.56 788.57 241.16 794.26 236.36 806.09 237.89 825.99 226.7 807.57 218.51 796.5 222.38 785.03 216.53 798.07 206.46 793.46 204.93 Z" stroke="#ffffff" stroke-width="0.6" fill-opacity="0.15" fill="#97c1ff" id="KGZ"/>
<path d="M 506.5 212.44 513.37 207.27 531.01 204.03 541.52 208.39 552.4 220.58 560.37 219.82 577.91 219.61 575.36 211.78 588.64 206.42 601.74 197.39 622.68 205.6 624.34 218.01 630.29 221.19 647.1 220.48 652.31 223.3 659.96 239.32 677.73 250.06 687.87 257.38 704.13 264.99 724.81 271.64 724.38 281.16 719.7 280.67 712.36 276.52 709.93 282.05 696.83 285.06 693.72 297.49 684.96 302.22 672.69 304.56 669.44 311.6 657.72 313.68 641.87 307.78 640.51 294.7 628.92 294.14 611.15 280.38 598.74 278.68 581.55 270.8 570.5 269.36 563.67 272.26 553.28 271.81 542.22 280.7 528.56 283.7 525.67 272.71 527.93 256.45 515.8 251.19 519.8 240.55 509.48 239.64 512.92 226.54 527.57 230.35 541.23 225.38 529.91 216.05 525.45 207.16 512.94 211.12 511.35 222.51 506.5 212.44 Z" stroke="#ffffff" stroke-width="0.6" fill-opacity="0.15" fill="#97c1ff" id="TKM"/>
<path d="M 445.34 396.75 436.74 388.58 436.58 380.3 431.62 380.3 434.17 369.04 426.17 357.23 407.12 348.71 396.35 333.93 399.96 321.8 407.78 316.44 406.61 307.36 396.41 302.69 386.34 284.15 377.84 271.69 380.88 266.88 376.03 249.05 386.67 244.62 389.14 250.49 396.99 257.66 407.65 259.73 413.28 259.27 431.61 247.8 437.44 246.66 442.04 251.22 436.68 258.91 446.37 267.05 450.24 266.27 455.16 277.74 469.9 280.97 480.69 288.77 502.79 291.45 527.07 287.34 528.56 283.7 542.22 280.7 553.28 271.81 563.67 272.26 570.5 269.36 581.55 270.8 598.74 278.68 611.15 280.38 628.92 294.14 640.51 294.7 641.87 307.78 635.53 327.15 631.26 338.46 638.03 340.75 631.38 349.27 636.47 361.68 637.69 371.55 649.46 374.17 650.74 384.17 636.64 398.26 644.33 406.44 650.59 415.83 665.45 422.66 665.88 436.35 673.32 438.87 674.6 446.03 652.18 454.06 646.32 472.12 617.08 467.42 600.13 463.85 582.59 461.83 575.96 442.77 568.52 440.02 556.57 442.79 540.89 450.32 521.9 445.16 506.21 433.22 491.24 428.79 480.86 414.04 469.39 393.31 461.02 395.83 451.14 390.68 445.34 396.75 Z" stroke="#ffffff" stroke-width="0.6" fill-opacity="0.15" fill="#97c1ff" id="IRN"/>
<path d="M 245.62 353.5 245.32 353.39 247.43 351.03 247.19 344.66 251 336.15 259.48 330.29 256.94 324.2 249.95 323.41 248.49 311.51 252.3 305.12 256.46 301.71 260.63 298.3 261.47 289.63 266.55 292.66 283.67 288.33 291.94 291.26 304.73 291.21 322.62 285.38 330.99 285.64 348.67 283.22 340.71 292.92 332.2 296.76 333.66 308.12 327.79 326.91 293.38 343.09 262.94 359.66 245.62 353.5 Z" stroke="#ffffff" stroke-width="0.6" fill-opacity="0.15" fill="#97c1ff" id="SYR"/>
<path d="M 413.28 259.27 407.65 259.73 401.31 250.74 401.38 248.34 394.51 248.37 389.91 244.2 386.67 244.62 380.55 240.08 368.99 236.22 370.49 228.66 367.84 223.18 389.45 220.76 392.67 224.84 398.59 227.53 395.46 231.43 403.74 236.77 399.36 241.72 405.96 245.94 412.94 248.49 413.28 259.27 Z" stroke="#ffffff" stroke-width="0.6" fill-opacity="0.15" fill="#97c1ff" id="ARM"/>
<path d="M 386.34 284.15 378.89 286.77 373.43 282.81 355.35 280.81 348.67 283.22 330.99 285.64 322.62 285.38 304.73 291.21 291.94 291.26 283.67 288.33 266.55 292.66 261.47 289.63 260.63 298.3 256.46 301.71 252.3 305.12 246.58 298.07 252.47 292.23 242.99 293.55 229.99 289.97 219.3 298.92 195.71 300.67 183.12 292.33 166.37 291.8 162.78 298.25 152.04 300.1 137.01 291.82 120.03 292.1 110.83 276.64 99.47 268.02 107.03 255.93 97.18 248.5 114.42 233.63 138.36 233.01 144.89 221.2 174.52 223.25 193.2 213.17 211.32 208.78 237.03 208.45 264.17 219.4 286.47 225.42 304.57 223.02 317.96 224.4 336.31 216.29 352.87 215.55 367.84 223.18 370.49 228.66 368.99 236.22 380.55 240.08 386.67 244.62 376.03 249.05 380.88 266.88 377.84 271.69 386.34 284.15 Z M 96.34 211.76 112.18 206.87 125.56 208.96 127.41 214.93 140.98 219.95 138.15 223.76 119.69 224.62 113.06 229.43 100.09 237.8 95.2 230.56 95.41 227.35 99.1 225.61 103.91 215.88 96.34 211.76 Z" fill-rule="evenodd" stroke="#ffffff" stroke-width="0.6" fill-opacity="0.15" fill="#97c1ff" id="TUR"/>
<path d="M 961.74 745.01 959.4 761.2 952.88 765.62 939.36 769.18 931.96 756.82 929.21 734.47 936.24 709.24 946.98 717.88 954.22 728.83 961.74 745.01 Z" stroke="#ffffff" stroke-width="0.6" fill-opacity="0.15" fill="#97c1ff" id="LKA"/>
<path d="M 1392.13 579.07 1379.39 574.26 1378.94 560.88 1386.6 553.84 1403.58 549.48 1412.52 549.85 1415.99 555.79 1409.16 562.63 1405.56 571.6 1392.13 579.07 Z M 937.99 203.63 936.75 194.77 947.41 190.72 933.42 163.72 964.21 157.51 972.17 154.05 983.39 126.22 1014.22 131.33 1022.87 124.31 1023.61 108.72 1036.52 107.27 1048.35 96.92 1054.44 95.64 1058.52 106.48 1071.58 114.73 1093.76 120.57 1104.48 133.09 1098.5 151.25 1104.09 157.99 1122.56 160.65 1143.5 162.82 1162.28 172.51 1171.89 174.23 1178.97 188.56 1188.09 197.79 1205.23 197.43 1237.32 200.92 1257.99 198.75 1273.34 201.07 1296.33 210.51 1315.14 210.5 1322.02 215.33 1340.12 206.98 1365.23 201.59 1388.53 201 1406.7 195.53 1417.85 187.2 1428.73 181.98 1426.22 176.84 1421.25 170.87 1429.41 160.85 1438.16 162.26 1454.14 165.41 1469.63 157.15 1493.33 151.13 1504.72 140.86 1515.66 136.43 1538.24 134.37 1550.5 136.12 1552.21 130.6 1538.12 119.73 1525.65 114.77 1513.7 120.5 1498.36 118.08 1489.56 120.05 1485.56 113.7 1496.54 98.17 1504.11 86.45 1522.77 92.31 1544.68 82.49 1544.54 75.65 1558.57 59.16 1567.21 54.18 1567.02 45.6 1558.49 41.9 1571.33 34.17 1590.65 31.37 1611.26 30.95 1634.52 35.57 1648.17 41.3 1657.78 56.98 1663.61 63.67 1669.02 73.21 1674.77 88.44 1701.83 93.41 1720.24 104.46 1726.53 119.07 1750.15 119.08 1763.63 112.95 1789.32 108.37 1781.15 122.36 1775.11 128.04 1769.79 145.07 1759.33 160.2 1740.47 157.44 1727.12 162.94 1731.22 176.25 1728.98 194.62 1721.04 195.03 1721.14 202.93 1711.1 193.75 1704.92 202.47 1680.91 209.16 1683.34 217.36 1669.9 216.8 1662.52 211.92 1651.84 222.95 1634.71 231.3 1622.05 241.27 1600.31 245.79 1588.87 253.06 1572.13 257.3 1580.39 250.1 1577.14 244.04 1589.45 233.59 1581.24 225.45 1567.69 230.94 1550.14 241.75 1540.56 251.78 1525.31 252.53 1517.39 259.78 1525.58 270.3 1538.3 272.85 1538.82 279.82 1551.12 284.36 1568.54 273.27 1582.34 279.32 1592.39 279.73 1594.91 287.87 1572.9 292.22 1565.64 300.61 1550.52 308.41 1542.54 319.29 1559.28 327.83 1565.38 343.12 1574.84 357.36 1585.4 369.31 1585.15 380.85 1575.39 385.1 1579.11 393.39 1588.26 398.21 1585.87 410.87 1581.92 423.19 1573.24 424.59 1561.89 441.42 1549.3 461.82 1534.86 480.37 1513.48 494.72 1491.86 507.8 1474.34 509.58 1464.84 516.49 1459.47 511.44 1450.67 519.17 1428.95 526.96 1412.5 529.34 1407.19 545.76 1398.58 546.67 1394.5 535.39 1398.18 529.37 1377.33 524.4 1369.98 526.93 1354.33 522.89 1346.93 516.58 1349.39 507.62 1335.18 504.78 1327.68 498.95 1314.43 507.24 1299.32 509.03 1286.92 508.95 1278.58 512.74 1270.52 515.02 1272.87 532.8 1264.58 532.38 1263.18 528.73 1262.72 522.3 1251.32 526.83 1244.59 523.96 1233.04 518.13 1237.57 505.22 1227.72 502.21 1224.02 487.9 1207.61 490.47 1209.47 472.03 1224.2 459.05 1224.82 446.23 1224.36 434.34 1217.58 430.63 1212.38 421.48 1203.29 422.63 1186.53 420.31 1191.78 413.78 1184.49 404.12 1173.41 410.66 1160.37 406.84 1142.45 416.74 1128.3 428.3 1115.77 430.25 1108.96 426.07 1100.75 425.69 1089.64 422.09 1081.24 426.03 1070.96 437.59 1069.66 425.35 1060.18 428.62 1042.05 427.1 1024.47 423.54 1011.85 416.71 999.77 413.64 994.55 406.18 985.82 403.95 970.13 393.82 957.66 389.04 951.22 392.76 929.61 381.89 914.34 372.05 909.98 354.91 921.14 357 921.65 349.06 915.46 341.11 917.04 328.43 900.33 310.21 874.76 303.92 870.16 291.98 858.68 284.73 855.91 280.27 853.58 271.41 854.12 265.36 844.68 261.82 839.57 263.39 835.63 249 840.05 245.45 837.91 241.81 852.75 234.47 863.49 231.42 879.95 233.51 885.83 223.58 905.77 221.74 911.31 215.57 935.8 207.15 937.99 203.63 Z" fill-rule="evenodd" stroke="#ffffff" stroke-width="0.6" fill-opacity="0.15" fill="#97c1ff" id="CHN"/>
<path d="M 1583.37 482.75 1574.01 507.68 1567.35 520.43 1559.16 507.3 1557.39 495.78 1566.54 480.51 1578.98 468.74 1586.07 473.37 1583.37 482.75 Z" stroke="#ffffff" stroke-width="0.6" fill-opacity="0.15" fill="#97c1ff" id="TWN"/>
<path d="M 411.71 211.24 416.08 211.76 426.77 221.2 433.64 222.26 436.31 218.31 445.59 212.04 453.77 220.23 461.68 231.26 468.92 231.98 473.71 236.17 460.9 237.42 458.2 249.5 455.52 254.94 449.82 258.57 450.24 266.27 446.37 267.05 436.68 258.91 442.04 251.22 437.44 246.66 431.61 247.8 413.28 259.27 412.94 248.49 405.96 245.94 399.36 241.72 403.74 236.77 395.46 231.43 398.59 227.53 392.67 224.84 389.45 220.76 393.25 218.22 404.84 222.69 413.22 223.61 415.34 221.79 407.68 213.38 411.71 211.24 Z M 407.65 259.73 396.99 257.66 389.14 250.49 386.67 244.62 389.91 244.2 394.51 248.37 401.38 248.34 401.31 250.74 407.65 259.73 Z" fill-rule="evenodd" stroke="#ffffff" stroke-width="0.6" fill-opacity="0.15" fill="#97c1ff" id="AZE"/>
<path d="M 311.45 186.76 313.35 184.93 326.49 187.59 349.37 190.1 370.54 197.56 373.26 200.44 382.69 198 397.19 201.26 401.94 207.63 411.71 211.24 407.68 213.38 415.34 221.79 413.22 223.61 404.84 222.69 393.25 218.22 389.45 220.76 367.84 223.18 352.87 215.55 336.31 216.29 338.63 209.65 334.74 199.04 325.76 193.32 317.15 191.53 311.45 186.76 Z" stroke="#ffffff" stroke-width="0.6" fill-opacity="0.15" fill="#97c1ff" id="GEO"/>
<path d="M 1568.7 664.47 1560.77 652.62 1574.08 653.19 1579.48 658.79 1575.36 672.22 1568.7 664.47 Z M 1595.94 706.8 1599.84 702.45 1601.56 692.8 1610.13 691.89 1607.62 702.35 1619.13 687.34 1617.65 702.17 1612.06 707.28 1607.19 717.1 1602.31 721.71 1592.74 710.96 1595.94 706.8 Z M 1654.87 731.15 1656.45 741.48 1657.36 750.2 1652.07 764.42 1646.39 748.58 1639.12 756.46 1644.08 767.91 1639.63 775.2 1621.33 766.18 1616.97 754.93 1621.71 747.54 1611.86 740.18 1606.98 746.63 1599.66 746.03 1588.16 754.7 1585.58 750.16 1591.68 737.05 1601.48 732.68 1609.95 726.82 1615.45 733.86 1627.27 729.6 1629.8 722.67 1640.79 722.25 1639.87 710.23 1652.47 717.6 1653.77 725.43 1654.87 731.15 Z M 1532.49 717.13 1511.81 731.88 1519.43 721.01 1530.66 711.41 1540 700.66 1548.15 685.22 1550.92 697.89 1540.65 706.45 1532.49 717.13 Z M 1592.07 578.65 1589.54 585.1 1594.84 596.24 1590.75 609.16 1581.59 614.31 1579.14 626.84 1582.61 639.22 1590.85 640.94 1597.73 639.1 1617.15 647.71 1615.67 656.18 1620.74 659.91 1619.12 667.07 1607.01 659.44 1601.26 651.28 1597.26 656.98 1587.37 647.68 1573.25 649.98 1565.51 646.54 1566.3 640.11 1571.16 636.16 1566.52 632.57 1564.51 638.17 1556.83 629.24 1554.51 622.47 1553.93 607.58 1560.19 612.7 1561.8 588.38 1566.87 574.29 1576.28 574.31 1585.86 578.75 1590.65 574.7 1592.07 578.65 Z M 1587.43 684.5 1585.02 677.1 1594.35 681.91 1604.24 681.89 1603.94 688.38 1596.74 694.98 1586.87 699.65 1586.32 692.43 1587.43 684.5 Z M 1641.28 672.89 1645.64 690.25 1633.65 686.12 1633.97 691.34 1637.78 700.93 1630.38 704.41 1629.74 693.48 1625.06 692.67 1622.62 683.26 1631.77 684.5 1631.57 678.62 1622.07 666.75 1636.99 667.09 1641.28 672.89 Z" fill-rule="evenodd" stroke="#ffffff" stroke-width="0.6" fill-opacity="0.15" fill="#97c1ff" id="PHL"/>
<path d="M 1246.17 761.47 1248.88 758.69 1261.56 765.5 1262.78 773.48 1273.04 771.63 1278.13 765.24 1281.7 766.69 1290.88 776.08 1297.4 786.49 1298.29 796.95 1296.64 804.02 1298.15 809.37 1299.29 818.57 1304.76 822.85 1310.88 836.6 1310.58 841.86 1299.56 842.89 1284.85 831.38 1266.46 819.04 1264.64 811.12 1255.65 800.72 1253.51 787.85 1247.9 779.37 1249.6 768.06 1246.17 761.47 Z M 1522.82 797.64 1509.34 795.02 1491.47 795.01 1486.08 812.69 1480.1 818.1 1472.13 839.72 1459.45 843.03 1444.75 838.67 1437.29 840.04 1428.23 847.9 1418.31 846.78 1408.28 849.94 1397.65 841.15 1395.06 830.77 1406.45 836.09 1418.46 833.19 1421.59 820.03 1428.22 817.09 1446.86 813.73 1458.01 801.43 1465.64 791.6 1472.72 799.66 1475.99 794.36 1483.42 794.85 1484.32 784.93 1485.02 777.27 1496.99 766.46 1504.83 754.31 1511.12 754.26 1519.11 762.12 1519.82 768.88 1530.05 773.21 1543.02 777.89 1541.91 783.98 1531.48 784.75 1534.26 792.34 1522.82 797.64 Z" fill-rule="evenodd" stroke="#ffffff" stroke-width="0.6" fill-opacity="0.15" fill="#97c1ff" id="MYS"/>
<path d="M 1485.02 777.27 1484.32 784.93 1483.42 794.85 1475.99 794.36 1472.72 799.66 1465.64 791.6 1471.8 785.79 1485.02 777.27 Z" stroke="#ffffff" stroke-width="0.6" fill-opacity="0.15" fill="#97c1ff" id="BRN"/>
<path d="M 1895.93 252.89 1881.55 268.55 1881.81 284.59 1875.96 296.99 1878.67 304.78 1870.57 315.74 1850.71 323.05 1823.38 324.01 1801.24 341.75 1790.79 335.78 1790.15 324.16 1763.11 327.59 1744.71 334.91 1726.52 335.21 1742.28 346.64 1731.91 373.06 1721.86 379.61 1714.33 373.56 1718.15 359.55 1708.31 355.03 1701.99 344.37 1716.69 339.58 1724.84 329.81 1740.48 321.78 1751.88 311.15 1782.82 306.51 1799.44 309.69 1815.71 282.06 1826.07 289.48 1848.88 273.93 1857.72 267.89 1867.49 248.89 1864.82 231.4 1871.39 221.59 1887.92 218.73 1896.39 240.29 1895.93 252.89 Z M 1938.35 178.59 1949.35 172 1952.8 189.45 1929.74 193.71 1916.13 209.15 1891.69 198.52 1883.23 215.53 1865.94 215.76 1863.8 200.31 1871.49 188.35 1888.1 187.48 1892.63 165.98 1897.22 153.86 1915.49 170.05 1927.42 175.28 1938.35 178.59 Z M 1748.05 341.77 1756.65 332.49 1765.49 334.29 1771.88 327.76 1783.29 331.11 1785.28 336.44 1776.53 345.85 1770.15 340.86 1762.18 344.47 1758.05 353.57 1747.92 349.14 1748.05 341.77 Z" fill-rule="evenodd" stroke="#ffffff" stroke-width="0.6" fill-opacity="0.15" fill="#97c1ff" id="JPN"/>
<path d="M 498.69 566.6 510.85 592.26 515.92 603.12 504.68 607.29 501.67 614.19 501.3 619.5 485.83 626.06 460.99 633.31 447.07 644.28 440.22 645.13 435.56 644.22 426.47 650.67 416.57 653.66 403.52 654.47 399.59 655.35 396.19 659.45 392.12 660.59 389.71 664.54 382.02 664.2 377.05 666.31 366.29 665.52 362.25 656.44 362.69 647.94 360.15 643.35 357.11 631.86 352.64 625.47 355.75 624.71 354.16 617.61 356.04 614.61 355.36 607.83 362.18 602.87 360.59 596.32 364.7 588.68 371.09 592.72 375.3 591.31 393.24 590.96 396.09 592.51 411.12 594.07 417.08 593.29 420.96 598.47 428.22 595.88 439.36 579.56 453.87 572.56 498.69 566.6 Z" stroke="#ffffff" stroke-width="0.6" fill-opacity="0.15" fill="#97c1ff" id="YEM"/>
<path d="M 233.74 405.61 251.04 408.08 257.76 403.3 261.48 397.7 273.34 395.55 275.9 390.35 281.04 387.71 265.55 372.16 296.68 364.36 299.64 362.02 318.37 366.23 341.53 377.11 385.36 408.37 414.26 409.62 428.11 411.12 431.98 418.52 442.98 418.12 449.06 431.52 456.71 435.07 459.37 440.53 469.97 447.07 470.91 453.48 469.36 458.66 471.33 463.88 475.8 468.24 477.87 473.34 480.19 477.15 484.89 480.23 489.2 479.13 492.15 485.06 492.75 488.66 498.7 504.41 545.43 512.24 548.56 508.96 555.69 519.97 545.32 551.06 498.69 566.6 453.87 572.56 439.36 579.56 428.22 595.88 420.96 598.47 417.08 593.29 411.12 594.07 396.09 592.51 393.24 590.96 375.3 591.31 371.09 592.72 364.7 588.68 360.59 596.32 362.18 602.87 355.36 607.83 353.34 601.2 348.65 596.51 347.45 590.31 339.42 584.74 331.14 571.71 326.75 559.04 316 548.34 309.07 545.79 298.77 530.98 296.97 520.17 297.64 510.96 288.72 493.72 281.43 487.66 273.03 484.44 267.92 475.53 268.77 472.02 264.45 463.96 259.91 460.49 253.84 448.93 244.38 436.39 236.45 425.71 228.71 425.79 231.13 417.26 231.82 411.82 233.74 405.61 Z" stroke="#ffffff" stroke-width="0.6" fill-opacity="0.15" fill="#97c1ff" id="SAU"/>
<path d="M 199.17 315.71 200.27 315.62 202.51 311.87 213.71 312.08 227.84 307.45 217.34 314.07 218.47 316.98 216.81 316.43 213.84 317.61 211.51 317.28 210.73 317.88 210.42 316.31 209.3 315.36 206.31 315.19 202.09 316.52 199.17 315.71 Z" stroke="#ffffff" stroke-width="0.6" fill-opacity="0.15" fill="#97c1ff" id="CYN"/>
<path d="M 199.17 315.71 202.09 316.52 206.31 315.19 209.3 315.36 210.42 316.31 210.73 317.88 211.51 317.28 213.84 317.61 216.81 316.43 218.47 316.98 218.96 318.23 203.02 324.54 195.41 322.52 191.78 316.28 199.17 315.71 Z" stroke="#ffffff" stroke-width="0.6" fill-opacity="0.15" fill="#97c1ff" id="CYP"/>
</g>
</svg>