<?xml version="1.0"?>
<svg xmlns="http://www.w3.org/2000/svg" version="1.2" baseProfile="tiny" width="2048" height="1024" viewBox="0 0 2048 1024" stroke-linecap="round" stroke-linejoin="round">
<g id="ne_110m_admin_0_countries">
<path d="M 2047 463.67 2047 466.45 2043.39 467.84 2039.75 469.04 2039.03 466.92 2041.87 465.76 2043.67 465.44 2047 463.67 Z M 2036.35 471.84 2037.76 470.91 2039.71 472.55 2038.77 475.51 2035.25 476.29 2032.12 475.59 2031.57 473.09 2033.76 471.14 2036.35 471.84 Z M 2.17 463.41 1.47 466.14 1 466.45 1 463.67 2.17 463.41 Z" fill-rule="evenodd" stroke="#ffffff" stroke-width="0.6" fill-opacity="0.15" fill="#97c1ff" id="FJI"/>
<path d="M 1825.35 387.13 1835.21 391.05 1845.72 394.3 1849.64 397.21 1852.8 400.07 1853.66 403.42 1863.13 406.93 1864.51 409.95 1859.28 410.56 1860.54 414.35 1865.61 418.07 1869.31 424.1 1872.56 423.91 1872.33 426.43 1876.72 427.4 1875.02 428.47 1881.06 430.86 1880.42 432.5 1876.66 432.9 1875.26 431.43 1870.38 430.79 1864.64 429.93 1860.22 426.31 1856.99 423.18 1854.04 418.21 1846.63 415.72 1841.82 417.34 1838.34 419.22 1839.07 423.41 1834.6 425.36 1831.42 424.41 1825.54 424.18 1825.45 405.66 1825.35 387.13 Z M 1891.5 393.16 1893.66 394.98 1894.35 397.93 1892.57 399.45 1891.5 396.09 1890.17 393.9 1887.6 392.03 1884.37 389.61 1880.26 387.94 1881.84 386.57 1884.91 388.16 1886.84 389.41 1889.23 390.77 1891.5 393.16 Z M 1883.9 405.55 1880.79 406.93 1877.87 408.26 1874.85 408.26 1870.19 406.6 1866.95 405.02 1867.42 403.26 1872.51 404.09 1875.62 403.65 1876.48 400.92 1877.29 400.78 1877.85 403.8 1881.09 403.36 1882.69 401.42 1885.87 399.39 1885.24 396.04 1888.64 395.94 1889.79 396.87 1889.68 400.02 1887.77 403.49 1884.79 403.96 1883.9 405.55 Z M 1903.55 402.71 1905.27 403.99 1908.03 407.6 1910.71 409.53 1909.92 411.12 1908.33 411.69 1905.87 409.5 1903.38 405.89 1902.16 401.56 1902.94 401.01 1903.55 402.71 Z" fill-rule="evenodd" stroke="#ffffff" stroke-width="0.6" fill-opacity="0.15" fill="#97c1ff" id="PNG"/>
<path d="M 1974.35 462.68 1977.92 465.94 1976.04 466.69 1974.14 464.2 1974.35 462.68 Z M 1971.94 461.41 1971.13 459.84 1971.01 455.48 1973.73 457.23 1974.65 461.81 1973.12 461.1 1971.94 461.41 Z" fill-rule="evenodd" stroke="#ffffff" stroke-width="0.6" fill-opacity="0.15" fill="#97c1ff" id="VUT"/>
<path d="M 1966.18 492.16 1970.84 495.69 1973.8 498.3 1971.64 499.66 1968.51 498.13 1964.45 495.57 1960.78 492.56 1957.02 488.55 1956.23 486.62 1958.68 486.71 1961.86 488.64 1964.36 490.57 1966.18 492.16 Z" stroke="#ffffff" stroke-width="0.6" fill-opacity="0.15" fill="#97c1ff" id="NCL"/>
<path d="M 1945.38 431.93 1946.97 433.89 1943 433.85 1940.83 430.35 1944.23 431.73 1945.38 431.93 Z M 1942.88 426.92 1942.03 427.96 1937.81 423.04 1936.63 419.64 1938.56 419.64 1940.61 424.19 1942.88 426.92 Z M 1938.18 428.47 1935.96 428.59 1932.48 428.02 1931.29 427.14 1931.65 424.89 1935.4 425.78 1937.25 426.97 1938.18 428.47 Z M 1931.29 417.94 1932.62 419.74 1932.86 420.88 1928.41 418.47 1925.3 416.43 1923.17 414.54 1924.01 413.96 1926.63 415.32 1931.29 417.94 Z M 1917.08 412.26 1919.34 414.12 1918.21 414.44 1915.73 413.15 1913.39 410.81 1913.69 409.86 1917.08 412.26 Z" fill-rule="evenodd" stroke="#ffffff" stroke-width="0.6" fill-opacity="0.15" fill="#97c1ff" id="SLB"/>
<path d="M 2029.3 600.07 2027.15 603.13 2024.34 607.02 2019.94 609.29 2018.97 607.79 2016.6 606.98 2019.88 602.3 2018.02 599.17 2011.9 596.9 2012.06 594.84 2016.17 592.86 2017.13 588.48 2016.86 584.81 2014.56 581 2014.71 580 2012 577.65 2007.52 572.62 2005.15 568.6 2007.26 568.15 2010.35 571.31 2014.77 572.78 2016.38 577.85 2020.5 583.83 2020.62 579.95 2023.18 581.5 2024.03 585.8 2028.6 587.65 2032.44 588.1 2035.69 585.94 2038.57 586.59 2037.19 591.64 2035.47 594.95 2031.13 594.84 2029.61 596.56 2030.14 599.01 2029.3 600.07 Z M 1988.28 619.9 1993.15 616.92 1996.56 613.97 1999.09 609.74 2001.24 608.3 2002.09 605.12 2006.07 602.5 2007.33 604.91 2008.62 607.26 2012.66 604.96 2014.31 607.36 2014.31 609.75 2012.2 612.38 2008.48 616.57 2005.58 618.86 2007.67 621.59 2003.29 621.66 1998.42 623.8 1996.9 627.52 1993.67 633.27 1989.21 635.81 1986.37 637.43 1981.14 637.31 1977.46 635.44 1971.28 635.04 1970.33 632.95 1973.38 628.74 1980.53 623.13 1984.2 622.06 1988.28 619.9 Z" fill-rule="evenodd" stroke="#ffffff" stroke-width="0.6" fill-opacity="0.15" fill="#97c1ff" id="NZL"/>
<path d="M 1863.37 604.28 1866.78 604.67 1867.18 611.41 1865.23 613.37 1864.64 617.94 1862.66 616.39 1858.71 620.35 1857.54 620.04 1854.04 619.86 1850.54 615 1849.76 611.25 1846.48 606.3 1846.63 603.69 1850.35 604.19 1855.84 606.16 1858.93 605.38 1863.37 604.28 Z M 1740.95 555.45 1734.92 558.37 1729.99 559.68 1728.9 562.66 1726.8 564.97 1721.98 565.1 1718.41 565.61 1713.38 564.57 1709.3 565.19 1705.4 565.45 1702.02 568.49 1700.36 568.23 1697.51 569.83 1694.78 571.64 1690.63 571.42 1686.82 571.42 1680.79 567.79 1677.74 566.71 1677.86 563.45 1680.68 562.68 1681.65 561.38 1681.44 559.34 1682.14 555.39 1681.5 552.02 1678.5 546.28 1677.57 543.03 1677.81 539.79 1675.55 536.1 1675.4 534.43 1672.89 532.16 1672.18 527.71 1668.93 523.21 1668.14 520.79 1670.64 523.24 1668.72 517.97 1671.54 519.62 1673.22 521.82 1673.13 518.91 1670.32 514.43 1669.77 512.64 1668.45 510.94 1669.07 507.66 1670.23 506.26 1671.01 503.41 1670.4 500.09 1672.75 496 1673.18 500.33 1675.58 496.42 1680.2 494.52 1682.97 492.1 1687.31 490.01 1689.9 489.57 1691.46 490.27 1695.94 488.15 1699.39 487.52 1700.25 486.27 1701.75 485.76 1704.89 485.89 1710.87 484.23 1713.96 481.7 1715.41 478.67 1718.74 475.78 1719 473.51 1719.14 470.42 1723.12 465.59 1725.52 470.5 1727.93 469.37 1725.91 466.68 1727.69 463.92 1730.2 465.15 1730.89 460.83 1734 458.03 1735.37 455.79 1738.22 454.82 1738.31 453.23 1740.81 453.9 1740.91 452.47 1743.41 451.66 1746.16 450.89 1750.36 453.5 1753.51 456.86 1757.07 456.9 1760.68 457.44 1759.48 454.31 1762.2 449.76 1764.76 448.27 1763.88 446.85 1766.34 443.61 1769.79 441.6 1772.69 442.28 1777.47 441.21 1777.37 438.3 1773.2 436.43 1776.23 435.6 1779.99 437.01 1783.01 439.34 1787.8 440.8 1789.42 440.22 1792.95 441.97 1796.27 440.34 1798.4 440.84 1799.73 439.75 1802.34 442.56 1800.83 445.6 1798.67 447.9 1796.72 448.08 1797.37 450.36 1795.7 453.2 1793.69 455.99 1794.09 457.59 1798.61 460.73 1802.99 462.56 1805.92 464.51 1810.02 467.88 1811.63 467.87 1814.6 469.33 1815.46 471.09 1820.89 473.01 1824.64 471.07 1825.75 468.02 1826.91 465.5 1827.61 462.38 1829.34 457.86 1828.55 455.11 1828.96 453.46 1828.3 450.21 1829.05 445.93 1830.14 444.77 1829.25 442.87 1830.63 439.86 1831.71 436.74 1831.85 435.12 1833.96 432.99 1835.56 435.77 1835.96 439.33 1837.38 440.02 1837.62 442.41 1839.68 445.3 1840.11 448.52 1839.91 450.58 1841.96 455.04 1845.6 452.9 1847.49 455.3 1850.21 457.52 1849.63 460.04 1850.84 464.91 1851.7 467.75 1853.14 468.44 1854.68 473.3 1854.13 476.25 1855.97 480.1 1862.13 483.07 1866.14 485.77 1869.96 488.25 1869.21 489.62 1872.46 493.19 1874.67 499.34 1876.94 498.09 1879.24 500.55 1880.63 499.68 1881.61 505.7 1885.65 509.19 1888.28 511.36 1892.73 515.96 1894.32 520.53 1894.47 523.77 1894.08 527.29 1896.79 532.12 1896.46 537.15 1895.48 539.78 1893.94 544.85 1894.06 548.11 1892.93 552.18 1890.42 557.35 1886.21 560.14 1884.14 564.54 1882.24 567.35 1880.56 572.26 1878.37 575.09 1876.93 579.35 1876.19 583.26 1876.48 585.06 1873.23 587.03 1866.86 587.24 1861.62 589.57 1859.01 591.77 1855.57 594.21 1850.87 591.7 1847.38 590.7 1848.27 587.73 1845.16 588.81 1840.18 592.92 1835.27 591.38 1832.05 590.48 1828.8 590.08 1823.3 588.43 1819.62 584.93 1818.57 580.61 1817.25 577.74 1814.45 575.44 1808.99 574.75 1810.85 572 1809.48 567.78 1806.7 571.71 1801.65 572.75 1804.62 569.61 1805.48 566.33 1807.68 563.55 1807.22 559.34 1802.6 564.19 1799.05 566.13 1796.87 570.65 1792.43 568.31 1792.61 565.29 1789.05 561.17 1786.05 559.04 1787.12 557.73 1779.83 554.29 1775.84 554.13 1770.37 551.36 1760.2 551.9 1752.84 553.93 1746.37 555.83 1740.95 555.45 Z" fill-rule="evenodd" stroke="#ffffff" stroke-width="0.6" fill-opacity="0.15" fill="#97c1ff" id="AUS"/>
</g>
</svg>