<?xml version="1.0"?>
<svg xmlns="http://www.w3.org/2000/svg" version="1.2" baseProfile="tiny" width="2048" height="1024" viewBox="0 0 2048 1024" stroke-linecap="round" stroke-linejoin="round">
<g id="ne_110m_admin_0_countries">
<path d="M 2047 682.98 2047 685.75 2043.39 687.15 2039.75 688.35 2039.03 686.23 2041.87 685.06 2043.67 684.75 2047 682.98 Z M 2036.35 691.15 2037.76 690.21 2039.71 691.85 2038.77 694.82 2035.25 695.6 2032.12 694.9 2031.57 692.4 2033.76 690.44 2036.35 691.15 Z M 2.17 682.71 1.47 685.45 1 685.75 1 682.98 2.17 682.71 Z M 1825.35 606.44 1835.21 610.35 1845.72 613.61 1849.64 616.52 1852.8 619.38 1853.66 622.72 1863.13 626.24 1864.51 629.25 1859.28 629.86 1860.54 633.65 1865.61 637.38 1869.31 643.41 1872.56 643.22 1872.33 645.73 1876.72 646.7 1875.02 647.77 1881.06 650.16 1880.42 651.81 1876.66 652.2 1875.26 650.73 1870.38 650.09 1864.64 649.24 1860.22 645.61 1856.99 642.48 1854.04 637.51 1846.63 635.03 1841.82 636.65 1838.34 638.52 1839.07 642.72 1834.6 644.67 1831.42 643.72 1825.54 643.48 1825.45 624.96 1825.35 606.44 Z M 1891.5 612.46 1893.66 614.28 1894.35 617.24 1892.57 618.75 1891.5 615.4 1890.17 613.2 1887.6 611.34 1884.37 608.91 1880.26 607.24 1881.84 605.87 1884.91 607.46 1886.84 608.71 1889.23 610.08 1891.5 612.46 Z M 1883.9 624.86 1880.79 626.24 1877.87 627.57 1874.85 627.56 1870.19 625.91 1866.95 624.32 1867.42 622.57 1872.51 623.4 1875.62 622.95 1876.48 620.23 1877.29 620.09 1877.85 623.1 1881.09 622.67 1882.69 620.72 1885.87 618.7 1885.24 615.35 1888.64 615.24 1889.79 616.17 1889.68 619.33 1887.77 622.79 1884.79 623.26 1883.9 624.86 Z M 1903.55 622.01 1905.27 623.3 1908.03 626.9 1910.71 628.83 1909.92 630.42 1908.33 630.99 1905.87 628.81 1903.38 625.2 1902.16 620.87 1902.94 620.32 1903.55 622.01 Z M 1974.35 681.98 1977.92 685.24 1976.04 685.99 1974.14 683.5 1974.35 681.98 Z M 1971.94 680.71 1971.13 679.14 1971.01 674.79 1973.73 676.54 1974.65 681.12 1973.12 680.4 1971.94 680.71 Z M 1966.18 711.47 1970.84 714.99 1973.8 717.6 1971.64 718.97 1968.51 717.43 1964.45 714.87 1960.78 711.86 1957.02 707.86 1956.23 705.93 1958.68 706.01 1961.86 707.94 1964.36 709.87 1966.18 711.47 Z M 1945.38 651.24 1946.97 653.19 1943 653.16 1940.83 649.66 1944.23 651.03 1945.38 651.24 Z M 1942.88 646.22 1942.03 647.27 1937.81 642.34 1936.63 638.95 1938.56 638.95 1940.61 643.49 1942.88 646.22 Z M 1938.18 647.77 1935.96 647.9 1932.48 647.32 1931.29 646.45 1931.65 644.19 1935.4 645.09 1937.25 646.28 1938.18 647.77 Z M 1931.29 637.24 1932.62 639.05 1932.86 640.19 1928.41 637.78 1925.3 635.73 1923.17 633.84 1924.01 633.26 1926.63 634.63 1931.29 637.24 Z M 1917.08 631.57 1919.34 633.42 1918.21 633.75 1915.73 632.45 1913.39 630.11 1913.69 629.17 1917.08 631.57 Z M 2029.3 819.37 2027.15 822.43 2024.34 826.32 2019.94 828.59 2018.97 827.1 2016.6 826.28 2019.88 821.6 2018.02 818.48 2011.9 816.2 2012.06 814.14 2016.17 812.16 2017.13 807.79 2016.86 804.11 2014.56 800.3 2014.71 799.3 2012 796.95 2007.52 791.93 2005.15 787.9 2007.26 787.46 2010.35 790.61 2014.77 792.09 2016.38 797.15 2020.5 803.13 2020.62 799.25 2023.18 800.8 2024.03 805.1 2028.6 806.95 2032.44 807.41 2035.69 805.24 2038.57 805.9 2037.19 810.94 2035.47 814.26 2031.13 814.14 2029.61 815.87 2030.14 818.31 2029.3 819.37 Z M 1988.28 839.2 1993.15 836.22 1996.56 833.28 1999.09 829.04 2001.24 827.6 2002.09 824.43 2006.07 821.8 2007.33 824.22 2008.62 826.56 2012.66 824.26 2014.31 826.66 2014.31 829.05 2012.2 831.69 2008.48 835.87 2005.58 838.16 2007.67 840.89 2003.29 840.96 1998.42 843.11 1996.9 846.83 1993.67 852.58 1989.21 855.12 1986.37 856.74 1981.14 856.62 1977.46 854.74 1971.28 854.34 1970.33 852.26 1973.38 848.04 1980.53 842.43 1984.2 841.36 1988.28 839.2 Z M 1863.37 823.59 1866.78 823.97 1867.18 830.72 1865.23 832.67 1864.64 837.25 1862.66 835.69 1858.71 839.65 1857.54 839.35 1854.04 839.17 1850.54 834.3 1849.76 830.55 1846.48 825.6 1846.63 823 1850.35 823.5 1855.84 825.46 1858.93 824.68 1863.37 823.59 Z M 1740.95 774.76 1734.92 777.67 1729.99 778.98 1728.9 781.96 1726.8 784.27 1721.98 784.41 1718.41 784.91 1713.38 783.88 1709.3 784.5 1705.4 784.76 1702.02 787.79 1700.36 787.53 1697.51 789.14 1694.78 790.95 1690.63 790.72 1686.82 790.72 1680.79 787.09 1677.74 786.01 1677.86 782.75 1680.68 781.98 1681.65 780.69 1681.44 778.65 1682.14 774.69 1681.5 771.33 1678.5 765.58 1677.57 762.34 1677.81 759.1 1675.55 755.4 1675.4 753.73 1672.89 751.47 1672.18 747.01 1668.93 742.51 1668.14 740.09 1670.64 742.55 1668.72 737.28 1671.54 738.92 1673.22 741.12 1673.13 738.21 1670.32 733.74 1669.77 731.95 1668.45 730.25 1669.07 726.96 1670.23 725.56 1671.01 722.72 1670.4 719.4 1672.75 715.31 1673.18 719.64 1675.58 715.73 1680.2 713.83 1682.97 711.4 1687.31 709.32 1689.9 708.87 1691.46 709.57 1695.94 707.45 1699.39 706.82 1700.25 705.58 1701.75 705.06 1704.89 705.19 1710.87 703.53 1713.96 701.01 1715.41 697.97 1718.74 695.08 1719 692.82 1719.14 689.73 1723.12 684.9 1725.52 689.8 1727.93 688.67 1725.91 685.98 1727.69 683.23 1730.2 684.46 1730.89 680.13 1734 677.34 1735.37 675.09 1738.22 674.13 1738.31 672.54 1740.81 673.2 1740.91 671.77 1743.41 670.96 1746.16 670.19 1750.36 672.8 1753.51 676.17 1757.07 676.21 1760.68 676.74 1759.48 673.62 1762.2 669.06 1764.76 667.58 1763.88 666.16 1766.34 662.91 1769.79 660.91 1772.69 661.58 1777.47 660.51 1777.37 657.61 1773.2 655.73 1776.23 654.91 1779.99 656.32 1783.01 658.65 1787.8 660.1 1789.42 659.53 1792.95 661.27 1796.27 659.65 1798.4 660.14 1799.73 659.05 1802.34 661.86 1800.83 664.9 1798.67 667.2 1796.72 667.39 1797.37 669.66 1795.7 672.5 1793.69 675.29 1794.09 676.9 1798.61 680.04 1802.99 681.86 1805.92 683.82 1810.02 687.18 1811.63 687.18 1814.6 688.63 1815.46 690.39 1820.89 692.32 1824.64 690.38 1825.75 687.32 1826.91 684.8 1827.61 681.69 1829.34 677.17 1828.55 674.42 1828.96 672.76 1828.3 669.51 1829.05 665.23 1830.14 664.08 1829.25 662.18 1830.63 659.16 1831.71 656.04 1831.85 654.42 1833.96 652.29 1835.56 655.07 1835.96 658.64 1837.38 659.32 1837.62 661.71 1839.68 664.6 1840.11 667.82 1839.91 669.88 1841.96 674.34 1845.6 672.2 1847.49 674.61 1850.21 676.83 1849.63 679.34 1850.84 684.22 1851.7 687.06 1853.14 687.75 1854.68 692.61 1854.13 695.55 1855.97 699.41 1862.13 702.38 1866.14 705.08 1869.96 707.55 1869.21 708.93 1872.46 712.49 1874.67 718.64 1876.94 717.39 1879.24 719.86 1880.63 718.98 1881.61 725.01 1885.65 728.49 1888.28 730.66 1892.73 735.26 1894.32 739.83 1894.47 743.07 1894.08 746.59 1896.79 751.42 1896.46 756.45 1895.48 759.08 1893.94 764.15 1894.06 767.41 1892.93 771.48 1890.42 776.65 1886.21 779.45 1884.14 783.85 1882.24 786.66 1880.56 791.56 1878.37 794.4 1876.93 798.65 1876.19 802.56 1876.48 804.36 1873.23 806.34 1866.86 806.54 1861.62 808.87 1859.01 811.08 1855.57 813.51 1850.87 811 1847.38 810 1848.27 807.04 1845.16 808.11 1840.18 812.23 1835.27 810.69 1832.05 809.79 1828.8 809.38 1823.3 807.74 1819.62 804.23 1818.57 799.92 1817.25 797.05 1814.45 794.74 1808.99 794.06 1810.85 791.3 1809.48 787.08 1806.7 791.01 1801.65 792.06 1804.62 788.91 1805.48 785.63 1807.68 782.85 1807.22 778.64 1802.6 783.49 1799.05 785.43 1796.87 789.95 1792.43 787.62 1792.61 784.6 1789.05 780.48 1786.05 778.35 1787.12 777.04 1779.83 773.59 1775.84 773.43 1770.37 770.66 1760.2 771.2 1752.84 773.24 1746.37 775.13 1740.95 774.76 Z" fill-rule="evenodd" stroke="#ffffff" stroke-width="0.8" fill="none" id="OC"/>
<path d="M 1246.8 618.24 1244.18 625.24 1244.51 628.46 1248.15 630.54 1248.32 632.01 1246.76 635.45 1247.08 637.17 1246.71 639.89 1248.69 643.45 1251.05 649.05 1253.13 650.3 1254.05 652.84 1253.82 658.51 1254.52 663.49 1254.74 672.38 1255.74 675.16 1254.05 679.22 1251.84 683.17 1248.22 686.69 1243.03 688.85 1236.62 691.61 1230.2 697.71 1228.01 698.75 1224.04 702.79 1221.7 704.1 1221.22 708.15 1223.92 712.46 1225.04 715.79 1225.11 717.49 1226.11 717.21 1225.95 722.78 1225.03 725.42 1226.37 726.39 1225.52 728.76 1223.15 730.78 1218.46 732.7 1211.63 735.78 1209.13 737.88 1209.62 740.27 1211.07 740.65 1210.58 743.65 1209.16 747.78 1208.49 752.51 1207.02 755.07 1203.14 757.94 1202.03 758.76 1199.63 761.65 1198.04 764.57 1194.82 768.64 1188.39 774.51 1184.38 777.92 1180.09 780.5 1174.15 782.71 1171.25 783 1170.52 784.58 1167.07 783.74 1164.25 784.82 1158.09 783.73 1154.65 784.42 1152.3 784.12 1146.43 786.37 1141.58 787.27 1138.07 789.41 1135.49 789.55 1133.08 787.52 1131.16 787.42 1128.71 784.88 1128.44 785.67 1127.69 784.14 1127.72 780.81 1125.87 777 1127.71 775.97 1127.56 771.6 1123.84 766.29 1120.98 761.47 1120.97 761.46 1116.89 754.07 1112.67 749.78 1110.45 745.63 1109.19 740.1 1107.79 735.98 1105.89 727.23 1105.76 720.43 1105.03 717.33 1102.82 714.98 1099.89 710.29 1096.9 703.47 1095.66 699.9 1091.03 694.35 1090.69 689.99 1090.15 686.42 1090.94 681.42 1092.9 676.22 1093.2 673.78 1095.04 668.66 1096.4 666.33 1099.66 662.61 1101.48 660.08 1102.08 655.87 1101.78 652.65 1100.08 650.62 1098.57 647.17 1097.18 643.76 1097.48 642.58 1099.23 640.33 1097.5 634.83 1096.34 631.03 1093.49 627.43 1094.03 626.33 1093.24 624.57 1091.72 620.29 1087.05 614.27 1081.21 608.54 1077.45 603.85 1074 597.98 1074.18 596.09 1075.43 594.27 1076.81 590.13 1077.95 585.92 1076.89 585.06 1078.84 578.68 1079.67 574.19 1077.45 570.44 1074.86 569.47 1073.7 566.93 1072.24 566.11 1072.31 564.54 1066.41 566.59 1064.25 566.29 1062.07 567.56 1057.52 567.44 1054.48 563.88 1052.61 559.77 1048.58 556.02 1044.31 556.09 1039.3 556.09 1034.6 556.75 1030.03 557.97 1021.11 561.29 1017.96 563.24 1012.83 564.89 1007.77 563.28 1005.18 563.33 1001.22 562.22 997.57 562.29 990.84 563.28 986.89 564.92 981.27 567.01 980.17 566.86 978.68 566.91 972.82 564.2 967.66 559.87 962.82 556.76 958.99 553.09 957.46 552.67 953.37 550.38 950.41 547.34 949.41 545.26 948.72 541.06 946.22 537.7 944.01 535.47 942.56 534.74 941.14 533.61 940.49 531.1 939.66 529.85 938.01 528.91 934.98 526.54 932.58 526.16 931.28 524.56 931.31 523.7 929.58 522.49 929.22 521.27 928.28 516.92 929.01 514.4 926.67 509.97 923.83 507.95 926.33 506.87 929.08 502.88 930.43 499.96 929.94 496.9 931.53 494.1 932.23 488.74 931.61 483.13 930.92 480.3 931.49 477.47 930.02 474.77 927.02 472.31 927.27 469.91 927.54 467.28 929.72 465.73 931.58 462.77 931.21 460.84 933.17 456.83 936.33 453.22 938.24 452.3 939.75 448.99 939.88 445.96 941.93 442.45 945.72 440.38 949.32 434.57 949.43 434.49 952.28 432.31 957.57 431.68 962.05 427.8 964.9 426.28 969.64 421.54 968.22 414.47 970.38 409.58 971.14 406.59 974.8 402.75 980.5 400.15 984.71 397.8 988.51 391.92 990.3 388.43 994.48 388.45 997.91 390.87 1003.31 390.47 1009.2 391.73 1011.67 391.79 1017.13 388.68 1023.28 387.69 1026.86 385.35 1032.34 383.62 1041.97 382.61 1051.37 382.15 1054.24 382.99 1059.59 380.75 1065.66 380.71 1067.97 382.03 1071.86 381.68 1078.05 379.39 1082.03 380.07 1081.86 382.95 1086.68 380.85 1087.09 381.95 1084.24 384.73 1084.21 387.36 1086.17 388.77 1085.42 393.69 1081.68 396.55 1082.76 399.65 1085.7 399.74 1087.13 402.44 1089.29 403.33 1095.97 405.29 1098.36 404.8 1103.1 405.75 1110.65 408.29 1113.31 413.34 1118.41 414.44 1126.42 416.82 1132.47 419.65 1135.25 418.17 1137.97 415.56 1136.65 411.21 1138.43 408.44 1142.52 405.78 1146.44 405 1154.12 406.17 1156.06 408.71 1158.18 408.73 1159.99 409.7 1165.64 410.37 1167.02 412.24 1174.58 412.15 1180.05 413.65 1185.69 415.33 1188.33 416.22 1192.7 414.42 1195.04 412.79 1200.05 412.32 1204.09 413.04 1205.64 415.86 1206.96 414 1211.52 415.34 1215.95 415.66 1218.74 414.23 1221.91 422.52 1222.48 424 1220.88 426.28 1219.66 430.57 1218.11 433.53 1216.79 434.52 1214.89 432.69 1212.33 430.15 1208.27 422.01 1207.69 422.52 1210.04 428.52 1213.53 434.23 1217.83 443.09 1219.93 446.18 1221.75 449.39 1226.85 455.68 1225.72 456.67 1225.91 460.36 1232.53 465.46 1233.52 466.63 1235.36 472.2 1234.11 473.24 1234.94 479.09 1237.02 485.87 1239.19 487.27 1242.3 489.37 1245.6 495.95 1247.16 501.17 1250.28 503.94 1258.04 509.3 1261.19 512.54 1264.27 515.82 1266.05 517.78 1268.84 519.49 1270.19 521.24 1270.01 523.6 1266.77 524.96 1269.21 526.52 1271.06 527.57 1272.17 529.92 1274.74 532.3 1277.56 532.31 1282.92 530.86 1289.1 530.19 1294.1 528.42 1296.92 528.05 1298.95 527.01 1302.19 526.81 1304.01 526.7 1306.62 525.85 1309.64 525.28 1312.33 523.34 1314.48 523.32 1314.61 524.89 1314.09 528.2 1314.11 531.19 1312.91 533.24 1311.31 539.38 1308.57 545.73 1305.06 552.99 1300.18 561.32 1295.33 567.68 1288.64 575.43 1282.96 580.03 1274.45 585.68 1269.16 590 1262.94 596.89 1261.63 599.88 1260.34 601.23 1256.36 603.5 1254.96 605.87 1252.83 606.29 1252.02 610.29 1250.2 612.58 1249.09 616.36 1246.8 618.24 Z M 1305.57 662.53 1307.08 664.95 1308.49 668.7 1309.4 675.54 1310.87 678.2 1310.31 680.92 1309.3 682.6 1307.37 679.27 1306.31 680.95 1307.39 685.16 1306.89 687.57 1305.32 688.88 1304.96 693.69 1302.72 700.32 1299.92 708.15 1296.41 718.92 1294.23 726.82 1291.66 733.41 1287.04 734.76 1282.08 737.16 1278.8 735.71 1274.29 733.68 1272.72 730.68 1272.35 725.64 1270.35 721.11 1269.83 717.02 1270.85 712.92 1273.46 711.94 1273.48 710.05 1276.19 705.74 1276.71 702.12 1275.39 699.43 1274.31 695.84 1273.86 690.61 1275.84 687.43 1276.6 683.82 1279.44 683.61 1282.61 682.45 1284.71 681.42 1287.21 681.34 1290.45 678.11 1295.12 674.61 1296.83 671.75 1296.06 669.32 1298.47 670 1301.6 666.05 1301.71 662.63 1303.59 660.09 1305.57 662.53 Z" fill-rule="evenodd" stroke="#ffffff" stroke-width="0.8" fill="none" id="AF"/>
<path d="M 325.86 313.18 325.1 313.16 314.09 307.58 310.03 305.13 299.74 302.77 296.57 297.74 297.38 294.25 290.11 291.83 289.12 287.25 282.24 283.13 282.12 280.2 279 278.06 273.99 276.25 272.38 271.29 265.05 266.69 261.99 261.33 256.53 260.96 247.5 260.82 240.84 259.19 229.08 253.29 223.64 252.21 213.7 250.18 205.83 250.67 194.66 248.05 187.9 245.63 181.59 246.84 182.76 250.78 179.62 251.15 173.05 252.33 168.04 254.25 161.75 255.46 160.93 252.11 163.49 246.54 169.53 244.79 167.97 243.36 160.73 246.53 156.85 250.31 148.66 254.35 152.82 257.11 147.45 261.2 141.34 263.57 135.65 265.31 134.24 267.83 125.37 270.76 123.57 273.43 116.92 275.86 113.02 275.42 107.72 277.01 101.95 278.94 97.22 280.84 87.47 282.46 86.58 281.51 92.8 278.85 98.36 277.1 104.41 273.99 111.46 273.35 114.27 271.02 122.14 267.62 123.41 266.48 127.61 264.47 128.59 260.16 131.48 256.81 124.93 258.53 123.09 257.55 120.02 259.62 116.31 256.73 114.77 258.77 112.65 255.94 106.97 258.22 103.48 258.21 102.99 254.83 104.02 252.74 100.36 250.72 92.97 251.81 88.17 249.14 84.28 247.78 84.26 244.56 79.88 242.14 82.08 238.87 86.71 235.7 88.74 232.78 93.34 232.36 97.23 233.27 101.82 230.53 105.95 231.02 110.28 229.26 109.22 226.66 106.04 225.64 110.25 223.45 106.76 223.51 100.73 224.75 98.99 226 94.51 224.75 86.47 225.39 78.15 224.03 75.76 221.74 68.57 218.44 76.56 216.06 89.24 213.28 93.91 213.28 93.13 216.12 105.13 215.9 100.52 212.38 93.53 210.22 89.48 207.38 84.03 204.95 76.22 203.16 79.4 200.18 89.48 199.99 96.66 197.4 98.01 194.63 103.82 191.93 109.35 191.28 120.13 188.76 125.35 189.14 134.1 186.11 142.7 187.3 146.81 189.87 149.33 188.77 158.94 189.11 158.6 190.42 167.29 191.38 173.09 190.82 185.06 192.61 196 193.15 200.37 193.88 207.93 192.96 216.55 194.67 222.73 195.46 233.33 196.83 242.28 199.57 248.2 200.09 253.19 197.72 260.08 195.95 268.52 196.64 277.03 194.14 286.33 192.73 290.24 195.08 294.48 193.75 295.75 191.08 299.68 191.68 309.28 196.78 316.85 192.93 317.62 197.24 324.6 196.31 326.75 194.65 333.63 194.98 342.32 197.36 355.62 199.45 363.45 200.41 369.01 200.05 376.68 202.93 368.68 205.75 378.96 206.97 394.3 206.3 399.14 205.3 405.2 208.71 411.38 205.83 405.58 203.42 409.25 201.48 416.17 201.22 420.71 200.65 425.3 202.01 431.01 205.09 437.36 204.64 447.4 207.2 456.22 206.3 464.51 206.44 463.86 202.9 468.91 201.91 477.72 203.83 477.68 209.21 481.3 204.68 485.87 204.83 488.44 199.12 482.36 195.61 475.72 193.32 476.18 187.04 482.9 182.91 490.39 183.82 496.14 186.33 503.86 192.74 498.82 195.53 509.39 196.68 509.37 202.5 516.96 198.04 523.75 201.7 522.06 205.91 527.56 209.75 533.49 205.64 537.64 200.74 537.95 194.5 546.03 194.93 554.43 195.77 562.06 198.59 562.4 201.41 558.17 204.44 562.18 207.48 561.45 210.25 550.33 214.22 542.42 215.1 536.54 213.39 534.85 216.24 529.37 221.03 527.71 223.52 521.12 227.37 512.99 227.74 508.5 230.14 508.12 233.84 501.51 234.55 494.56 239.15 488.39 245.55 486.19 250.03 485.88 256.64 494.23 257.58 496.79 262.9 499.45 267.22 507.4 266.09 517.96 268.55 523.64 270.71 527.71 273.4 534.83 274.96 540.85 277.36 550.23 277.69 556.42 278.24 555.49 283.16 557.26 288.87 561.37 295.23 569.83 300.63 574.2 298.78 577.28 292.93 574.31 283.96 570.3 280.97 579.4 278.3 585.84 274.32 588.99 270.36 588.52 266.56 584.67 261.73 577.76 257.46 584.47 251.5 581.99 246.35 580.09 237.48 584.05 236.17 593.79 237.71 599.64 238.27 604.34 236.77 609.64 238.7 616.64 241.99 618.36 244.2 628.49 244.63 628.32 249.4 630.21 256.59 635.4 257.48 639.52 260.82 647.75 257.67 653.19 251.4 656.95 248.75 661.38 253.83 668.78 261.08 675.06 267.9 672.78 271.47 680.34 274.67 685.45 277.92 694.51 279.39 698.16 281.2 700.41 286.01 704.83 286.76 707.12 288.91 707.53 295.29 703.41 297.43 699.33 299.43 689.96 301.45 682.81 306.11 673.2 307.04 661.05 305.84 652.52 305.8 646.63 306.19 641.87 310.27 634.63 312.79 626.43 320.31 619.89 325.56 624.72 324.62 633.84 317.16 645.76 312.42 654.26 311.85 659.29 314.64 653.93 318.46 655.73 324.58 657.58 328.87 664.97 331.71 674.36 330.89 680.06 324.5 680.45 328.62 684.12 330.68 677.09 334.4 664.5 337.79 658.87 340.09 652.51 344.18 648.2 343.76 647.98 338.95 657.85 334.25 648.75 334.44 642.44 335.13 643.42 336.99 637.35 339.75 631.51 341.71 625.51 343.39 622.5 346.77 621.54 348.04 621.48 351.06 623.35 354.07 625.71 354.21 625.12 352.14 626.82 353.4 626.37 355.02 622.53 355.95 619.8 355.83 615.6 356.83 613.12 357.11 609.82 357.39 605.08 359.04 613.43 357.97 615.11 359.04 607.16 360.75 603.54 360.76 603.7 360.06 601.97 361.64 603.65 361.9 602.42 365.98 598.28 370.35 597.86 368.9 596.61 368.6 594.75 367.18 595.93 370.24 597.34 371.25 597.43 373.4 595.6 375.61 592.41 380.15 591.89 379.92 593.65 376.05 590.74 373.88 590.08 369.16 588.98 371.62 590.19 375.22 586.44 374.33 590.35 376.16 590.6 381.57 592.23 381.96 592.82 383.93 593.62 389.61 590 393.83 584.12 395.52 580.39 398.85 577.55 399.22 574.67 401.3 573.86 403.21 567.62 406.9 564.42 409.61 561.74 412.97 560.86 417.01 561.87 420.96 563.76 425.82 566.29 429.84 566.32 432.3 569.01 438.89 568.83 442.73 568.59 444.94 567.17 448.41 565.47 449.12 562.67 448.43 561.77 445.94 559.61 444.63 556.6 439.75 553.96 435.4 553.11 433.17 554.27 429.4 552.68 426.28 548.25 421.52 546.03 420.65 540.3 423.23 539.28 422.95 536.52 420.29 532.96 418.89 526.54 419.6 521.49 418.97 517.16 419.37 514.81 420.25 515.83 421.76 515.74 424.07 516.95 425.19 515.86 425.94 513.75 425.1 511.62 426.18 507.5 426 503.25 423 498.3 423.71 494.16 422.39 490.63 422.79 485.85 424.12 480.67 428.33 475.02 430.78 471.92 433.49 470.61 436.05 470.56 439.97 470.84 442.7 471.92 444.63 469.7 444.8 471.92 444.63 469.72 449.62 468.72 453.71 468.31 461.33 467.76 464.1 468.74 467.2 470.51 469.98 471.64 474.38 475.41 478.61 476.74 481.86 478.96 484.66 485 486.16 487.35 488.54 492.33 486.95 496.67 486.38 500.92 485.36 504.5 484.38 508.11 482.06 509.47 478.75 509.93 473.97 510.92 472.31 514.77 470.82 520.78 469.51 525.81 469.7 529.26 469.22 530.62 470.43 530.43 473.16 527.37 476.54 526.02 480 527.07 480.99 526.22 483.45 524.79 487.88 523.35 486.43 522.16 486.52 522.18 487.35 523.26 487.38 523.16 488.93 522.24 491.38 522.74 492.26 522.15 494.3 522.51 494.84 521.85 497.71 520.73 499.22 519.7 499.4 518.58 501.37 520.43 502.4 520.92 501.55 522.59 502.28 523.18 502.5 524.42 501.5 526.05 501.42 526.58 501.88 527.46 501.6 530.1 502.11 532.73 501.96 534.56 501.33 535.22 500.7 537.03 500.99 538.39 501.38 539.88 501.24 541.01 500.75 543.6 501.54 544.51 501.66 546.24 502.73 547.88 504 549.95 504.87 551.45 506.43 550.96 506.98 550.67 508.25 551.25 510.33 549.94 512.26 549.33 514.55 549.14 517.06 549.45 518.52 549.59 521.08 548.72 521.64 548.19 524.07 548.58 525.57 547.42 527.02 547.69 528.56 548.56 529.49 550 532.58 552.19 534.87 554.86 537.29 556.9 539.33 556.79 540.54 559.05 540.79 559.59 540.33 561.15 541.73 563.95 541.32 566.37 539.88 569.82 538.73 571.76 537.04 574.9 537.37 574.68 537.93 577.85 538.12 580.38 539.1 582.24 540.81 584.38 542.38 583.69 543.21 585 546.56 583.93 548.25 582.1 547.84 581.37 550.61 579.48 548.97 578.26 545.9 579.67 544.38 578.23 543.99 577.16 542.11 574.33 540.53 571.85 540.9 570.69 542.87 568.4 544.3 567.16 544.5 566.6 545.68 569.31 548.77 567.76 549.49 566.94 550.33 564.3 550.62 563.31 547.23 562.57 548.2 560.7 547.86 559.55 545.58 557.22 545.2 555.74 544.53 553.31 544.54 553.13 545.78 552.48 544.92 549.39 543.65 548.24 542.46 548.89 541.47 548.69 540.22 547.11 538.86 544.88 537.74 542.92 537.01 542.55 535.35 541.05 534.34 541.42 535.99 540.29 537.35 538.99 535.77 537.16 535.21 536.38 534.06 536.42 532.33 537.17 530.54 535.56 529.74 536.87 528.64 534.9 526.85 532.24 524.56 530.99 522.64 528.6 520.86 525.75 518.29 526.38 517.41 527.32 518.27 527.75 517.86 526.77 516.09 525.04 515.59 524.41 516.93 521.12 516.85 519.07 516.3 516.72 515.17 513.57 514.82 511.96 513.6 509.04 512.61 505.5 512.5 502.9 511.38 499.84 509.03 493.41 502.91 490.48 501.07 485.84 499.59 482.66 500 478.1 502.14 475.23 502.7 471.22 501.2 466.96 500.12 461.65 497.51 457.39 496.71 450.95 494.07 446.2 491.36 444.76 489.84 441.58 489.5 435.77 487.7 433.4 485.11 427.3 481.88 424.45 478.3 423.09 475.53 424.99 474.97 424.4 473.35 425.71 471.88 425.74 469.91 423.82 467.36 423.31 465.1 421.4 462.23 416.39 456.58 410.68 452.14 407.92 448.6 403.04 446.28 401.99 444.89 402.86 441.38 399.96 440.05 396.61 437.29 395.19 433.32 392.13 432.86 388.83 429.87 386.17 427.1 385.92 425.33 382.87 421.04 380.85 416.69 380.94 414.51 376.83 412.25 374.93 412.5 371.69 410.93 370.78 413.24 371.72 415.97 372.27 420.24 374.22 422.58 378.44 426.49 379.37 427.83 380.24 428.24 380.99 430.19 382 430.11 383.14 433.78 384.86 435.22 386.07 437.24 389.65 440.13 391.53 445.41 393.22 447.9 394.8 450.57 395.11 453.56 397.85 453.75 400.13 456.33 402.19 458.87 402.05 459.89 399.66 461.98 398.65 461.95 397.16 458.5 393.44 455.26 389.34 452.51 386.43 451.06 386.62 446.91 385.76 443.83 383.05 442.06 379.14 439.53 378.39 440.26 376.96 438.78 373.45 437.4 370.1 434.1 370.52 433.67 372.86 434 374.97 431.87 375.18 429.31 370.8 425.26 367.47 423.68 365.37 420.13 363.27 416.41 360.63 411.86 358.32 406.75 357.37 403.85 353.68 400.58 351.03 399.9 350.41 398.27 347.22 397.98 345.19 396.45 339.91 395.89 338.46 394.97 337.77 391.85 332.26 386.14 327.52 378.24 327.72 376.93 325.22 375.05 320.82 370.29 320.03 365.65 317 362.55 318.25 357.84 318.05 352.96 316.24 348.61 318.46 343.25 319.15 338.09 319.84 332.94 318.81 325.31 317.02 320.45 315.36 317.81 316.05 316.7 324.27 318.63 327.3 324 328.7 322.5 327.79 317.84 325.86 313.18 Z M 546.64 236.72 550.86 234.1 558.67 234.15 558.54 235.25 551.89 238.39 547.88 238.26 546.64 236.72 Z M 570.61 177.9 564.35 174.88 564.59 172.84 567.33 172.46 580.33 173.07 590.13 176.19 590.64 177.76 584.6 177.6 578.47 177.48 572.25 178.24 570.61 177.9 Z M 567.54 238.81 569.73 237.1 572.06 237.23 573.51 238.39 571.28 241.38 568.77 240.9 567.28 239.2 567.54 238.81 Z M 491.97 165.52 488.87 167.73 480.62 167.3 473.73 165.82 476.76 163.26 484.93 161.73 489.89 163.73 491.97 165.52 Z M 490.68 151.09 488.09 151.25 477.44 150.89 475.92 149.3 487.37 149.38 491.35 150.44 490.68 151.09 Z M 474.11 144.01 480.9 145.98 479.36 148.04 470.96 149.21 466.33 147.89 463.89 145.76 463.44 143.41 470.8 143.63 474.11 144.01 Z M 523.01 168.87 513.84 168.16 498.73 166.33 496.77 163.21 496.08 160.39 490.37 157.91 478.61 157.22 472.03 155.46 474.17 153.13 485.88 153.49 492.19 155.32 503.38 155.3 508.28 157.17 506.99 159.31 513.51 160.59 517.12 161.94 524.79 162.19 533.08 162.67 542.11 161.44 553.68 160.95 562.92 161.35 569.01 163.5 570.28 165.85 566.73 167.36 558.26 168.58 550.98 167.89 534.68 168.76 523.01 168.87 Z M 391.65 147.49 399.66 148.38 397.77 150.08 387.18 151.72 378.75 149.88 383.35 148.07 391.65 147.49 Z M 393.36 143.79 400.75 144.94 393.82 146.05 384.39 146.04 384.48 145.23 390.31 143.53 393.36 143.79 Z M 708.01 300.01 704.97 303.59 701.21 308.56 704.92 306.64 708.74 307.86 706.74 309.84 711.79 311.4 714.41 310.01 720.07 311.76 718.32 315.92 722.29 314.95 723.02 317.97 724.78 321.5 722.39 326.5 719.82 326.71 716.08 325.64 717.32 320.99 715.73 320.27 709.14 325.2 705.75 325 709.76 322.33 704.31 320.95 698.2 321.29 687.17 321.12 686.3 319.43 689.84 317.43 687.37 315.89 692.14 312.46 698.01 303.41 701.54 300.18 706.47 298.22 709.1 298.47 708.01 300.01 Z M 547.27 221.62 553.49 223.57 560 225.34 560.5 228.04 564.69 227.6 568.75 229.49 563.7 231.27 554.86 229.91 551.67 227.35 546.03 230.37 537.94 233.31 535.99 229.99 528.29 230.54 533.23 227.72 533.96 223.25 535.89 218.05 540 218.51 541.05 221.01 543.96 220.13 547.27 221.62 Z M 576.32 180.46 581.7 178.2 594.31 181.08 602.13 183.78 602.87 186.26 613.42 184.98 619.35 188.6 633.07 190.84 638.02 193.13 643.39 198.45 632.96 201.1 646.34 204.81 655.37 206.06 663.53 211.28 672.47 211.66 670.71 215.65 660.73 222.25 653.74 219.82 644.8 214.36 637.45 215.07 636.73 218.32 642.71 221.63 650.42 224.24 652.76 225.75 656.46 231.38 654.5 235.46 647.34 233.92 633.08 229.37 641.12 234.27 647.03 237.7 647.96 239.69 632.55 237.42 620.35 234.12 613.46 231.35 615.45 229.75 606.97 226.83 598.69 224.07 598.78 225.72 582.35 226.62 577.54 224.67 581.28 220.49 591.96 220.39 603.66 219.66 601.76 217.63 603.75 214.8 611.1 209.26 609.54 206.75 607.35 204.8 598.64 202.04 587.13 200.11 590.77 198.67 584.75 195.14 579.74 194.81 575.26 192.88 572.22 194.56 561.91 195.29 541.23 194.02 529.21 192.35 519.99 191.49 515.27 189.5 521.21 186.9 513.14 186.88 511.33 181.13 515.7 176.04 521.55 173.72 536.22 172.21 532.04 175.88 536.52 179.43 541.77 174.84 556.17 172.51 565.92 178.39 565.08 182.11 576.32 180.46 Z M 486.9 170.33 498.75 170.53 509.6 171.91 501.11 176.97 494.33 178.07 488.24 182.32 481.75 182.11 478.21 177.12 478.3 174.29 481.27 171.88 486.9 170.33 Z M 325.77 159.07 335.42 154.81 347.09 151.13 355.81 151.21 363.6 150.38 362.82 154.74 358.45 156.72 353.14 156.99 342.57 159.43 333.48 160.3 325.77 159.07 Z M 269.76 284.53 275.22 284.08 273.52 290.53 278.47 295.1 276.2 295.09 272.77 292.49 270.67 289.88 267.81 288.11 266.75 285.61 267.09 283.8 269.76 284.53 Z M 424.45 140.96 435.61 141.74 450.98 143.81 455.32 146.52 457.54 148.89 448.26 148.25 438.9 146.41 426.25 146.2 431.74 144.51 424.87 143.14 424.45 140.96 Z M 322.05 315.96 319.19 316.75 309.86 314.17 308.16 312.15 303.07 310.17 302.05 308.55 296.2 307.52 294.01 304.43 294.5 303.11 300.46 304.35 303.95 305.22 309.29 305.82 311.22 307.78 314.03 310.48 319.71 312.82 322.05 315.96 Z M 333.26 168.54 341.38 169.72 355.89 170.04 361.41 171.69 367.51 174.08 360.37 175.51 346.43 179.51 339.39 183.48 339.39 185.96 324.43 188.7 321.43 186.21 308.3 183.21 310.74 180.8 314.68 176.65 319.61 172.91 314.05 169.43 333.26 168.54 Z M 411.23 160.61 416.29 159.66 422.24 159.9 423.24 162.69 419.79 165.38 400.54 166.26 386.2 168.72 377.56 168.85 376.83 167 388.64 164.49 362.96 165.16 355.01 164.15 362.77 158.6 368.12 157.01 384.11 158.92 394.21 162.29 404.14 162.72 396.01 157.29 401.21 155.21 407.08 155.87 409 158.58 411.23 160.61 Z M 418.6 176.35 424.96 178.64 428.53 184.18 430.29 188.18 439.84 191 450.09 193.69 449.48 196.19 440.14 196.65 443.77 198.83 441.85 200.92 431.57 200.02 421.79 198.49 415.19 198.83 404.52 200.76 390.11 201.61 380 202.15 376.92 199.47 369.17 197.92 364.12 198.56 357.12 194.06 360.9 193.45 369.67 192.48 377.68 192.73 385.1 191.75 374.11 190.42 361.97 190.87 353.91 190.76 350.91 188.66 364.09 186.39 355.32 186.47 345.4 184.97 350.17 180.71 354.13 178.45 369.34 174.99 375.15 176.09 372.31 178.75 384.96 177.03 392.86 179.9 399.29 177 404.48 178.86 409.13 184.45 411.98 182.09 407.95 176.27 412.95 175.44 418.6 176.35 Z M 453.18 178.45 446.91 174.73 453.64 171.98 460.42 173.18 470.56 172.46 472.03 174.11 466.73 176.83 475.33 179.28 474.31 184.39 464.99 186.59 459.52 186.12 455.58 183.95 441.46 179.56 441.57 177.74 453.18 178.45 Z M 418.16 173.37 425.77 173.14 430.09 174.39 425.09 178.14 416.22 174.16 418.16 173.37 Z M 464.19 155.64 468.54 158.27 468.71 161.19 466.12 165.41 456.75 165.99 450.64 165.09 450.76 161.77 441.45 162.21 441.09 157.81 447.2 157.99 455.76 156.05 463.75 156.38 464.19 155.64 Z M 478.31 133.57 482.25 131.84 488.07 131.44 485.59 130.14 498.8 129.85 506.06 132.88 515.63 134.1 524.95 135.18 529.44 138.93 536.29 140.76 528.48 142.45 517.98 146.73 507.93 147.14 496.15 146.41 490.04 144.09 490.13 142.03 494.62 140.52 484.23 140.56 477.97 138.67 474.37 136.1 478.31 133.57 Z M 503.48 126.23 511.93 125.14 518.57 124.96 529.72 124.04 538.08 121.92 545.12 122.22 551.26 123.81 555.58 120.74 563.08 119.83 573.27 119.2 590.65 118.97 593.66 119.58 610.07 118.62 622.38 118.98 634.69 119.34 649.88 119.79 662.09 120.51 672.49 122.06 672.24 123.57 658.37 126.04 644.62 127.19 639.48 128.46 651.85 128.43 638.44 131.88 629.18 133.49 619.46 138.13 607.74 139.07 604.12 140.23 586.91 140.84 594.74 141.55 590.81 142.57 595.51 145.37 590.11 147.32 581.33 148.93 578.64 151.15 570.7 152.85 571.49 154.14 581.21 153.92 581.33 155.31 566.14 158.72 551.29 157.15 534.6 158.03 526.14 157.34 515.39 157.04 514.68 154.32 525.19 153.03 522.39 148.93 525.86 148.53 541.05 150.98 533.3 147.34 524.08 146.25 528.69 144.05 538.76 142.7 540.38 140.71 532.35 138.49 529.94 135.57 545.47 135.81 549.96 136.43 558.83 134.36 546.03 133.7 526.15 134.06 516.1 132.13 511.36 129.83 504.73 128.17 503.48 126.23 Z M 596.52 208.35 592.83 210.03 586.46 210.32 585.04 207.54 587.45 204.35 592.66 203.56 597.1 205.14 597.16 207.57 596.52 208.35 Z M 476.94 196.73 480.4 198.9 476.87 200.89 469.21 199.17 464.58 199.79 456.82 197.24 461.82 195.48 465.79 193.01 471.82 194.62 475.23 195.65 476.94 196.73 Z M 657.32 308.22 659.28 307.74 666.76 309.16 672.57 311.54 672.73 312.58 669.97 312.68 662.6 310.9 657.32 308.22 Z M 660.18 324.34 662.17 327.1 666.29 327.86 671.56 327.71 668.77 330.04 666.66 330.41 659.46 328 658.04 326.09 660.18 324.34 Z M 140.8 477.54 141.81 478.03 142.73 478.8 144.18 480.79 144.04 481.1 141.82 482.32 140 483.2 139.17 484.15 137.76 483.34 137.92 481.75 136.98 479.68 137.27 479.05 138.25 478.12 137.86 477.01 138.19 476.48 138.62 476.58 140.8 477.54 Z M 137.42 473.65 136.95 474.33 135.04 474.74 134.07 473.54 133.41 473.08 133.36 472.73 133.92 472.24 135.94 472.78 137.42 473.65 Z M 133.09 471.31 132.91 471.92 129.87 471.76 130.29 471.06 133.09 471.31 Z M 125.89 468.24 126.37 468.6 128.01 470.48 127.7 470.81 127.29 470.74 125.31 470.54 124.59 469.25 124.37 469.02 125.89 468.24 Z M 118.27 465.41 118.39 466.73 117.71 467.29 115.8 466.26 116.09 465.84 116.96 465.29 118.27 465.41 Z M 77.91 248.48 82.42 248.99 82.96 251.17 79.47 252.06 75.75 250.99 72.3 249.45 77.91 248.48 Z M 153.15 262.2 156.92 262.59 159.33 264.35 154.41 267.05 148.74 269.22 145.83 267.75 144.95 265.09 150.11 263.07 153.15 262.2 Z M 47.99 229.16 51.5 230.25 55.04 229.66 59.64 231.16 65.28 231.92 64.81 232.54 60.51 233.74 56.18 232.51 54.02 231.48 49.01 231.81 47.65 231.3 47.99 229.16 Z M 616.46 489.11 612.68 488.14 610 488.53 606.53 488.12 603.87 489.19 600.83 487.41 601.33 485.58 606.56 486.37 610.85 486.83 612.9 485.56 610.3 483.1 610.34 480.93 606.76 480.04 608.04 478.47 611.51 478.72 616.43 479.62 617.15 478.65 621.58 478.68 624.95 480.14 626.45 480 627.48 482.01 630.59 481.9 630.4 483.59 632.93 483.8 635.73 485.88 633.62 488.2 630.91 486.96 628.3 487.2 626.43 486.93 625.41 487.96 623.23 488.31 622.36 486.94 620.48 487.75 618.21 491.64 616.75 490.74 616.46 489.11 Z M 575.13 439.4 577.8 438.95 581.55 439.12 581.72 440.6 575.53 441.51 575.13 439.4 Z M 581.89 437.98 586.38 440.54 585.4 444.58 584.36 443.85 584.45 440.88 581.9 438.64 581.89 437.98 Z M 579.62 448.38 581.33 448.61 583.31 453.33 583.34 456.63 581.95 456.91 580.51 453.64 578.38 451.99 579.62 448.38 Z M 758.23 122.06 777.31 118.66 797.25 118.92 804.5 116.82 824.58 116.28 869.98 116.99 905.53 121.5 895.03 123.69 873.29 123.94 842.7 124.49 845.56 125.51 865.68 124.88 882.8 126.84 893.83 125.1 898.56 127.14 892.32 130.44 906.79 128.33 934.38 126.13 951.42 127.23 954.61 129.65 931.45 133.7 928.24 135.01 910.07 135.99 923.23 136.26 916.58 140.4 912.01 144.09 912.19 150.42 919.01 154.13 910.13 154.36 900.79 156.16 911.28 159.17 912.61 164 906.54 164.53 913.9 169.41 901.27 169.82 907.86 172.13 906 174.14 897.99 175.02 890.07 175.04 897.19 178.88 897.26 181.42 886.02 179.06 883.09 180.58 890.77 182.01 898.21 185.48 900.37 190.06 890.24 191.15 885.86 188.96 878.83 185.7 880.77 189.55 874.17 192.54 889.15 192.78 896.98 193.09 881.75 198.04 866.3 202.52 849.67 204.48 843.4 204.51 837.52 206.7 829.62 212.7 817.39 216.68 813.47 216.92 805.9 218.31 797.73 219.64 792.86 223.15 792.79 227.14 789.91 230.87 780.64 235.42 782.93 239.86 780.38 244.56 777.47 250.11 769.46 250.45 761.07 245.81 749.71 245.78 744.19 242.67 740.4 237.12 730.55 230.05 727.67 226.35 726.89 221.24 719.02 216 721.07 211.81 717.28 209.8 722.89 203.16 731.45 201.05 733.69 198.67 734.88 194.23 728.39 196.24 725.3 197.09 720.19 197.9 713.22 196.04 712.84 192.18 715.06 189.16 720.33 189.08 731.93 190.59 722.16 186.98 717.08 185.03 711.42 185.83 706.67 184.43 713.02 179.13 709.56 177.01 705.05 173.09 698.21 167.06 690.97 164.85 691.04 162.47 675.79 159.15 663.72 158.73 648.53 158.96 634.67 159.38 628.07 157.57 618.2 154 633.12 152.21 644.56 151.91 620.24 150.43 607.43 148.11 608.21 145.9 629.73 143.17 650.54 140.44 652.74 138.37 637.4 136.33 642.36 134.06 662.03 130.1 670.3 129.49 667.93 126.93 681.39 125.44 698.87 124.54 716.34 124.49 722.54 126.26 737.61 123.13 751.18 125.26 759.16 125.71 770.96 127.56 757.45 124.49 758.23 122.06 Z M 647.29 486.44 650.2 486.94 651.22 488.07 649.77 489.5 645.49 489.46 642.17 489.67 641.84 487.23 642.64 486.4 647.29 486.44 Z M 583.15 486.57 586.97 487.08 589.99 488.45 590.93 490 586.94 490.11 585.21 491.06 582.03 490.15 578.78 488.08 579.46 486.78 581.85 486.38 583.15 486.57 Z M 556.44 459.87 561.35 460.28 565.82 460.34 571.15 462.28 573.42 464.36 578.73 463.72 580.74 465.05 585.55 468.57 589.09 471.14 590.96 471.06 594.35 472.22 593.94 473.82 598.13 474.05 602.42 476.38 601.75 477.71 597.97 478.43 594.14 478.71 590.23 478.26 582.09 478.82 585.9 475.65 583.58 474.17 579.92 473.79 577.96 472.15 576.61 468.91 573.4 469.13 568.1 467.61 566.39 466.42 558.98 465.54 557 464.43 559.13 463.01 553.56 462.72 549.47 465.67 547.12 465.75 546.3 467.14 543.49 467.76 541.06 467.22 544.06 465.46 545.29 463.41 547.86 462.15 550.76 461.04 555.07 460.5 556.44 459.87 Z M 673.45 530.51 676.72 529.77 677.91 529.97 677.69 534.2 672.94 534.83 671.92 534.32 673.57 532.75 673.45 530.51 Z" fill-rule="evenodd" stroke="#ffffff" stroke-width="0.8" fill="none" id="NA"/>
<path d="M 1322.39 354.19 1322.07 352.81 1323.47 350.44 1322.38 348.46 1315.8 346.52 1313.23 341.42 1310.09 339.98 1309.9 338.13 1315.43 338.67 1315.65 334.51 1320.48 333.59 1325.45 334.44 1326.47 328.89 1325.46 325.38 1319.77 325.65 1314.94 324.27 1308.36 326.77 1303.06 327.96 1300.17 327.04 1300.75 324.11 1297.13 320.32 1292.91 320.48 1288.08 316.62 1291.36 312.31 1289.7 311.15 1294.24 304.91 1300.08 308.21 1300.79 304.06 1312.52 297.87 1321.4 297.73 1333.93 301.66 1340.66 303.96 1346.69 301.56 1355.7 301.45 1362.97 304.39 1364.62 302.71 1372.6 302.95 1374.03 300.26 1364.82 296.35 1370.27 293.58 1369.21 292.04 1374.66 290.56 1370.56 286.67 1373.16 284.73 1394.43 282.75 1397.21 281.34 1411.43 279.25 1416.54 276.89 1426.75 278.11 1428.54 284 1434.47 282.62 1441.77 284.56 1441.3 287.66 1446.75 287.34 1461 281.97 1458.92 283.76 1466.17 288.15 1478.87 302.58 1481.9 299.6 1489.73 302.88 1497.89 301.42 1501.03 302.44 1503.77 305.72 1507.74 306.83 1510.16 309.24 1517.48 308.48 1520.5 311.96 1522.72 311.49 1528.71 310.5 1539.56 305.61 1548.2 302.94 1553.14 304.68 1559.07 304.76 1562.87 307.42 1568.54 307.62 1576.76 309.05 1582.28 305.09 1579.98 301.75 1585.86 295.86 1592.23 298.21 1597.39 298.87 1604.07 300.33 1605.15 304.59 1613.23 306.98 1618.6 305.93 1625.79 305.19 1631.48 305.94 1637.05 308.67 1640.5 311.57 1645.77 311.51 1652.93 312.44 1658.15 311.03 1665.64 310.09 1673.96 306.08 1677.37 306.7 1680.34 308.6 1687.12 308.13 1693.95 310.27 1701.96 306.68 1701.9 304.18 1707.03 298.15 1710.2 296.33 1710.12 293.19 1707.01 291.84 1711.7 289.02 1718.76 287.99 1726.3 287.84 1734.8 289.53 1739.8 291.62 1743.31 297.35 1745.44 299.8 1747.42 303.29 1749.52 308.86 1759.41 310.67 1766.14 314.71 1768.44 320.05 1777.08 320.06 1782.01 317.82 1791.4 316.14 1788.41 321.26 1786.21 323.34 1784.26 329.56 1780.44 335.09 1773.54 334.09 1768.66 336.09 1770.16 340.96 1769.34 347.68 1766.44 347.83 1766.47 350.72 1767.27 351.71 1765.11 351.37 1762.64 353.29 1760.94 355.23 1761.16 359.31 1758.22 360.57 1757.21 361.57 1755.07 363.25 1751.28 364.18 1748.82 365.71 1748.64 368.17 1747.97 368.8 1750.24 369.72 1753.45 372.22 1758.36 378.92 1759.77 382.6 1759.81 389.15 1757.67 392.28 1752.52 393.37 1747.98 395.72 1742.86 396.21 1742.23 393.12 1743.28 388.85 1740.77 382.94 1744.99 381.98 1741.09 377.12 1738.33 376.04 1737.65 377.1 1735.98 377.58 1735.78 376.51 1734.31 375.99 1732.78 375.08 1734.34 372.58 1735.68 371.91 1735.17 370.87 1736.61 367.81 1736.24 366.88 1732.92 366.26 1730.24 364.73 1722.3 366.39 1718.11 369.04 1711.99 370.59 1715.01 367.96 1713.82 365.75 1718.32 361.93 1715.32 358.95 1710.37 360.96 1703.95 364.91 1700.45 368.58 1694.88 368.85 1691.98 371.5 1694.97 375.35 1699.62 376.28 1699.81 378.83 1704.31 380.49 1710.68 376.43 1715.73 378.64 1719.4 378.79 1720.32 381.77 1712.28 383.36 1709.62 386.43 1704.09 389.28 1701.18 393.26 1707.29 396.38 1709.53 401.97 1712.98 407.18 1716.84 411.54 1716.75 415.77 1713.19 417.32 1714.55 420.35 1717.89 422.11 1717.02 426.74 1715.57 431.25 1712.4 431.76 1708.25 437.91 1703.64 445.37 1698.37 452.15 1690.55 457.4 1682.65 462.18 1676.24 462.83 1672.77 465.36 1670.8 463.51 1667.59 466.34 1659.64 469.18 1653.63 470.05 1651.69 476.06 1648.54 476.39 1647.05 472.26 1648.4 470.07 1640.77 468.25 1638.09 469.17 1630.5 474.03 1625.76 479.4 1624.51 483.35 1628.86 489.34 1634.17 496.76 1639.33 500.27 1642.78 504.84 1645.39 515.36 1644.62 525.35 1639.88 529.1 1633.37 532.76 1628.74 537.49 1621.65 542.79 1619.59 539.14 1621.18 535.29 1616.97 532.06 1612.21 531.23 1609.9 528.27 1607.02 522.4 1601.92 519.79 1597.06 519.9 1597.89 515.43 1592.89 515.47 1592.44 521.72 1589.37 530.02 1587.52 535.04 1587.91 539.15 1591.62 539.33 1593.92 544.52 1594.94 549.44 1598.12 552.69 1601.56 553.35 1604.5 556.3 1605.81 556.83 1609.17 560.26 1611.55 564.07 1611.88 567.9 1611.27 570.48 1611.82 572.44 1612.24 575.8 1614.24 577.37 1616.48 582.39 1616.37 584.31 1612.34 584.69 1606.96 580.48 1600.24 575.97 1599.57 573.08 1596.29 569.27 1595.5 564.57 1593.45 561.47 1594.07 557.33 1592.82 554.92 1590.58 552.74 1589.6 549.93 1586.58 546.72 1583.83 544.02 1582.9 547.36 1581.82 544.21 1582.44 540.66 1584.11 535.21 1583.56 530.99 1585.31 526.64 1583.4 523.27 1583.86 517.08 1581.56 514.14 1579.7 507.34 1578.68 500.16 1576.22 495.45 1572.47 498.3 1566.02 502.35 1562.83 501.84 1559.31 500.51 1561.27 493.47 1560.08 488.15 1555.62 481.6 1556.32 479.55 1552.99 478.82 1548.96 474.18 1547.34 471.22 1547.01 468.32 1545.93 465.59 1543.55 462.28 1538.32 462.05 1538.84 464.4 1537.05 467.56 1534.63 466.41 1533.81 467.44 1532.2 466.82 1530 466.31 1529.18 468.39 1525.32 468.31 1518.31 469.49 1518.64 473.77 1515.6 477.13 1507.43 480.96 1501.06 487.64 1496.79 491.23 1491.13 494.95 1491.12 497.56 1488.29 498.96 1483.17 501 1480.51 501.3 1478.81 505.64 1479.99 513.03 1480.29 517.74 1477.89 523.14 1477.86 532.8 1474.92 533.07 1472.33 537.41 1474.06 539.28 1468.88 540.89 1466.97 544.76 1464.69 546.39 1459.3 541.08 1456.67 533.13 1454.49 527.39 1452.5 524.7 1449.48 519.24 1448.07 512.14 1447.09 508.59 1441.92 500.78 1439.56 489.77 1437.87 482.49 1437.89 475.61 1436.78 470.29 1428.51 473.69 1424.51 473.01 1417.08 466.12 1419.82 464.07 1418.14 461.84 1411.47 457.01 1407.3 455.57 1405.61 451.49 1401.22 447.16 1390.75 448.23 1381.51 448.34 1373.51 449.13 1362.82 447.42 1356.62 446.11 1350.21 445.37 1347.78 438.4 1345.06 437.4 1340.7 438.41 1334.96 441.16 1328.02 439.28 1322.28 434.91 1316.81 433.29 1313.01 427.9 1308.82 420.32 1305.76 421.24 1302.15 419.36 1300.03 421.58 1296.66 421.3 1297.84 423.81 1297.33 425.1 1299.16 429.39 1301.39 434.29 1304.19 435.59 1305.16 437.59 1309.03 439.98 1309.38 442.32 1308.81 444.21 1309.53 446.12 1311.16 447.71 1311.92 449.58 1312.77 450.97 1312.39 446.84 1313.93 443.85 1315.48 443.24 1317.2 445.02 1317.3 448.35 1316.06 451.7 1317.14 453.87 1318.15 453.59 1318.36 455.15 1322.81 454.25 1327.51 454.4 1330.95 454.57 1334.84 450.73 1339.08 447.08 1342.67 443.58 1344.32 441.64 1345.03 442.14 1344.49 444.49 1343.75 445.52 1344.52 450.01 1347.07 453.89 1350.24 455.95 1354.41 456.69 1357.78 457.73 1360.34 460.99 1361.87 462.88 1363.91 463.6 1363.9 464.86 1361.83 468.25 1360.92 469.85 1358.53 471.66 1356.41 475.56 1353.83 475.26 1352.65 476.61 1351.73 479.49 1352.43 483.29 1351.9 483.99 1349.28 483.97 1345.73 486.1 1345.18 488.87 1343.88 490.07 1340.34 490.02 1338.12 491.45 1338.15 493.75 1335.4 495.32 1332.26 494.79 1328.46 496.71 1325.83 497.03 1321.72 498.55 1320.62 501.08 1320.49 503.02 1314.83 505.42 1305.75 508.07 1300.66 512.08 1298.16 512.39 1296.45 512.05 1293.13 514.41 1289.51 515.51 1284.74 515.8 1283.3 516.12 1282.06 517.63 1280.57 518.04 1279.69 519.49 1276.88 519.36 1275.06 520.13 1271.13 519.84 1269.65 516.52 1269.81 513.42 1268.88 511.74 1267.77 507.54 1266.14 505.2 1267.28 504.92 1266.69 502.33 1267.38 501.23 1267.13 498.75 1266.39 496.33 1264.68 494.61 1264.24 492.35 1261.3 490.31 1258.27 485.54 1256.67 480.91 1252.74 477 1250.21 476.07 1246.44 470.65 1245.78 466.7 1246.03 463.33 1242.77 457.03 1240.1 454.81 1237.03 453.64 1235.16 450.38 1235.47 449.1 1233.89 446.15 1232.24 444.88 1230.02 440.65 1226.56 436.07 1223.66 432.17 1220.83 432.2 1221.71 429.08 1221.96 427.09 1222.67 424.82 1222.48 424 1221.91 422.52 1218.74 414.23 1220.4 412.36 1220.01 412.04 1221.51 409.38 1222.66 405.09 1223.48 403.65 1223.63 403.59 1225.66 398.97 1228.48 394.96 1228.59 394.76 1228.06 390.41 1229.45 388.08 1227.36 385.5 1229.51 383.36 1226.05 383.85 1221.29 382.54 1217.39 385.81 1208.76 386.45 1204.16 383.4 1198.03 383.21 1196.72 385.57 1192.79 386.24 1187.3 383.21 1181.09 383.32 1177.73 377.66 1173.58 374.51 1176.34 370.09 1172.74 367.38 1179.04 361.94 1187.79 361.71 1190.18 357.39 1201.01 358.15 1207.84 354.46 1214.47 352.85 1223.87 352.73 1233.79 356.74 1241.94 358.94 1248.56 358.06 1253.46 358.57 1260.17 355.6 1261.01 353.17 1259.59 349.29 1256.31 347.2 1253.16 346.55 1251.08 344.81 1251.77 344.13 1256.57 345.11 1264.94 346.03 1272.68 348.75 1273.68 349.81 1277.12 348.91 1282.42 350.1 1284.16 352.44 1287.73 353.75 1289.33 353.94 1293.24 357.4 1295.75 357.78 1296.73 356.34 1300.12 354.05 1303.11 357.04 1306 361.07 1308.65 361.34 1310.4 362.87 1305.72 363.33 1304.73 367.74 1303.75 369.73 1301.67 371.06 1301.82 373.87 1303.62 378.07 1309.01 379.25 1312.95 382.1 1321.03 383.08 1329.91 381.58 1330.45 380.25 1329.4 376.23 1330.22 370.28 1325.79 368.36 1327.25 364.47 1323.48 364.14 1324.74 359.35 1330.09 360.74 1335.09 358.92 1330.95 355.51 1329.32 352.26 1324.74 353.71 1324.16 357.88 1322.39 354.19 Z M 1825.35 606.44 1825.45 624.96 1825.54 643.48 1820.48 638.82 1814.71 637.67 1813.31 639.29 1806.11 639.47 1808.52 634.84 1812.1 633.26 1810.62 627.08 1807.89 622.31 1796.87 617.5 1792.19 617.03 1783.65 611.77 1781.97 614.54 1779.79 615.04 1778.5 612.95 1778.48 610.48 1774.14 607.69 1780.26 605.64 1784.32 605.76 1783.84 604.25 1775.52 604.24 1773.27 600.85 1768.19 599.8 1765.79 596.99 1773.45 595.61 1776.36 593.76 1785.48 596.1 1786.38 598.21 1787.97 607.4 1793.85 610.8 1798.6 604.77 1805.12 601.34 1810.17 601.34 1815.03 603.32 1819.25 605.35 1825.35 606.44 Z M 1734.92 645.05 1731.21 649.29 1726.35 650.54 1725.66 649.86 1726.18 647.93 1728.62 644.46 1734.24 642.2 1734.91 640.86 1739.8 639.58 1743.76 639.39 1745.54 638.68 1747.69 639.39 1745.6 640.93 1739.68 643.41 1734.92 645.05 Z M 1786.76 630.85 1786.21 626.57 1787.22 624.53 1788.41 622.61 1789.7 624.27 1789.68 626.98 1786.76 630.85 Z M 1693.96 568.15 1690.73 573.28 1694.91 578.66 1693.93 581.27 1700.3 586.53 1693.56 587.2 1691.67 591.08 1691.91 596.23 1686.45 600.12 1686.3 605.78 1684.11 614.47 1683.27 612.45 1676.81 615 1674.56 611.53 1670.51 611.21 1667.68 609.39 1660.92 611.43 1658.85 608.68 1655.12 608.99 1650.44 608.34 1649.57 600.71 1646.73 599.13 1644.01 594.27 1643.21 589.3 1643.88 584.03 1647.25 580.26 1651.42 582.21 1655.81 581.14 1656.95 576.33 1659.38 575.26 1666.19 574.03 1670.27 569.53 1673.06 565.94 1675.31 563.81 1680.14 560.7 1684.52 556.75 1687.39 552.31 1689.69 552.29 1692.61 555.16 1692.87 557.63 1696.61 559.22 1701.35 560.93 1700.95 563.15 1697.13 563.43 1698.15 566.21 1693.96 568.15 Z M 1759.26 607.59 1765.51 609.24 1767.58 613.59 1762.78 611.25 1758.03 610.77 1754.82 611.15 1750.89 610.95 1752.24 607.82 1759.26 607.59 Z M 1745.07 613.21 1741.14 612.16 1740.04 609.72 1745.79 609.45 1747.2 611.32 1745.07 613.21 Z M 1751.08 579.3 1751.49 582.41 1754.85 582.9 1755.38 585.23 1755.08 590.19 1752.15 589.64 1751.28 593.09 1753.63 596.09 1752.04 596.78 1749.74 593.18 1748.05 585.91 1749.2 581.37 1751.08 579.3 Z M 1722.64 586.69 1729.17 586.45 1734.79 582.32 1735.78 583.59 1731.22 589.23 1726.95 590.32 1721.48 589.21 1712.01 589.49 1707.04 590.31 1706.23 594.61 1711.32 599.67 1714.39 597.09 1724.99 595.16 1724.52 597.78 1722.04 596.95 1719.57 600.28 1714.57 602.49 1719.95 609.77 1718.91 611.72 1724.02 618.28 1723.97 622.01 1720.94 623.68 1718.71 621.69 1721.46 617.03 1715.88 619.23 1714.47 617.66 1715.2 615.47 1711.1 612.13 1711.53 606.6 1707.74 608.32 1708.22 614.95 1708.45 623.08 1704.84 623.91 1702.4 622.24 1704.03 617.01 1703.15 611.52 1700.76 611.48 1699 607.59 1701.35 603.86 1702.15 599.35 1705.01 590.78 1706.2 588.44 1711.03 584.22 1715.47 585.9 1722.64 586.69 Z M 1707.68 649.96 1700.13 645.98 1705.43 644.86 1708.42 646.6 1710.41 648.32 1710.07 649.86 1707.68 649.96 Z M 1713.63 640.18 1717.41 639.75 1722.5 637.66 1721.67 640.82 1713.13 642.43 1705.57 641.73 1705.55 639.66 1710.06 638.47 1713.63 640.18 Z M 1696.11 639.19 1699.63 638.72 1701.04 641.14 1694.47 642.28 1690.53 643.04 1687.47 643 1689.43 639.73 1692.54 639.68 1694.07 637.67 1696.11 639.19 Z M 1640.57 628.16 1641.34 630.18 1652.23 630.75 1653.48 628.41 1664.03 631.14 1666.1 634.82 1674.62 635.86 1681.59 639.24 1675.11 641.4 1668.86 639.11 1663.71 639.27 1657.82 638.85 1652.5 637.82 1645.91 635.65 1641.74 635.09 1639.38 635.8 1629.01 633.46 1628.03 631.02 1622.83 630.6 1626.73 625.17 1633.62 625.51 1638.21 627.73 1640.57 628.16 Z M 1617.17 597.83 1618.13 601.79 1620.11 604.96 1624.29 605.47 1627.05 609.06 1625.62 616.13 1625.4 624.92 1619.1 625.04 1614.32 620.29 1607.02 615.65 1604.59 612.2 1600.28 607.57 1597.46 603.31 1593.14 595.36 1588.15 590.62 1586.48 585.73 1584.38 581.3 1579.26 577.72 1576.29 572.86 1572.01 569.67 1566.08 563.41 1565.58 560.52 1569.24 560.75 1578.04 561.84 1583.06 567.4 1587.46 571.26 1590.59 573.62 1595.98 579.73 1601.76 579.82 1606.53 583.71 1609.82 588.47 1614.15 591.07 1611.87 595.71 1615.13 597.68 1617.17 597.83 Z M 1172.43 353.95 1178.22 352.16 1183.11 352.92 1183.79 355.1 1188.75 356.94 1187.72 358.33 1180.97 358.65 1178.54 360.4 1173.8 363.46 1172.01 360.82 1172.09 359.64 1173.44 359.01 1175.2 355.45 1172.43 353.95 Z M 1488.83 548.91 1487.97 554.82 1485.59 556.44 1480.65 557.74 1477.94 553.22 1476.93 545.05 1479.51 535.83 1483.43 538.99 1486.08 542.99 1488.83 548.91 Z M 1646.18 488.24 1641.52 486.48 1641.36 481.59 1644.16 479.01 1650.37 477.42 1653.64 477.55 1654.91 479.72 1652.41 482.22 1651.09 485.51 1646.18 488.24 Z M 1716.1 453.02 1712.68 462.13 1710.25 466.8 1707.25 462 1706.6 457.78 1709.95 452.2 1714.5 447.9 1717.09 449.59 1716.1 453.02 Z M 1710.74 519.46 1707.84 515.13 1712.71 515.34 1714.68 517.38 1713.17 522.29 1710.74 519.46 Z M 1720.7 534.94 1722.12 533.34 1722.75 529.82 1725.89 529.48 1724.97 533.31 1729.18 527.82 1728.63 533.24 1726.59 535.11 1724.81 538.7 1723.03 540.39 1719.53 536.46 1720.7 534.94 Z M 1742.24 543.84 1742.82 547.61 1743.15 550.8 1741.22 556 1739.14 550.21 1736.48 553.09 1738.3 557.28 1736.67 559.94 1729.98 556.64 1728.39 552.53 1730.12 549.83 1726.52 547.14 1724.73 549.5 1722.06 549.28 1717.85 552.45 1716.91 550.79 1719.14 546 1722.72 544.4 1725.82 542.26 1727.83 544.83 1732.15 543.27 1733.08 540.74 1737.1 540.59 1736.76 536.19 1741.37 538.89 1741.84 541.75 1742.24 543.84 Z M 1697.5 538.71 1689.94 544.11 1692.73 540.13 1696.83 536.62 1700.24 532.69 1703.22 527.04 1704.24 531.68 1700.48 534.81 1697.5 538.71 Z M 1719.28 488.08 1718.36 490.44 1720.3 494.51 1718.8 499.24 1715.45 501.12 1714.55 505.7 1715.83 510.23 1718.84 510.85 1721.35 510.18 1728.45 513.33 1727.91 516.43 1729.76 517.79 1729.17 520.41 1724.74 517.62 1722.64 514.64 1721.18 516.72 1717.56 513.32 1712.4 514.16 1709.57 512.9 1709.86 510.55 1711.64 509.11 1709.94 507.79 1709.21 509.84 1706.4 506.58 1705.55 504.1 1705.34 498.66 1707.63 500.53 1708.22 491.64 1710.07 486.49 1713.51 486.5 1717.01 488.12 1718.76 486.64 1719.28 488.08 Z M 1717.58 526.78 1716.7 524.08 1720.12 525.84 1723.73 525.83 1723.62 528.2 1720.99 530.61 1717.38 532.32 1717.18 529.68 1717.58 526.78 Z M 1737.27 522.54 1738.87 528.88 1734.48 527.37 1734.6 529.28 1735.99 532.79 1733.29 534.06 1733.05 530.07 1731.34 529.77 1730.45 526.33 1733.8 526.78 1733.72 524.63 1730.25 520.29 1735.71 520.42 1737.27 522.54 Z M 1830.38 368.98 1825.12 374.71 1825.22 380.57 1823.08 385.11 1824.07 387.95 1821.11 391.96 1813.84 394.63 1803.85 394.98 1795.76 401.47 1791.94 399.29 1791.7 395.04 1781.82 396.29 1775.09 398.97 1768.44 399.08 1774.2 403.26 1770.41 412.92 1766.73 415.31 1763.98 413.1 1765.38 407.98 1761.78 406.33 1759.47 402.43 1764.84 400.68 1767.83 397.11 1773.54 394.17 1777.71 390.28 1789.02 388.59 1795.1 389.75 1801.05 379.64 1804.84 382.36 1813.17 376.68 1816.41 374.47 1819.98 367.52 1819 361.13 1821.4 357.54 1827.45 356.49 1830.55 364.38 1830.38 368.98 Z M 1845.89 341.82 1849.91 339.41 1851.17 345.79 1842.74 347.34 1837.76 352.99 1828.83 349.1 1825.73 355.32 1819.41 355.41 1818.63 349.76 1821.44 345.38 1827.51 345.07 1829.17 337.21 1830.85 332.78 1837.53 338.69 1841.89 340.61 1845.89 341.82 Z M 1776.31 401.48 1779.45 398.09 1782.69 398.74 1785.02 396.35 1789.2 397.58 1789.92 399.53 1786.72 402.97 1784.39 401.14 1781.48 402.47 1779.97 405.79 1776.26 404.17 1776.31 401.48 Z M 1210.03 391.95 1210.43 391.92 1211.25 390.55 1215.34 390.62 1220.51 388.93 1216.67 391.35 1217.08 392.41 1217.26 392.87 1211.44 395.18 1208.65 394.44 1207.33 392.16 1210.03 391.95 Z" fill-rule="evenodd" stroke="#ffffff" stroke-width="0.8" fill="none" id="AS"/>
<path d="M 633.93 890.81 636.11 893.45 638.95 897.71 646.34 901.12 654.3 902.54 651.74 905.38 646.34 905.67 643.44 903.66 641.56 905.96 636.69 907.72 633.9 907.54 630.53 907.08 626.4 905.37 620.45 904.55 613.3 901.38 607.5 898.32 599.67 891.95 604.35 893.15 612.33 896.94 619.87 898.98 622.8 896.38 624.65 892.49 629.89 890.14 633.93 890.81 Z M 691.94 784.38 691.55 787.35 698.77 792.21 697.99 796.13 701.54 798.61 701.25 801.39 695.79 808.67 687.37 811.72 675.97 812.9 669.72 812.33 670.92 815.72 669.75 819.98 670.8 822.84 667.39 824.84 661.57 825.63 656.11 823.56 653.91 825.04 654.71 830.69 658.54 832.4 661.65 830.61 663.35 833.56 658.11 835.33 653.55 838.86 652.71 844.58 651.37 847.62 646 847.64 641.55 850.55 639.92 854.81 645.51 858.97 650.94 860.12 648.98 865.22 642.27 868.42 638.58 875.09 633.39 877.33 631.06 879.99 632.9 885.89 636.68 889.18 634.29 888.9 629.23 888.85 626.49 890.25 621.36 892.31 620.45 897.61 618.04 897.75 611.63 895.9 605.12 891.94 598.05 888.69 596.27 885.09 597.88 881.76 595.02 877.98 594.29 868.29 596.71 862.82 602.71 858.43 594.09 856.78 599.5 851.75 601.43 842.31 607.75 844.31 610.72 832.54 606.91 831.03 605.13 838.12 601.55 837.32 603.33 829.2 605.27 818.67 607.88 814.78 606.24 809.24 605.77 802.83 608.17 802.65 611.66 793.47 615.59 784.38 617.99 775.91 616.68 767.39 618.38 762.71 617.7 755.69 621.02 748.75 622.05 737.76 623.87 725.95 625.65 713.25 625.23 703.94 624.05 695.94 618.35 692.68 617.86 690.34 606.59 684.64 596.4 678.42 592.01 674.92 589.66 670.22 590.59 668.59 585.78 661.13 580.18 650.64 574.81 639.32 572.48 636.73 570.69 632.55 566.28 628.84 562.23 626.54 564.07 624 561.31 618.58 563.08 614.6 567.61 611.01 570.64 606.76 569.41 604.28 567.24 606.92 563.83 604.43 564.99 602.83 564.03 597.67 566.02 596.81 567.06 593.27 569.21 589.61 568.82 587.29 571.93 586.07 575.84 583.81 575.07 582.05 577.19 581.62 576.94 578.78 578.27 576.72 581.09 576.34 583.48 572.76 585.66 569.78 583.56 568.43 584.64 565.13 583.35 559.93 584.57 558.44 583.67 553.63 581.37 550.61 582.1 547.84 583.93 548.25 585 546.56 583.69 543.21 584.38 542.38 587.31 542.56 591.58 538.6 593.92 537.99 593.97 536.11 595.02 531.31 598.28 528.67 601.86 528.56 602.31 527.38 606.76 527.85 611.23 524.98 613.45 523.71 616.2 520.98 618.21 521.32 619.7 522.82 618.6 524.73 618.44 526.08 615.1 526.74 616.95 529.32 616.89 532.29 614.38 535.59 616.53 540.1 618.98 539.73 620.26 535.62 618.49 533.62 618.21 529.32 625.28 527.01 624.5 524.33 626.49 522.54 628.53 526.53 632.51 526.62 636.21 529.79 636.43 531.68 641.53 531.73 647.6 531.14 650.86 533.69 655.21 534.39 658.39 532.61 658.46 531.18 665.5 530.84 672.31 530.76 667.48 532.44 669.43 535.12 673.97 535.55 678.28 538.34 679.19 542.9 682.15 542.77 684.37 544.11 688.11 546.2 691.62 549.9 691.78 552.83 693.92 552.96 696.97 555.74 699.21 557.71 706.02 558.85 706.63 557.83 711.23 557.42 717.34 558.94 714.38 563.83 714.83 567.72 717.06 571.09 716.07 573.53 715.57 576.13 714.12 578.52 716.6 579.69 718.36 578.15 719.63 578.39 720.41 579.99 723.13 579.59 725.3 577.43 727.05 573.24 730.41 568.04 732.35 567.77 733.75 570.91 736.94 580.85 739.98 581.79 740.13 585.72 735.86 590.39 737.63 592.11 747.67 593 747.88 598.7 752.19 594.97 759.35 597.01 768.79 600.48 771.56 603.81 770.63 606.96 777.24 605.21 788.3 608.21 796.79 607.99 805.19 612.69 812.45 619.06 816.83 620.7 821.69 620.93 823.75 622.72 825.67 629.96 826.62 633.4 824.35 642.79 821.46 646.5 813.45 654.41 809.83 660.83 805.62 665.76 804.2 665.87 802.62 670.05 803.02 680.7 801.43 689.46 800.83 693.21 799.03 695.45 798.03 703.05 792.26 710.47 791.3 716.34 786.7 718.8 785.37 722.21 779.19 722.19 770.25 724.38 766.25 726.91 759.88 728.57 753.2 733.09 748.38 738.73 747.56 742.97 748.5 746.11 747.44 751.85 746.15 754.63 742.18 757.75 735.87 767.76 730.88 772.26 727.01 774.92 724.42 780.33 720.66 783.58 718.2 787.15 711.78 790.31 707.59 789.17 704.51 789.78 699.26 787.34 695.4 787.52 691.94 784.38 Z M 676.18 886.34 683 882.93 687.83 884.35 691.24 882.08 695.79 884.64 694.08 886.63 686.41 888.33 683.85 886.34 679.02 888.9 676.18 886.34 Z" fill-rule="evenodd" stroke="#ffffff" stroke-width="0.8" fill="none" id="SA"/>
<path d="M 2039.76 187.58 2047 185.21 2047 189.1 2040.77 189.39 2039.76 187.58 Z M 1303.06 327.96 1300.47 331.33 1294.96 332.27 1289.31 338.13 1294.48 343.53 1293.92 347.35 1300.12 354.05 1296.73 356.34 1295.75 357.78 1293.24 357.4 1289.33 353.94 1287.73 353.75 1284.16 352.44 1282.42 350.1 1277.12 348.91 1273.68 349.81 1272.68 348.75 1264.94 346.03 1256.57 345.11 1251.77 344.13 1251.08 344.81 1243.83 340 1237.35 337.86 1232.44 334.52 1236.57 333.61 1241.29 328.86 1238.11 326.61 1246.49 324.29 1246.34 323.05 1241.24 323.96 1236.7 324.42 1232.92 326.26 1227.6 326.56 1222.7 328.68 1222.99 331.72 1223.03 332.21 1225.82 333.58 1231.61 333.24 1230.5 335.27 1224.28 336.25 1216.57 339.54 1213.41 338.38 1214.66 335.71 1208.45 334.05 1209.45 332.96 1214.89 331.07 1214.03 330.39 1213.25 329.77 1204.41 328.33 1204.02 326.21 1198.76 326.91 1196.65 330.04 1192.25 334.24 1192.38 335.71 1189.62 336.93 1187.9 336.4 1186.31 343.26 1183.36 345.61 1181.28 349.68 1183.11 352.92 1178.22 352.16 1172.43 353.95 1175.2 355.45 1173.44 359.01 1172.09 359.64 1168.63 359.48 1165.66 358.95 1158.78 360.42 1162.72 363.62 1159.83 364.54 1156.67 364.55 1153.66 361.62 1152.59 362.87 1153.86 366.26 1156.71 368.93 1154.56 370.18 1157.73 372.8 1160.54 374.44 1160.63 377.66 1155.37 376.15 1157.05 379.05 1153.44 379.64 1155.59 384.66 1151.82 384.73 1147.16 382.26 1145.03 377.71 1144.03 373.93 1141.82 371.32 1138.9 368.08 1138.52 366.46 1137.55 366.06 1137.44 364.81 1134.29 362.9 1133.8 360.19 1134.28 356.32 1135.05 354.55 1134.1 353.66 1132.91 353.22 1131.31 351.36 1128.86 350.23 1123.51 348.13 1120.22 346.08 1115.02 344.4 1110.24 340.21 1111.39 339.79 1108.8 337.4 1108.69 335.48 1105.04 334.58 1103.3 337.04 1101.62 335.13 1101.74 333.16 1101.95 333.07 1103.21 332.55 1098.69 331.72 1094.07 333.74 1094.38 336.56 1093.69 338.18 1095.55 341.08 1100.88 343.94 1103.74 348.64 1110.06 353.22 1114.51 353.18 1115.9 354.44 1114.3 355.57 1119.39 357.62 1123.57 359.34 1128.44 362.31 1129.03 363.37 1127.97 365.4 1124.81 362.75 1119.88 361.81 1117.48 365.49 1121.59 367.6 1120.92 370.56 1118.54 370.9 1115.51 375.77 1113.14 376.21 1113.16 374.48 1114.32 371.43 1115.55 370.21 1113.34 366.92 1111.6 364.05 1109.24 363.35 1107.56 360.89 1103.91 359.86 1101.45 357.57 1097.25 357.21 1092.81 354.64 1087.61 350.94 1083.74 347.67 1081.97 342.05 1079.14 341.39 1074.52 339.51 1071.9 340.28 1068.62 342.92 1066.26 343.33 1061.11 346.55 1049.9 345.01 1041.62 346.85 1040.97 350.27 1041.27 353.57 1035.89 357.36 1028.61 358.56 1028.1 360.47 1024.61 363.62 1022.42 368.25 1024.63 371.5 1021.35 374.03 1020.12 377.73 1015.83 378.86 1011.8 383.23 1004.59 383.32 999.17 383.21 995.61 385.22 993.44 387.36 990.66 386.89 988.55 384.97 986.94 381.7 981.64 380.82 979.35 382.3 976.36 381.5 973.42 382.12 974.29 377.68 973.76 374.18 971.22 373.66 969.86 371.5 970.31 367.78 972.58 365.72 972.98 363.42 974.16 360 974.04 357.6 972.9 355.56 972.65 353.64 972.94 349.59 970.62 347.13 978.66 343.02 985.61 344.05 993.24 344.01 999.29 344.99 1004.01 344.69 1013.19 344.88 1016.13 341.47 1017.22 330.14 1011.35 324.18 1007.16 321.3 998.47 319.12 997.9 314.97 1005.27 313.74 1014.81 315.2 1013.01 308.77 1018.38 311.2 1031.61 306.77 1033.31 302.11 1038.29 300.97 1042.84 299.85 1045.77 298.28 1050.75 289.92 1058.52 287.54 1063.24 287.7 1064.35 286.5 1069.1 286.19 1070.16 287.45 1074.02 284.64 1072.72 282.51 1072.46 279.29 1070.15 276.14 1069.98 270.33 1070.92 268.79 1072.56 267.09 1077.56 266.73 1079.56 265.17 1084.13 263.56 1083.94 266.49 1082.25 268.34 1082.94 269.93 1086.02 270.79 1084.63 272.93 1082.94 272.31 1078.84 276.41 1080.39 279.17 1080.49 281.37 1086.23 282.69 1086.17 284.71 1091.95 283.64 1095.15 282.09 1101.56 284.33 1104.25 286.14 1108.13 284.47 1117 281.84 1124.16 279.92 1129.83 280.88 1130.26 282.27 1135.74 282.34 1137.03 279.84 1144.88 278 1143.67 273.22 1143.86 268.94 1146.66 265.37 1152.01 263.43 1156.53 267.68 1161.09 267.57 1162.18 263.2 1162.84 259.85 1160.75 260.57 1157.14 258.55 1156.65 255.28 1163.83 253.7 1170.99 252.87 1177.16 253.81 1183.03 253.64 1189.49 250.5 1183.53 247.8 1173.22 248.25 1163.22 250.34 1153.98 251.53 1150.69 248.43 1145.18 246.57 1146.45 240.97 1143.69 235.84 1146.4 232.53 1151.55 228.96 1164.55 222.8 1168.35 221.61 1167.75 219.21 1159.85 216.52 1150.07 218.13 1144.56 222.1 1145.45 225.58 1136.41 230.15 1125.43 235.04 1121.3 243.04 1125.34 247.04 1130.78 250.2 1125.56 256.61 1119.65 257.94 1117.48 267.48 1114.25 272.8 1107.36 272.25 1104.14 276.76 1097.56 277.02 1095.75 271.65 1090.99 265.2 1086.67 257.16 1082.86 253.67 1071.64 260.25 1064.06 261.58 1056.2 258.69 1054.17 252.58 1052.37 239.46 1057.6 235.8 1072.61 231.03 1083.83 225.17 1094.24 217.24 1107.89 206.27 1117.41 201.99 1133.03 194.87 1145.5 192.38 1154.85 192.68 1163.51 187.97 1173.87 188.22 1184.07 187.09 1201.85 191.25 1194.53 192.77 1200.76 196.34 1206.62 194.36 1215.96 197.8 1231.52 199.15 1252.99 205.58 1257.36 208.28 1257.73 212.06 1251.42 215.05 1242.14 216.56 1216.77 212.24 1212.6 212.97 1221.86 217.13 1222.23 219.77 1222.6 225.57 1229.91 227.31 1234.36 228.78 1235.09 226.03 1231.67 223.58 1235.28 221.43 1249.02 224.97 1253.81 223.58 1249.98 219.42 1263.23 213.85 1268.47 214.18 1273.78 216.17 1277.09 212.26 1272.35 208.87 1275.13 205.48 1270.96 201.95 1286.85 203.77 1290.1 206.96 1282.91 207.66 1282.94 210.82 1287.42 212.77 1296.2 211.53 1297.59 207.91 1309.46 205.2 1329.29 200.32 1333.58 200.6 1327.98 204.05 1335.03 204.64 1339.1 202.7 1349.75 202.54 1358.19 200.19 1364.67 203.61 1371.13 199.85 1365.17 196.56 1368.13 194.68 1384.91 196.4 1392.78 198.18 1413.38 204.67 1417.18 201.7 1411.4 198.69 1411.24 197.49 1404.39 196.93 1406.26 194.23 1403.22 189.8 1403.05 187.98 1413.54 182.83 1417.27 177.67 1421.49 176.55 1436.54 178.05 1437.72 181.21 1432.34 185.82 1435.87 187.63 1437.7 191.6 1436.41 199.39 1442.68 202.88 1440.24 206.67 1429.11 214.74 1435.6 215.58 1437.86 213.53 1444.12 212.07 1445.63 209.26 1450.55 206.56 1447.23 203.32 1449.89 199.57 1443.67 199.11 1442.3 195.94 1446.84 190.24 1439.46 185.6 1449.63 181.77 1448.31 177.73 1451.15 177.6 1454.13 180.75 1451.89 186.24 1457.97 187.28 1455.38 183.18 1464.89 180.94 1476.69 180.64 1487.19 183.88 1482.14 179.15 1481.57 173.09 1491.45 171.95 1505.12 172.2 1517.44 171.45 1512.82 168.48 1519.4 164.75 1525.93 164.59 1536.98 161.77 1551.98 161.02 1553.88 159.46 1568.8 158.93 1573.45 160.21 1586.21 157.19 1596.65 157.28 1598.22 154.83 1603.65 152.41 1617.06 150.08 1626.81 151.92 1619.07 153.32 1631.95 154.19 1633.48 157 1638.67 155.62 1655.29 155.69 1668.1 158.46 1672.66 160.59 1671.25 163.55 1664.96 165.23 1650.03 168.39 1645.76 170.07 1652.8 170.87 1661.21 172.3 1666.33 171.23 1669.23 174.87 1671.72 173.4 1680.81 172.5 1699.05 173.44 1700.43 176.1 1724.19 176.94 1724.51 172.6 1736.58 173.6 1745.65 173.56 1754.83 176.56 1757.44 180.2 1754.08 182.57 1761.22 187.05 1770.16 189.36 1775.64 183.39 1784.76 185.95 1794.44 184.42 1805.44 186.17 1809.63 184.58 1818.93 185.37 1814.82 180.1 1822.33 177.63 1873.66 181.32 1878.5 184.7 1893.37 189.04 1916.32 187.97 1927.64 188.9 1932.37 191.25 1931.68 195.41 1938.68 197.03 1946.29 195.86 1956.36 195.71 1967.09 196.83 1977.87 196.2 1987.77 201.25 1994.81 199.43 1990.21 195.8 1992.74 193.28 2010.88 194.87 2022.7 194.53 2039.04 197.24 2047 199.72 2047 222.36 2046.96 222.39 2039.65 224.89 2032.29 224.47 2037.41 227.5 2040.8 232.18 2043.42 233.71 2044.08 236.06 2042.61 237.57 2032.02 236.33 2016.14 240.61 2011.08 241.27 2002.39 245.26 1994.14 248.75 1992.05 251.33 1983.92 247.4 1969.11 251.86 1966.52 249.75 1961.05 252.19 1953.45 251.41 1951.62 255.15 1944.8 260.65 1945 262.94 1951.47 264.22 1950.71 272.49 1945.44 272.7 1943 277.45 1945.37 279.9 1935.43 282.8 1933.46 289.29 1924.98 290.68 1923.28 296.45 1915.09 301.75 1912.99 297.83 1910.55 289.54 1907.38 276.91 1910.11 269.03 1914.91 265.64 1915.21 262.98 1924.04 261.71 1934.19 254.56 1943.97 248.71 1954.19 244.18 1958.76 236.17 1951.85 236.64 1948.44 241.33 1934.02 247.57 1929.37 240.58 1914.7 242.51 1900.47 252.04 1905.17 255.52 1892.48 257 1883.69 257.59 1884.11 253.48 1875.27 252.62 1868.23 255.41 1850.85 254.43 1832.16 256.12 1813.75 267.21 1791.97 280.61 1800.92 281.33 1803.72 284.89 1809.24 286.15 1812.87 283.31 1819.11 283.68 1827.31 289.94 1827.51 294.77 1823.06 300.45 1822.58 307.24 1820.02 316.32 1811.45 324.55 1809.55 328.48 1801.83 335.1 1794.18 341.66 1790.51 345.01 1782.93 348.35 1779.35 348.42 1775.78 345.66 1768.15 349.82 1767.27 351.71 1766.47 350.72 1766.44 347.83 1769.34 347.68 1770.16 340.96 1768.66 336.09 1773.54 334.09 1780.44 335.09 1784.26 329.56 1786.21 323.34 1788.41 321.26 1791.4 316.14 1782.01 317.82 1777.08 320.06 1768.44 320.05 1766.14 314.71 1759.41 310.67 1749.52 308.86 1747.42 303.29 1745.44 299.8 1743.31 297.35 1739.8 291.62 1734.8 289.53 1726.3 287.84 1718.76 287.99 1711.7 289.02 1707.01 291.84 1710.12 293.19 1710.2 296.33 1707.03 298.15 1701.9 304.18 1701.96 306.68 1693.95 310.27 1687.12 308.13 1680.34 308.6 1677.37 306.7 1673.96 306.08 1665.64 310.09 1658.15 311.03 1652.93 312.44 1645.77 311.51 1640.5 311.57 1637.05 308.67 1631.48 305.94 1625.79 305.19 1618.6 305.93 1613.23 306.98 1605.15 304.59 1604.07 300.33 1597.39 298.87 1592.23 298.21 1585.86 295.86 1579.98 301.75 1582.28 305.09 1576.76 309.05 1568.54 307.62 1562.87 307.42 1559.07 304.76 1553.14 304.68 1548.2 302.94 1539.56 305.61 1528.71 310.5 1522.72 311.49 1520.5 311.96 1517.48 308.48 1510.16 309.24 1507.74 306.83 1503.77 305.72 1501.03 302.44 1497.89 301.42 1489.73 302.88 1481.9 299.6 1478.87 302.58 1466.17 288.15 1458.92 283.76 1461 281.97 1446.75 287.34 1441.3 287.66 1441.77 284.56 1434.47 282.62 1428.54 284 1426.75 278.11 1416.54 276.89 1411.43 279.25 1397.21 281.34 1394.43 282.75 1373.16 284.73 1370.56 286.67 1374.66 290.56 1369.21 292.04 1370.27 293.58 1364.82 296.35 1374.03 300.26 1372.6 302.95 1364.62 302.71 1362.97 304.39 1355.7 301.45 1346.69 301.56 1340.66 303.96 1333.93 301.66 1321.4 297.73 1312.52 297.87 1300.79 304.06 1300.08 308.21 1294.24 304.91 1289.7 311.15 1291.36 312.31 1288.08 316.62 1292.91 320.48 1297.13 320.32 1300.75 324.11 1300.17 327.04 1303.06 327.96 Z M 1556.97 131.17 1569.26 129.89 1580.31 132.75 1593.39 138.24 1591.99 143.35 1579.59 144.06 1563.76 142.42 1554.33 140.25 1549.97 136.18 1542.21 135.05 1556.97 131.17 Z M 1608.46 141.08 1622.87 144.31 1621.18 146.62 1589.14 148.81 1599.52 141.35 1604.19 140.71 1608.46 141.08 Z M 1813.02 158.95 1828.03 159.2 1848.57 162.21 1844.1 166.43 1823.16 166.28 1813.73 167.62 1802.47 163.92 1805.53 160.02 1813.02 158.95 Z M 1866.4 163.45 1880.66 164.93 1874.09 167.18 1865.01 166.67 1854.44 164.43 1855.8 162.59 1866.4 163.45 Z M 1818.89 174.68 1824.28 172.43 1831.39 171.9 1839.46 174.08 1840.15 175.57 1831.53 175.61 1819.88 174.98 1818.89 174.68 Z M 1278.88 133.64 1289.98 132.61 1298.61 132.54 1299.77 134.07 1303.04 132.71 1308.39 131.77 1316.82 133.02 1314.62 133.88 1306.99 134.63 1301.88 135.06 1301.09 136 1294.45 136.94 1288.29 135.59 1291.53 133.82 1278.88 133.64 Z M 1328.11 172.52 1341.71 167.53 1340.17 164.95 1352.89 161.95 1371.65 158.3 1390.57 157.23 1400.3 155.13 1411.36 154.39 1415.31 156.63 1411.49 158.4 1391.36 161.22 1374 163.93 1356.34 169.34 1347.87 174.89 1338.97 180.35 1340.12 185.07 1350.99 189.73 1347.64 190.23 1329.07 189.49 1327.56 186.97 1317.27 185.45 1316.44 182.38 1322.25 181.16 1322.06 178.06 1333.33 173.21 1328.11 172.52 Z M 1836.23 286.44 1838.2 291.92 1838.05 297.51 1840.4 303.25 1846.12 313.31 1837.71 311.44 1834.21 319.65 1839.75 325.47 1839.59 329.44 1835.28 326.02 1831.56 330.42 1830.5 325.65 1831.14 320.11 1830.49 313.98 1831.81 309.68 1832.06 302.08 1828.73 296.49 1829.23 288.73 1834.48 286.11 1832.23 283.48 1834.75 282.68 1836.23 286.44 Z M 29.82 209.71 29.34 213.24 33.17 214.65 31.85 210.52 47.28 211.37 58.4 216.69 52.77 219.17 43.45 219.76 43.31 225.31 41.04 226.49 35.71 226.32 31.38 224.34 23.83 222.68 22.56 220.22 16.78 219.29 10.32 220.03 7.23 218.04 8.47 215.92 1.66 217.27 4.22 219.95 1 222.36 1 199.72 14.92 204.06 29.82 209.71 Z M 8.42 188.75 1 189.1 1 185.21 1.73 184.98 6.55 184.99 14.77 186.61 14.28 187.39 8.42 188.75 Z M 1110.06 138.85 1112.22 136.9 1120.56 136.71 1127.73 138.69 1146.44 142.93 1132.14 145.16 1128.98 149.35 1123.99 150.42 1121.29 155.13 1114.44 155.35 1102.22 151.88 1107.37 149.86 1098.85 148.22 1087.78 143.42 1083.36 138.97 1098.85 136.94 1101.97 138.92 1110.06 138.85 Z M 1179.77 136.67 1171.34 139.73 1154.86 140.4 1138.09 139.46 1137.08 137.89 1128.93 137.79 1122.71 135.18 1140.26 133.6 1148.51 134.96 1154.26 133.26 1168.63 134.68 1179.77 136.67 Z M 1164.52 149.19 1151.82 151.52 1141.79 150.2 1145.71 148.73 1142.28 146.91 1154.06 145.78 1156.32 147.91 1164.52 149.19 Z M 730.41 568.04 727.05 573.24 725.3 577.43 723.13 579.59 720.41 579.99 719.63 578.39 718.36 578.15 716.6 579.69 714.12 578.52 715.57 576.13 716.07 573.53 717.06 571.09 714.83 567.72 714.38 563.83 717.34 558.94 719.27 559.57 723.45 560.92 729.47 565.71 730.41 568.04 Z M 1073.71 349.39 1077.37 347.22 1078.33 352.09 1076.46 356.48 1073.88 355.33 1072.56 351.5 1073.71 349.39 Z M 1173.41 391.04 1172.7 392.72 1164.52 393.2 1164.58 392.26 1157.64 391.15 1158.69 388.74 1161.8 390.65 1166.23 390.33 1170.45 390.73 1170.32 391.72 1173.41 391.04 Z M 988.78 285.51 989.71 289.57 985.42 294.65 975.34 298.01 967.3 297.15 971.9 291.21 968.94 285.44 976.67 280.98 980.96 278.33 985.73 278.1 991.82 281.61 988.78 285.51 Z M 1107.89 374.88 1112.21 374.38 1110.16 378.85 1111.01 380.62 1109.82 383.54 1105.47 381.4 1102.58 380.78 1094.65 377.89 1095.44 374.98 1102.1 375.5 1107.89 374.88 Z M 1073.5 359.21 1076.34 357.45 1079.75 361.49 1078.96 369 1076.37 368.64 1074.05 370.54 1071.9 369.03 1071.67 362.18 1070.38 358.93 1073.5 359.21 Z M 1094.31 272.76 1096.12 275.61 1092.71 280.21 1086.76 277 1085.97 274.65 1094.31 272.76 Z M 1006.42 288.15 1006.43 288.15 1007.26 284.85 1003.46 281.35 1003.37 281.27 996.47 280.27 995.11 278.73 997.18 276.19 995.31 274.62 992.25 277.31 991.92 271.83 989.05 268.93 991.11 263.06 995.53 258.45 1000.06 258.9 1006.92 258.42 1000.85 264.57 1006.64 263.79 1012.86 263.82 1011.38 268.45 1006.27 273.54 1012.15 273.91 1012.6 274.5 1017.66 281.21 1021.55 282.12 1025.05 288.6 1026.67 290.84 1033.56 291.93 1032.87 295.56 1029.97 297.23 1032.24 300.17 1027.13 303.14 1019.52 303.09 1009.85 304.65 1007.2 303.53 1003.44 306.2 998.18 305.55 994.19 307.72 991.17 306.59 999.5 300.62 1004.59 299.39 1004.55 299.39 995.67 298.44 994.06 296.18 1000 294.42 996.89 291.35 997.97 287.63 1006.42 288.15 Z M 941.54 213.97 940.23 217.65 946.65 221.52 939.26 225.86 922.87 229.75 917.97 230.79 910.49 229.95 894.63 228.15 900.23 225.64 887.86 222.86 897.92 221.76 897.67 220.09 885.75 218.77 889.59 215.07 898.2 214.23 907.06 218.08 915.69 214.99 922.84 216.6 932.11 213.57 941.54 213.97 Z" fill-rule="evenodd" stroke="#ffffff" stroke-width="0.8" fill="none" id="EU"/>
</g>
</svg>