<svg xmlns="http://www.w3.org/2000/svg" viewBox="0 0 48 48" width="48" height="48" aria-hidden="true">
  <path fill="#000000" d="M33.7 25.4c.04 4.25 3.73 5.66 3.77 5.68-.03.1-.59 2.04-1.95 4.03-1.17 1.7-2.39 3.39-4.3 3.42-1.88.03-2.48-1.11-4.63-1.11-2.16 0-2.84 1.08-4.64 1.14-1.86.07-3.28-1.85-4.47-3.54-2.42-3.51-4.27-9.93-1.79-14.24 1.24-2.15 3.45-3.51 5.86-3.55 1.83-.04 3.56 1.24 4.63 1.24 1.06 0 3.19-1.54 5.37-1.31.92.04 3.51.37 5.17 2.79-.13.08-3.08 1.82-3.02 5.45zM28.8 12.1c1.02-1.24 1.72-2.97 1.53-4.71-1.48.06-3.28.99-4.34 2.23-.95 1.09-1.78 2.86-1.56 4.56 1.64.13 3.34-.84 4.37-2.08z"/>
</svg>
