<svg xmlns="http://www.w3.org/2000/svg" viewBox="0 0 48 48" width="48" height="48" aria-hidden="true">
  <path fill="#EA4335" d="M24 9.5c3.35 0 6.02 1.15 7.88 3.04l5.34-5.34C33.93 3.15 29.41 1.5 24 1.5 14.94 1.5 7.19 6.96 3.8 14.61l6.89 5.35C12.22 14.5 17.61 9.5 24 9.5z"/>
  <path fill="#4285F4" d="M46.5 24c0-1.64-.15-3.21-.45-4.71H24v9.42h12.64c-.55 2.96-2.23 5.47-4.75 7.16l7.31 5.67C43.99 37.92 46.5 31.47 46.5 24z"/>
  <path fill="#FBBC05" d="M10.69 19.96l-6.89-5.35C1.93 17.2 1.5 20.52 1.5 24c0 3.48.43 6.8 2.3 9.39l6.89-5.35A14.35 14.35 0 0 1 9.65 24c0-1.41.38-2.73 1.04-4.04z"/>
  <path fill="#34A853" d="M24 46.5c5.41 0 9.95-1.79 13.2-4.96l-7.31-5.67c-2.02 1.36-4.61 2.16-7.89 2.16-6.39 0-11.78-5-13.31-11.59l-6.89 5.35C7.19 41.04 14.94 46.5 24 46.5z"/>
</svg>
